<mxfile host="app.diagrams.net" modified="2023-08-17T18:06:28.383Z" agent="Mozilla/5.0 (Windows NT 10.0; Win64; x64) AppleWebKit/537.36 (KHTML, like Gecko) Chrome/115.0.0.0 Safari/537.36 Edg/115.0.1901.203" etag="OguQ33AJo3OlUcqKNM7k" version="21.6.8" type="device">
  <diagram name="Page-1" id="Y9-jk20m1dYdWZeWYxAg">
    <mxGraphModel dx="3984" dy="3392" grid="1" gridSize="10" guides="1" tooltips="1" connect="1" arrows="1" fold="1" page="1" pageScale="1" pageWidth="850" pageHeight="1100" math="0" shadow="0">
      <root>
        <mxCell id="0" />
        <mxCell id="1" parent="0" />
        <mxCell id="BVkSgA7eZD7vXLeDeiiQ-42" style="edgeStyle=orthogonalEdgeStyle;rounded=0;orthogonalLoop=1;jettySize=auto;html=1;" parent="1" source="BVkSgA7eZD7vXLeDeiiQ-1" target="BVkSgA7eZD7vXLeDeiiQ-11" edge="1">
          <mxGeometry relative="1" as="geometry" />
        </mxCell>
        <mxCell id="BVkSgA7eZD7vXLeDeiiQ-1" value="" style="image;aspect=fixed;html=1;points=[];align=center;fontSize=12;image=img/lib/azure2/management_governance/Customer_Lockbox_for_MS_Azure.svg;" parent="1" vertex="1">
          <mxGeometry x="70" y="173.6" width="68" height="66.4" as="geometry" />
        </mxCell>
        <mxCell id="BVkSgA7eZD7vXLeDeiiQ-45" style="edgeStyle=orthogonalEdgeStyle;rounded=0;orthogonalLoop=1;jettySize=auto;html=1;" parent="1" source="BVkSgA7eZD7vXLeDeiiQ-2" target="BVkSgA7eZD7vXLeDeiiQ-12" edge="1">
          <mxGeometry relative="1" as="geometry" />
        </mxCell>
        <mxCell id="BVkSgA7eZD7vXLeDeiiQ-2" value="&lt;div&gt;&lt;img src=&quot;data:image/png;base64,iVBORw0KGgoAAAANSUhEUgAAAFQAAABbCAYAAADtPaIUAAAAAXNSR0IArs4c6QAAFF5JREFUeF7t3AWQXEUXBeBOCMElOMHd3d3d3aEI7i6Fu7u7a3B3dwlOgADBLRCcBAiBv76m7v4vL7O7szMTslDbVVMj+6T79Ln3nnu733b666+//kodrWEIdOoAtGFY5gt1ANpYPDsAbTCeHYB2ANpoBBp8vQ4f2gFogxFo8OU6GNoBaIMRaPDlOhjaAWj1CLSUVXfq1Kn6C7XhyP8UQ//444/k9cYbb6R33nknPfXUUwlwgPXyuXPnzhmeOeaYI80666xp3nnnTSOOOGIbIGv50P8MoL/88kt64IEH0n333ZdB69q1awbK5xFGGCF16dIl/+azl795H3/88dPqq6/e9Pd6kf1PAPrjjz+m/fbbL4066qjp999/zyAGkEVAgRpA+n200UZL/fv3TyZj4YUXTiussEIaaaSR6sL0Xw/o999/n8HEtjDpALQIqs/A9AJsfB977LHThBNOmF3Cn3/+mVZeeeV8rVrbvxrQgQMHpj333PPvslmnTvmllcH1PQAsmrvPI488chpvvPHSRBNNlH766ac000wzpemmm65WPP/dxZHrrrsu9erVK/38888ZgAg43oEbwGJkfA+z9x7+dKyxxkoTTDBBBvXzzz9Pa665ZvsGFJN+++23NGjQoBY7yhyZYDWNee6www5NIJZZWjT7sj8N0w9A+c1xxhknByj9FKRqbcPU5H/99df0ww8/pOeeey69+uqrefZj4MX3YNfkk0+eNttss+zTWtOJH330UTruuOOGGHecU/al8T0ADLMvBqjRRx89X2u22WZLiyyySK14DjuT//LLLzOIt912W3b4Ol+ULZVMD/ii7oEHHpgBZYLNAXvyySen9957r+LAqzH9YoAKrTpgwIC03nrrZVBrbcOEoZh47LHHZpFtcBFVIziELgymxN8FCFFbcGB6e++9d5p00kkrgrrjjjvmiarUIkCFLy0ytCijwseOMsooOcKvtNJKTRKq3QAKzBNOOCF3cPDgwRnQGGAR0KLADtPz2xhjjJF9Gaa+/PLL6cgjj8z+rdhcd9ddd833aK6VQY1Jc06AOuaYY+Y+zj///GmJJZZI3377berdu3dabrnlasWzsSaPXccff3wShAjs1mRMMDW0YTAWgMz9zTffTCJwjx49hhjgN998kw466KBm3QHwAOX+xDsGug6XIwkInbnUUkulaaedNk+i45n8k08+2X6C0tVXX53z5zDFak2vnMEIELRh9+7d01VXXZXOPvvsIaL5W2+9lU4//fRmATUZJkn0BpjrmKRxxx03A6tFH0PQA5SreeaZZ9oHoHwekV00w6LYLsqYctQtB6iQTyTUgw8+mM4888whAMUik9dcm2qqqdIyyyzTBB6NybyLQMa5RUD79euXXnnllbTaaqsNf5N/4YUX0qWXXjpUoGgtg2kuQDFTUR9zmHdE7u+++y7deeedmUnhUpiyiQSO48u+lU8UuWVARWYWQXXexx9/nLC/XQB62GGHJVKpksypJGMMpqgLiyx1DUkAlQCETTfdNI+dSd5+++3pxRdfzCZNFQAiQCy++xxluwBu9913z2bvVQTTZ/cCpjEoktTaGiabRN3mMqHmTL+cwQTwriNQKFQw75122il98cUXGcjHH388TTzxxPleQPOOkQApg+t7mHkwU0RfddVVhwA1AJWACGJzzz13rXg2Jsrr+B577NFialk2/dCAUfjFUC9AKsNJ/wQSIn/77bdPDz30UBby008/fROAUVCO92BoAOza/hbuIEBdaKGF0oorrpjlWfzmuPvvvz/NM888ecJqbQ1hKFM08JYYGsDpKP/YrVu3bLIicbgJwWOBBRbIAwKOQHfooYdmUIDLzAUXPtPfy4DG99DAZRcQbHVfFfvll18+p7nB0EsuuSRtueWWddVEGwIovyMzoj0rNQDI0wGpRWWHvBGRw9T9rQjGp59+mk477bQMIrkDUKBhsUkIJtK9Yd7NsbXI3kiFZ5555sxUfUOGfffdN9+vntYQQPv27Zs7UomhgJhxxhnTKquskrWlFrlzsePF6Bu+8JprrkkvvfRS9nfFNLWYh8uoNJMSwEaG5pzwsQFouIC499RTT53dld/bDaBqkpdffvlQgGLQuuuum5ZeeummFLQ8++V8vMjQww8/PLOeiYYiKKoBwMqmBBlWQPZoMh5BLGRUZEbFoBX34ZMFVO7l/PPPT5RAPa0hDOXMb7311qE0qMGrCpVXFatlqERBgCrXACKAYeVnn32WhX80IGLto48+mgsttCzX4djI48MtmIR99tkn+1FqgulzQfW0hgD6xBNPpGuvvXYIQHWerzzkkENy9A5TbwtDAYqdIa+i6h5sxUSp5bbbbjsUBqFBgfnII49kk/abBTlugJtadtll01prrZX9r8rWSSed1NTXWkFtCKBff/11OuKII5okSgQZkZzgjyWI6GRbGBqVqPCTwdaI2LvsskuaZJJJKvrmojsxwV4K0wBUHzjjjDMyyILqLbfckvVuva0hgOpEJWFvADrNtGplaJGdUQr0zrfSqnL2StlZOcUs5uz85QEHHJBBBa66wKKLLpoEqHpbwwENP6VjPm+00UZpscUWG2rtpxyMKkV5Jl9MW6PA4toqUqyi2FpivuMiKDF5S88AlW7eddddmRD1rsln0jTqKZDmGAoEgYkGbYlJAUwxyscSMZcRE+UagLHuY7KqZX6RoQGoCbn33nuzBVn6aERrKKBMKXxdseKz4YYbpsUXX7yJbdX4UNeiC11H5P3qq6+aEgfgEOTlqlBrDA0ZFSJ+6623zgrCygBzZ0n1toYBevDBByeV9GILVik4yKQqbcpqTod+8MEHTVmLySCfsClYXgS0GubHfaKgwuRFdlJJ6VFJ0DKIXL7apexK4DcM0DvuuCMPOBbmigxl9nvttVeaZpppKkbjiNjxbtBXXHFF3sSgzTXXXGmTTTZpYqzfLKhVYmgMsjhRxc9RA8B+AdNkyLAuvPDC7ENldqpcUZBuK2MbBih2ymwAWvSH4QKAstVWWw21b6gSQxWRLfQR5SZDygoAvxHtQFCzDEArMbQ5YE20nSYW/zbffPOcFvOhqlnupYRn4tdff/22Yvk3WRoVlFwsUrhKPWGyJ554YtP2mJaifM+ePdPzzz+fU8iYEC7D8oQSHpZxAzPMMEPFoFT2pWU9StRfcMEFaYoppkgLLrhgZiXVwOz50ptvvjkDXixEV4vuPwaoDp166qlDRfuyaRLe5557bmZnNAzaf//9c8kPQwHK90ULhpaZWsns/WadSrHadRWcuRabxPr06ZMZ62+WTGrZkvOPAiqrUTIrluuKg7Z1Rwr7+uuvN7ETaNiz9tpr5xpmcZNXGcDWglNIJykmlyElXWeddfJamAmScantOs6ul6OOOqpaYv5/chtl8jrAjCoFpbgbE1V5Akyxya+ZIXYapO/RYhsiBglMxU0RzTGzJfnEh+622265oHLWWWflnXbciElUtbLy+f777+dFQMK/ra1hDLXB4cMPP2xxN4fOGUBIl1hOxgqVIQMLvxkDEXmB4J008x75fDC9OWBdo2z2iiXnnHNOOuaYY7JrYdaur/xowljJTTfdlN9ZVFuXQxoCqL3tynfFCN/czAIFcI6NdSYDUgIMvxmlNtcAYCx5KF7YtFAs5+XIWnqio/i9DOh5552Xr2c3iqK4eq37X3bZZXnnHwkFaNYk2iuMt6XVDeizzz6boyKWldfDyx0BzimnnDJUiYyZqUpZbSToHafOCThs9n322WfP8knJrehHi4C2Jp9YAX8pbRV86NAtttgiqZaphzJ5gDJ1rokbkgC0pdUFqKhomQIg4fCbu7m/y5hE1ckmmyyvtws2Hn+Rqfhsr5FByoJEc9d1j8jduQNyKVgaK6flaF/8Xiy6KDrbzAZ4fbj77rvzpl2kMFlTTjllE6DqpNQA7duWVheg2AYQhWT5NmDKLC2ar2BkyQH7sv8cY+L06ccfpM+++jrNMfVEqUePLXNyEJvDgGpZ4913382gKrEJHlgVReYo6RUHXUk+YadAZPVUhV5ffJd+0r2xjBIM5QoArrDTllYzoDIjS7xMw+xiH8cej7UAFuv4IozSZCiYSUgb4BU33ZO6dp89dR7YPw3u1zttt+22ebOZa2r8rELGww8/nN5+++20884750zGtTfYYIMmUFtjqHsJNAKMBIMPX2ONNbIsUrjxoJglZZM23ADl3DUd4ePk8q+99lru1HzzzZdBVLKzVKzYgDWYSTQzWxNw1kVXpklnmi+N3Hlw6tb556wSMFiaGpUhE6RGwLcKGgBxDe98Ieso6tpykHKegCfLwkp9JcskCSbJhl73w1oTKLobizH8YwwVjUVrMkNHsIj5cPT8EPPX4aIeDF9G42GZ8wZ36pJGH23U1Lfvh2mNVVfMkZaMMRmOD4YC1ETFvlFmT4TbICt1lC7G/YKtNO1jjz2WrQcwjnO8oodgw1pYivQyagKxuYK04lL+MUABosrNXDDF4Pk5QOhgpUyoGBz4WjVIWYoIaymYCbqmnXKhPQ2QaxFMqAhbZ7gQx2G+AKdhGsa7R0yivpho3z2uSHLpt/MFOwmE5jtpFJsm1GEFP8FQSvqP+FDCmDmbde/xTGUlPVhpbYcZYw9fqfPYJOoyRSasqTgxV27Ayia/B0DMFqhuuOGGNMsss2STLbPT+Y7jamzYZRUAtRjnukzfJDBt91N1MgYTyOSt4gqI3BnTb0urKSgppZlVLMGmAJT8sDcpNhZER4qgxmcDM2DfBQxugi/TMNbfTRYzB7a979xJ7D7x/cYbb8wWoWok14/l6rivzQ52OjNtftvEXHzxxVnMu/b1PXumnwcMTGutvlqeFL6ZxfhsHOW6QzXA1gSoMp0AEfvWA1DygxkX1+ErMVTHir9jUDysYOsNpvORVAKf5zv9yO8JWnE+yXb99ddnwB3LzDGTG8L8p59+Oj/CLYoDib6lLa31zznnnNmX3nPPfWmSSSbOfTZZfkeUUCbVgDiEZGtrceSTTz5JF110UdZtZUBVihRmi0sd1QCKbXwl1jhecCubMd/Gp3lquBjsFDFkOcyW64hNDD/9Ojj90qVbWmbOydNLvXpldlviwHxr8PrJdcjymLUXH10rkE3Sra2ACgg6ogOxtTAYqt6JvW1lKO3JVwIKi4BZNF+/Y5yi85JLLtlECODzeXQq/bjxxhvnPUr05egL9khdu3VPg58+M6sF/hC7faaXZUKux71ss802mcmNaG02eakYX2TGmVnxQX8DUQiOjQ0t+dAicwlvoJggvi6euCsGOUGCj1PHLMsxj8qYaJOgQrT9jjumCdc8Lv3x41epy9u3pv5ffpSDkv7ykRQGcDGbj+bLKZZGtDYDCjCD5mfKgCqJWTfytxDY1Zi8Y+Xw/K+oG5vBmsyoU6dsFYAgr8o+2HcuQ3DjQwcMGJi+7DJp6jLO1Knbdy+lD99+JU+0xIIv5qqYN3+qMq9apujciNZmQO1Ws/3FwMuAMnkDVvYKdlUDKCGt/CdHFzCiiFxkqABE5kSUd10BxCsAJosERnLuhX5d0whTLpq69O6ZvninV956Q5apNtkgwQroUurCOaRgI1pNgNKPmFAG9Morr8zpoMwlap3VAIopfKTrhgwrSq/woVgY17N9217OeJArQJX+9nn3vdRvgiXTiN1nTYNeuyn98ckL2eSda3WTiBfcqADnE/nDFVAMBajspOhDZTQitCJEpSKvAVUC2GDs2sCWIqBxDXqyGH0FMI/X8Jfl6wlKjz3+eOr9+cA06iLbpQGv3Z7GGdAnbbLR3z5S2kyLCkSCIXAt3ww3QOk+aZmNBuUob+OVgFXcbVcNQy0R07Wiu3PLPpRJqi5FMFI38CSHXR6Vri9Nvfya61Pn2TdMv/V5JC0804RpvnnnzYDSubIumxkAKdhxObaFxwMM9Zh+m03eDHP+zI95Yw4Q5O86yn8WzbU5QGlGgluQEKX5NeI+GF8sHh999NFNz9AbrODkeSVsBmoZWPd8s3fvdO8TL6c06Je0/ZabZLGPjarxIjpfLbNzDSkugrhOva3NgLohmcPvkDFMnGAWSOToxS2BwSiTQFCL1IILLeg40st5BsR/BqBlhjJHIAhIwCLeMUsQUnmSQfHb0sX4zwy//z4o3XzbHemDvu+n/ffdO5/n3iL6dtttl/WqSQUyy5Lf1/NYd83CPk40CJpOPo1hmhRQxwEY/1jF7/FYjHSSS+B7gYYlzBmo5EsxyBUZqlpEL0Z1KQIQYJm3iVTtApL7E/8ms3//b9MFF5yfJZPfsdM1KAPniPrOVyu1Lk+21dtqYmjc1OyqMcbjNNJSAyGUgymODcYxZ+llsbxHzljaKKqGMkMFO+y0UNecC5EpYT7WeQlw+qFypBjiN+Lfg10mC6CUhaoT+YSd9Tw0WzdDK81k7A+NVLSa2SZnFJUB1hxDAYpBsXuvkrAPoAElHeVGBJ0oQCte+z93KkjKdFwGCYWl3ElkftX0uaVj6mJovTd3vv8dIhmoBGhcn14U/PjJAC5ALX+P302uSr9ojp0CkF3KjsdafhPYsj7qolxyrHVs7QLQWCdvjqF8HPMtPkPUmhzjjlSV7FRRDOEuKArMtVDod/eLxyVrBbB83nAHlGKwyUHGQjqJ/mUfql6KQUWGtgaov8vA+FYVJW6IGpEhCYpeLW2MqBXg4Q6ojlMFEgayxmaH2GUXA+bzfG5N32Il8OhhkyBYknVMm7qgKgTGYQHkMAlKtc6q8wQSbFWxAhyTZJpRE3BMsWznO4UhuAAPkKI84NQ2Lb4xadeKcmA9/av23HbB0GJnRV0+E2NbCxTxn25sdQSibCj2PZXXl6oFpN7j2h2gMaBi9G5tkMPShFu7d7sLSm3tcHs/vt0ytL0D11z/OgBt8Mx1ANoBaIMRaPDlOhjaAWiDEWjw5ToY2gFogxFo8OU6GNoBaIMRaPDl/gedZzLRhqzUWwAAAABJRU5ErkJggg==&quot;&gt;&lt;/div&gt;&lt;div id=&quot;SDCloudData&quot; style=&quot;display:none&quot;&gt;&lt;/div&gt;" style="text;whiteSpace=wrap;html=1;" parent="1" vertex="1">
          <mxGeometry x="40" y="460" width="70" height="70" as="geometry" />
        </mxCell>
        <mxCell id="BVkSgA7eZD7vXLeDeiiQ-43" style="edgeStyle=orthogonalEdgeStyle;rounded=0;orthogonalLoop=1;jettySize=auto;html=1;exitX=0.5;exitY=0;exitDx=0;exitDy=0;" parent="1" source="BVkSgA7eZD7vXLeDeiiQ-3" target="BVkSgA7eZD7vXLeDeiiQ-1" edge="1">
          <mxGeometry relative="1" as="geometry" />
        </mxCell>
        <mxCell id="BVkSgA7eZD7vXLeDeiiQ-3" value="&lt;div&gt;&lt;img src=&quot;data:image/png;base64,iVBORw0KGgoAAAANSUhEUgAAAEoAAABKCAYAAAAc0MJxAAAAAXNSR0IArs4c6QAAA8xJREFUeF7t21lIVGEUB/C/4Ia54Mtkli+Jhpqm40JWI5gaalKmKJgmofmgpCaUZhCYKYi0h+lDaVFhoD6EIbRQoikabpNaUymJQprigyNCLmDMBQ11pjne5k5pZ5507v/77vl+c+7F5bsmi4uLi+CXXgEThtJrJAQYiubEUEQnhmIoqgAxx/cohiIKEGPcUQxFFCDGuKMYiihAjHFH/YtQw2NjUHYpMTI6jvmFBWKJK2NmpqbY5rgV+329IZPJRM0hZpDROqqptR1ZuYWYnp4WU+eaMXZ21ii7WoRAf7lB5tM3iVGgej98QnRCmlDLvgA/eHq6wcLCVF9tWo/Pzi6gR9mH9o5u4fjTJ3ex281V1FzrGWQUqPDoJHz5OozrJQU4EnFwub7+fhV6P35GZGQobK2s1lM36hue40x+MdxdnVFfU7WusWLCkkNNqtUIUETBUSZD88va5RoHB4dwKCZZ+F4RGID7FVeEr4+nZq9Zh62NDSpuFK15PzDsGMbHJ9HR2AB7e2sx6yePkRyqU9mH+OQMyH33oKby9nJhr5vakJaZCy8vD0yMjuPtqzrhmI8iAmr1zIoFhAUHaYWKS8lEV6cSNQ/LIffyIC9aTFByqLaObiSmZiPA1xvVlbeWa5ybm0NOfiG63vcjJz0V8TFRwjFNXttrr5/PmrcTUrLwrrMHj+/dhLbjYkB0jflrUIZYxKaEMgSMrjnKrhUjPEQh5Smk/wvn0qUn5Sr40tOjuykvvdU3c0N0GEMRFRmKoX79HEW0+G2MO4qoyFAMxZeezh7Q9bsesWn4HsVQqwS4o4gtwVAMRRQgxrijGIooQIxxRzEUUYAY445iKKIAMcYdxVBEAWKMO4qhiALEGHcUQxEFiDEpO+pAaCxGJyZQUpCHuGOHiRWJi23oTRryoChMTalx8Vw2TibFihMgjtrQUPxfGOKnzFD/MxRx7aJim2rbjygBwiAzc3NU3SmVfL8538wJH4YmIjmUZjNr3Il0eHu7o+5BBbEsWiwmOQNKZR9qH5XDx3OD7wqempqBPChCWHnjs2o4OW2nKehJDQ2NIORoopBStryAtbWlQebVNYnkHaU58anT5/GmuRWWlpbw9/GCu/su0Y94/JidR3+fCi3tHcKadO1BN7SaUaA0Ty+czbsMzYNDhnyFBitQeukC7Oy2GHJarXMZBWrpzCrVAFQDg/j2/c8eQ9vh4AA3V2e4uOyUHGjpBEaFMtqqJDgRQxFRGYqhiALEGHcUQxEFiDHuKIYiChBj3FEMRRQgxrijGIooQIxxRxGhfgK+xnlQFECfLQAAAABJRU5ErkJggg==&quot;&gt;&lt;/div&gt;&lt;div id=&quot;SDCloudData&quot; style=&quot;display:none&quot;&gt;&lt;/div&gt;" style="text;whiteSpace=wrap;html=1;" parent="1" vertex="1">
          <mxGeometry y="280" width="70" height="90" as="geometry" />
        </mxCell>
        <mxCell id="BVkSgA7eZD7vXLeDeiiQ-44" style="edgeStyle=orthogonalEdgeStyle;rounded=0;orthogonalLoop=1;jettySize=auto;html=1;exitX=0.5;exitY=0;exitDx=0;exitDy=0;" parent="1" source="BVkSgA7eZD7vXLeDeiiQ-4" edge="1">
          <mxGeometry relative="1" as="geometry">
            <mxPoint x="100" y="250" as="targetPoint" />
          </mxGeometry>
        </mxCell>
        <mxCell id="BVkSgA7eZD7vXLeDeiiQ-4" value="Desktop" style="strokeColor=#dddddd;shadow=1;strokeWidth=1;rounded=1;absoluteArcSize=1;arcSize=2;labelPosition=center;verticalLabelPosition=middle;align=center;verticalAlign=bottom;spacingLeft=0;fontColor=#999999;fontSize=12;whiteSpace=wrap;spacingBottom=2;html=1;" parent="1" vertex="1">
          <mxGeometry x="120" y="290" width="70" height="70" as="geometry" />
        </mxCell>
        <mxCell id="BVkSgA7eZD7vXLeDeiiQ-5" value="" style="sketch=0;dashed=0;connectable=0;html=1;fillColor=#757575;strokeColor=none;shape=mxgraph.gcp2.desktop;part=1;" parent="BVkSgA7eZD7vXLeDeiiQ-4" vertex="1">
          <mxGeometry x="0.5" width="50" height="45" relative="1" as="geometry">
            <mxPoint x="-25" y="12.5" as="offset" />
          </mxGeometry>
        </mxCell>
        <mxCell id="BVkSgA7eZD7vXLeDeiiQ-40" style="edgeStyle=orthogonalEdgeStyle;rounded=0;orthogonalLoop=1;jettySize=auto;html=1;exitX=1;exitY=0.5;exitDx=0;exitDy=0;" parent="1" source="BVkSgA7eZD7vXLeDeiiQ-8" target="BVkSgA7eZD7vXLeDeiiQ-10" edge="1">
          <mxGeometry relative="1" as="geometry" />
        </mxCell>
        <mxCell id="BVkSgA7eZD7vXLeDeiiQ-8" value="" style="image;html=1;image=img/lib/clip_art/people/Security_Man_128x128.png" parent="1" vertex="1">
          <mxGeometry x="50" y="50" width="80" height="80" as="geometry" />
        </mxCell>
        <mxCell id="BVkSgA7eZD7vXLeDeiiQ-41" style="edgeStyle=orthogonalEdgeStyle;rounded=0;orthogonalLoop=1;jettySize=auto;html=1;" parent="1" source="BVkSgA7eZD7vXLeDeiiQ-10" target="BVkSgA7eZD7vXLeDeiiQ-13" edge="1">
          <mxGeometry relative="1" as="geometry" />
        </mxCell>
        <mxCell id="BVkSgA7eZD7vXLeDeiiQ-10" value="" style="sketch=0;outlineConnect=0;fontColor=#232F3E;gradientColor=none;fillColor=#4D27AA;strokeColor=none;dashed=0;verticalLabelPosition=bottom;verticalAlign=top;align=center;html=1;fontSize=12;fontStyle=0;aspect=fixed;pointerEvents=1;shape=mxgraph.aws4.vpn_gateway;" parent="1" vertex="1">
          <mxGeometry x="190" y="70" width="60" height="60" as="geometry" />
        </mxCell>
        <mxCell id="BVkSgA7eZD7vXLeDeiiQ-47" style="edgeStyle=orthogonalEdgeStyle;rounded=0;orthogonalLoop=1;jettySize=auto;html=1;" parent="1" source="BVkSgA7eZD7vXLeDeiiQ-11" target="BVkSgA7eZD7vXLeDeiiQ-13" edge="1">
          <mxGeometry relative="1" as="geometry" />
        </mxCell>
        <mxCell id="BVkSgA7eZD7vXLeDeiiQ-11" value="" style="sketch=0;outlineConnect=0;fontColor=#232F3E;gradientColor=none;fillColor=#4D27AA;strokeColor=none;dashed=0;verticalLabelPosition=bottom;verticalAlign=top;align=center;html=1;fontSize=12;fontStyle=0;aspect=fixed;pointerEvents=1;shape=mxgraph.aws4.vpn_gateway;" parent="1" vertex="1">
          <mxGeometry x="240" y="173.6" width="50" height="50" as="geometry" />
        </mxCell>
        <mxCell id="BVkSgA7eZD7vXLeDeiiQ-46" style="edgeStyle=orthogonalEdgeStyle;rounded=0;orthogonalLoop=1;jettySize=auto;html=1;entryX=0.25;entryY=1;entryDx=0;entryDy=0;" parent="1" source="BVkSgA7eZD7vXLeDeiiQ-12" target="BVkSgA7eZD7vXLeDeiiQ-13" edge="1">
          <mxGeometry relative="1" as="geometry" />
        </mxCell>
        <mxCell id="BVkSgA7eZD7vXLeDeiiQ-12" value="" style="sketch=0;outlineConnect=0;fontColor=#232F3E;gradientColor=none;fillColor=#4D27AA;strokeColor=none;dashed=0;verticalLabelPosition=bottom;verticalAlign=top;align=center;html=1;fontSize=12;fontStyle=0;aspect=fixed;pointerEvents=1;shape=mxgraph.aws4.vpn_gateway;" parent="1" vertex="1">
          <mxGeometry x="260" y="480" width="60" height="60" as="geometry" />
        </mxCell>
        <mxCell id="BVkSgA7eZD7vXLeDeiiQ-48" style="edgeStyle=orthogonalEdgeStyle;rounded=0;orthogonalLoop=1;jettySize=auto;html=1;exitX=1;exitY=0.5;exitDx=0;exitDy=0;" parent="1" source="BVkSgA7eZD7vXLeDeiiQ-13" target="BVkSgA7eZD7vXLeDeiiQ-16" edge="1">
          <mxGeometry relative="1" as="geometry" />
        </mxCell>
        <mxCell id="BVkSgA7eZD7vXLeDeiiQ-13" value="" style="image;html=1;image=img/lib/clip_art/networking/Wireless_Router_128x128.png" parent="1" vertex="1">
          <mxGeometry x="400" y="240" width="80" height="80" as="geometry" />
        </mxCell>
        <mxCell id="BVkSgA7eZD7vXLeDeiiQ-49" style="edgeStyle=orthogonalEdgeStyle;rounded=0;orthogonalLoop=1;jettySize=auto;html=1;entryX=0.5;entryY=0;entryDx=0;entryDy=0;" parent="1" source="BVkSgA7eZD7vXLeDeiiQ-16" target="BVkSgA7eZD7vXLeDeiiQ-19" edge="1">
          <mxGeometry relative="1" as="geometry" />
        </mxCell>
        <mxCell id="BVkSgA7eZD7vXLeDeiiQ-50" style="edgeStyle=orthogonalEdgeStyle;rounded=0;orthogonalLoop=1;jettySize=auto;html=1;exitX=0.5;exitY=0;exitDx=0;exitDy=0;" parent="1" source="BVkSgA7eZD7vXLeDeiiQ-16" target="BVkSgA7eZD7vXLeDeiiQ-17" edge="1">
          <mxGeometry relative="1" as="geometry" />
        </mxCell>
        <mxCell id="BVkSgA7eZD7vXLeDeiiQ-51" style="edgeStyle=orthogonalEdgeStyle;rounded=0;orthogonalLoop=1;jettySize=auto;html=1;entryX=1;entryY=1;entryDx=0;entryDy=0;" parent="1" source="BVkSgA7eZD7vXLeDeiiQ-21" target="BVkSgA7eZD7vXLeDeiiQ-16" edge="1">
          <mxGeometry relative="1" as="geometry">
            <Array as="points">
              <mxPoint x="750" y="535" />
              <mxPoint x="750" y="340" />
            </Array>
          </mxGeometry>
        </mxCell>
        <mxCell id="BVkSgA7eZD7vXLeDeiiQ-52" style="edgeStyle=orthogonalEdgeStyle;rounded=0;orthogonalLoop=1;jettySize=auto;html=1;entryX=0;entryY=0.5;entryDx=0;entryDy=0;" parent="1" source="BVkSgA7eZD7vXLeDeiiQ-16" target="BVkSgA7eZD7vXLeDeiiQ-20" edge="1">
          <mxGeometry relative="1" as="geometry" />
        </mxCell>
        <mxCell id="BVkSgA7eZD7vXLeDeiiQ-16" value="&lt;div&gt;&lt;img src=&quot;data:image/png;base64,iVBORw0KGgoAAAANSUhEUgAAAKEAAAChCAYAAACvUd+2AAAAAXNSR0IArs4c6QAAIABJREFUeF7tfQd4XOd15ZkOzKA3ogMEUUiCYhebxCJKpLpsybJkS7IUK5bcNvHaiR07dvJtS7K78WY3u15vkt3Nbna/b7PJ2omrGimqUzSL2AtYQJBE74M65b2Z/e5f3vvfmwEJwAOCoGb80aQATMGbM+fee+6593fE4/E40rf0FZjHK+BIg3Aer376qdkVSIMwDYR5vwJpEM77W5B+AWkQpjEw71cgDcJ5fwvSLyANwjQG5v0KpEE4729B+gWkQZjGwLxfgTQI5/0tSL+ANAjTGJj3K5AG4by/BekXkAZhGgPzfgXSIJz3tyD9AtIgTGNg3q/AwgIhuc5iMcDlmvcLl34BqbsCCwqEen87QiffQWDr04DbnbqrkH6keb0CCwqEkfPvYeSHX0HGw7+LwI5n4PB45vXipZ88NVdgQYFQbz2E8f/0CHRPCTy7v4Gse54DXGkgpgYK8/coCw6Ek3/5CBwuL8J6Pry7v8EZ0eWdsytI0w9xh4Pcv4jBAfbfkBMRDuV5+dccoK/F4RD3YX871J+bs5e6YB944YHwLx6BO9MLPQJEUAjvfb8D/46nUwrEGAGOjd44oMdiiMZjiGgxBMfDGBybxGRUJ5xBF8B0OgCX08lA4HY5keF2wutxw+9xIcfngdfjgtvhgMflBJwOuNKgtHxgFhwIQwTCDM58DIjOYngf/CYyNzwBh883YzYgqBHg9Bj/o8VjGAtH0T8ZRjAcQYgAJ4hseCyEc+39uNQTxHgoiogOBk6N4dUBJwOXAyAAM4DG4YjHUBjwobksHxuXlGJZeQFy/T54nE64CJBOp3z4Gb/22+UOCwyE7yH0F08aIDSA6CqBd/c3kbnp8WkBkTMdB99kVEPX2AR6x0KM8VhAFaBjodX4t/UtJ9wRED9q7cHh1l6EojE4HU4GRnZjTBpHjCSlWAxOxLBjRTVWL1nEwOpxOlASyERFTgB+j5t9jRiVA/njdVuYIPRZc0A9EkHEVQHPvV+H/65Pw5GRkfAuEib0eAzRWBxDk2EGvPGoDo1AInI5/v5PD4TyCaKajrdPt+PAhW44nS4WbjkI+f9xEOrQdR13LS3HnQ1lyPR5eOYoPgjEilleN8qy/Sj0ZzCAEqDlQ93ukLwtQMgYMRxB2FkOz66vIbDlaTgyM1kRQRCL6jEEQxF0j00iGIkiGqMSg4ONFxL8RgUEe+OpmDC+xoFp/IwNEZoew75TV7G/pQtOlxtOkRvynJKL6wREPabBgzhW1hRhXUM5CrP9cAqUESvLgodyxyy3G5W5AeRn+uB1u0DZ5u1c3Cw8EP7wSVaYJLsREEOOcvh2/TZ8dz+NSYcHfRMh9mcsonHQGQBzsHBMfyjvm4xo7A3PyfSykCjzRMrbqLDgxQQHoxowe4Pj2HfyKk63D8HpNkEoc0JOdzpiegy6riGm66gqCGDzsirUlubD53Gz18VAGAfGJsO4cLUbBTkB1JcXoSInC8V+H/xe922bPy4sEF56DyECoX9qSYaAOOmswsjml9HRvBthl1cwHJdK6I2mYmI0FMXgeBgdg+No6QoiOBFGUXYmmspzkZXhQf/IBNr7R1GcnYlNTWWoKMiy8CGBhoBLOSGx4FhEh5OqX8oLZTiOx3iVTbmmZEQCoqbB5wRW1pViQ1MlinL94rXFca6tCwdOXkTAn4F1y2pRkp+NgM+L8uwASrMyGRiJLW8nZlyYIBTV8VS5EgFxKF6Jrg0vYnztQ4AvEw6Hk6VpQ2NhHLncj+NXB6HFuWQiq1oVMAScWDwGZzyONbXFuPeOKmSTNBSLYTKsYXg8jJNX+3HsSh8mIjEOQBaKuU7IK2T6J38czogyNOsMiNA1rKwtwfaVdSjKC4hihqcP569243J7L4rzs1FTXgR/pg8ZbheqcrNY7kjFjFuE/oWeM96WIJQ54rCzEt0bv4jJ1fcDGX6MTkZx4GIvDrYOsN6z0+USFS2BR4JEh9/lgN/nQjiqYXwyAq/bifV1xVhRVYjuoQkcvNSNq/2jXJYhIMiqmP3NgSdlGkOuEbINC80sR6QQTUDUsW1FDVbUlLCChUI/SUX0M6FwFD9/9yjcHjfuWFKBmrJCZPi8cDuBhoJcFAcyGTAXekW98ED4n5+E5wZMKJmBquZhZw16Nr+E0OoHMKS5sP9CL45eGwbcHmsOx6oDHT4XsKG2ADuaSjEwFsL+8904dqWfhXBRvZh/8yQTdqWP9EETiCYoJdNK2YYBUTAiFS5leVmoKMzGJKUU4SjWNlWhvXsAh862obIoF7s3r0BpYS7PZWNxZHs9qC/MQUEm1x0XaoheeCD8wfRBaDCiuxJ9m17G5NqHcWFYw+unuhCMxBkI4SBbGC8eigIe3FVXiOXlucj0uBirjYWiePtsJ94/380Zz+nkoBMANEOhDL+i28I0RxmWhXit5oeiYKHn9bocDIyToTAL9wyk8RjyAhlY11iJs21dLBfcvakZiwpyedUv/hCHVxN4s/0IeD0LkhVvexASSLRwBEFnJQa3vITRNQ/jZL+GvS29mNQIUwTCGLyOODYsLsDu5WUsoqqa8a8u9uDVE9cQ0ukbQpCWDChSQM5+5h8jv5RfE99nXxcgo0o5w+vC5sYyuBDHqbZu9A+PMSYkXZEq8+xMH0bHJ3Df+ibcubSWhWsJQMmIlHPm+ryoL8hBfmYGax2K8mhBpIsLBoSU40cu7If2w8fhsYnV07nSBMQRVyWGtryModUP4cOOEN650E9NX1DJUuT3YGt9EdbXFlm6JFosjhNX+nHkch90ODARjWFwIsJadmarjivPXBskFpP/bc8N+X8bYVnXGSDvqCnC1mVVyPS6caGjD8cudaBzYISDMaohqml4+p61WN1YyXJQxoTEmJIRKYeMx+F2OlCTl43KnAAy3a4FE54XBAjpAo9Gohg+/R6K/uYZeKbQCW8ERg7EGvRuehEfFG3BnstjyPF7ke/3YllpDporctm/GQrNjp3ysA70jExiz6l2HG8fBpyiKBBsyCthwYYq8xkMaYKSVcw6hV4duhZFfWke7l21GIsX5bOC6HRbN86396Kzfxi9gyN4eFMz1i6tYSYIFXzxeAw667zQY5HWGEdFjh+1+TksZ1wIRcstD0JyqgxOhHElOAbt4oe448dfgCexK3cj/Bnf1yJANyqxp+wJtC65B7vWNaA0l3cvjC6JDYHWbq4Db53twCsn2hGj1hqFc6NfrDKd6JgYzCf1QqWnTMBhInYUsWgUO+6owY6Vi5Hjz0CcAIU4QpEo9hw8g2x/BlY1VCGQ6TVASD9jhmT6N1XdZMSIocififKAD4tyAvDd4i70WxqE1NftGw+hZSDIWm25ncfQ/PcvwpM5bcwl/UEC4oVQKa6s+03UP/IZODOzbUaFqZiQP9zBSz345YlrGA2TPkjFjYSpWoDY80O1YlbAqpNkQyE3ivtXLca2FbXweVzoC46zDg7lhF0Dw+jsD2JxWRHysv0MeGZxwhmQ/RG9agnEK9e6sa6qBCtrypHp46L9rXibMQi19vPG7zGXy67jcGJ4MoTz/cPMKkVMld17Bk17vwf3r8GE8sVrYWA0sw6j274Mfd2DgD/b0o6zv2Hq2zc0HsYeMi20Dgg2lPqg4p5RihSeB6r5oRKWWTXMQ3KjCMn087/48BQKc/y4c2kNLrb3omsgiHvXNqKqpMBSHZuhOcbC+MjYBDIzvHC5XOjuH8abHxzF03evxtbVTax4uRWBOGMQdr28DC53ltGZmqtPVtyhIRyhfEcT/Vo3PK4QCjOG4Z65bTA5I4aA0QwC4suI3fkIEMgRzyV+XDBHMv440tbHQnL/RNQMyXIHvfQTSknGkh9SC0+ypMghCYg6OW14bkhSTUdfkBUk1IjRNQ0elwOff2AjllaXsjBtMKEMyfE4+gaDePfwadRVLUJlaRE8Hg/+7tX30N03hN96bDu2r2xCnt93ywFxxiDs+2wO8qp+zXg4V8idxeNqk8BIZg3Gt34JsY2PwSGAKB9KuLskKo1nON81jFdOXEPrwHiie0YpRIxCRamKTSnHBCFv6REQNUMn5GDl3ZUCvxef3r4KTVUlDETWkByHpulM4B4aGcPxc63IyfKjtrIU3f1DeP2DY4xpv/rorQnEGYOw97M5yK+4fUDIdUQKzTUY3/ZlxDc+CgRyDbBZWFD5j/bBMbxxsh0nO0cQIwFbGBduVB0n6IdCalFNDhx4MmRzlszO8GBdfTmWV5egJC8L/gwKrdyYS396BkdwtrUduVl+LCrMw0QohMHgKCZCERw+fQlXewaRneHFP/3kPbh3VSO7/61ymzkIn85B/m3EhEaOOAmMBuowsf2LiN75CEIeP6s0MzwueNwEMpo34WGQjAPERtRF+eXJDoxrccNHaOqAyYXrBBDanTYKi3IgchBSj5nYzO92YsOyamxZUYfCnIABxLePnMXrB05gYjyE5oYqrF26mIndP913ED1DI8LdE0dxTgC/8/hObFmxhHVYboXb7EBYeXsxoQFEyhEDdejZ9AUcL9uMjpAT5QUBLMrxI9PrYnZ+Yp9KsnU5gNdPtuOd872IkV4oHS3CLc2YjW5JihKqZHlLT3HXyPxRDdvM6CCAKNzZiEYBPYrtK+uxY10T8rIymZzzxsGTePPQGYyOh9jTBjI8KC3KQ0fPAMYjEcidFfRBWpSXhe999n6sq6+Bzz3/2yzSILRRgRYCurx1eKP8E9jrX4UJbxaXSrzcVdNUmoPH1taiNziJXxy/imvDIWGEkG/m9WQaa8ckaW4ogCkZ0wQhidsaK1IIiHkBL567fyPqK0pYoXL8wlX8w9tH0BscE3YyLobLMQPZx5aPt6WpBl9+bAcaK0rm3RI2OxDeZjmhPSRRjnhWq8Qriz6Bk5V3YdJHVXMczriOXctK8cjqapxuH2TGhitDk5jURQ/a6JzIFp4akq0SjVmwyGpZMcBKNiQmZKAUplhNQ8DnQn6GB1tX1mHlkgpk+DxMI7zWM4D//ep+XO0bhovlp3F+XwIitRIl+8rH1GP41N2r8dJDW1HEwvr8aYhpEE6RFBEjtmiVeLXicZyo3o5JbwBexLG5rgA7m0qR4XGiOziJvWe6cLwzKGQa8WCGmXVqU0My3ZC7Z3iYNkAqQcNsXzoblLpvTQNKmdObD+PzwiSIv/75e7jaM2C4uwmEAZ+H9ZGHRsdZ5U3hmIFa11FTWoRvPfMQ1taWzasVbFYgLCi/PXNCOx6jIeC8XonXqp7gQPQEkOtzobE4Cw0lWYhqMRy8MoDL/ePcVa0woTHymZDrmbmgCToFeGz6T0zpifsaIVnTUJ4XwJNbV7D5Ez6bIkZXwxH87N2j+Oj8FQTHQ4wFCYCbltehqrQAHxxrQevVLkQ0Mk1w69ri6kX41K4t2NZYjdLswLwN5c8chE/loOA2D8cqGCUQX6/6FE5Wb8e4O8D0PPpDN2YQMMytLPBZnNVWnXCKkJzAgCJ3FF9nYVUI2lSU3LNyMe5d08CLEqOFR7MzGl754DjePdqC0YkQ7lrVgPs2NCMnkImL17rx6rtH0NbRaxQ7W9YuxeY1zViUF8C68hLkZvrmZRA/DcJpaBQExBa9Em9UP8mASIzIwykHHfPuObipVQUdYzTD1p9YlFjlGgE0u9CtAJFJNVoUmW4HHr97BdY1VDF/Id24eA0cbWnD3795CP1DQXzxU/eiqYb7I8kIcvrCVbz/0WnWY/a5nNi0ZjlKigvY/RfnZ6N5USG81KK5ybfZgbDs4xGO1fciEgJO6zX4WePncbbmbnOQiYBmMbRyW5UMx1bdUMn1ZBUsczQjF5SyjdJvNvJC0gypQo6iLC+AhzcsxYq6cuaSkaL1gVMX8dO3D6M/OIavP/MgFpcXK9avGAaCY8jM5D1knRw8tAKFFS/A+opiNkQl9+rcLCymQTiNK034CEWBlmgNXlnyLE7V38fyKgY+BYCS9SxsaNMJrQWJBJq9QjZtX/znuUXLFK45EGke5bP3rEVBth8ZPjeCY5N4ff9xHDp3GZVFeXj6/i0ozs9hIZstb2Jg5lYv9m89xjZQSNcNLXC6u7YcWTdZxJ4dCEs/PkxIAKQxgBa9Dq/VfRanltxLa44M8CUCzuaYSRqSbeZWY/bEVhkLoyoDocgLJRCp0oWmYeeaejafUpyXhdb2Xpy93IHSwhw8sXM9yoryeaiWLmzyGgoQEhCNPzoHJgFybXkxm1m5meOkMwfhkzn4uFTHEoDn0IQ9tZ/GqcX3QCf/4BQGBTX0MgZLwpKm/JIk7DKgEcOaThv2OGqBwoDJJRbWyovxYXqaSSExu6GyGE/ftwHlRXmMp5nPULAx/ZvALJmPj57GoDEQ0mPFQUuYt9ZVII/1pm+Odjg7EH4MckJ674kBzzqbsGfxUzhbux2ai5RCm/bHqxExW2IWIlaGVHPBRG8ha+MZfkN1a0OSvFAO0Qutj8BDYGS5oq7hqR1rseWOJcjweoTrWp1F4QCk12ZhQlqJxwBNgIyhqSgPS0vy4b1JC+rTIEyWE8aAiShwztWAPXWfxZnFHIDEdJRfqUWH3bAgc74Z54WKTGMZhjIAauaF7Pvs5/mglGRB8hx+6bG70Vi1iCUMhuFVzClL+z9nQAFEYkYqUEQ4pn+7HMC2xRXI92fcFMlmViAsXHT75oTEaaEwcA51eKPxWZxeshOak9wm5moPKxtaWc4CIDUcW9jOyobqmhBrx4Rb9zlL2kAow7TY5kDSDRUqv/HAJlQU5wvJRlj/lak8CscsLIvihKYJJSuyIkXXGRs2FuWjeVE+PDeBDdMgVJjQBGANXm/4HE417kZMDseLMU4Co8GG9habxVGtSjeKRigYz5B1VD+hyAmtzhs5DM/BIvvAPFfkWyPY17Uoqgqz8QKBsCjPwoKmC1uGY/G3UZyIwoRVy2SsjbE23rbF5cgjAXuOc8OZg/CJHBTehjkhK0IiQAtjwOdwcumDyiyx2K4gmM0KQkWQZjPH08kLrXqhJSc02nYmA8rvczODqKAlQ1JOSGDSoshwOfD0znVY21gFD9MOzTFQGZrlnhtDpjFWJVM+yJeGMulG15l43VRMbDi3AvbMQfjJHBTeZr1jel8pB2yhHLD+GZxmDOgUe6fN4SVZFVvyQqkXJqmYpy5OkhQqyXJCyZoi9JoglDmhqJzlWACbXy7Ac/dvQpncWaNO5gmdUOaEsjqW+aEBwBgPyTS3vK2uYs7Nrx97EEoAnvU04c36Z3B2yb3QDBmGgp9aiAhAymMkLN6/5Lat5L1jex5pzf0MNk0Aod38IOUbnsvR7LLfDfz2p+/F4vIisanB3FtjzCiLDozMDY0ihVXHnA0JhMSIW2rLUJmbNadD9DMGYddjOcgrnEabYQ5+hMjJ7c1MWcVGaR6rgg0A7kSUnYliDb8MSMyYYALyenmh2hOeloFBEaXthQnTDRO0QoUJRW7IBqS0KPIyvfjq49tRU1pgLIfnOaE5n2wpThS5hgFPAJByQ/rvsuwANleXMmPvXN1mDMLBf/McvH4+8mm5CTe7/Br94mPRCI51jyLgdqI0m3aj0GwGfy+HJjT0T+hwuJxwsN3NIu9Isn6DvfeIITc6hPWjx1NyiBPBinLAc+4m7G18BmfrCYA0S2pWwfLfNwWEQv9L5idUq2drXigFb76YnUBYtygfLzywEWWFeYbXUN3ixXNBdVuDWilLEJpsSEvcdzdUI2sW+3+mC9oZg3C6DxyOxbH/ahD/5WA7ygIOPNiYA5eLzu5wIqrH8asrozjWE4bb62Nn1PFt9YRA7svj69fE1rY4hQcN9d2H8AcfvgRPxq8pEZEQTQB01WHP0hdwtvE+6C4SdxndGQuNbn0Qyh6zAGE0wixeD25qRm4g01gRooJQdk341gazl8xkGqOXLMKyzkXsDVWLUFeYO2chec5AOBaN4d99cA2ne0aR443hyTvyWT+SBoIiWhz7LgyjNajD6fPBQVvvJQjFwJABQtH7JBA29hzGd/d/Ad5fA4SsE0JVsLMObyx9AWeWPcCLENbjnQYIk1bI9kJDyd2MgsXeKVH2GEon9RTO6qmZUAWhhlg0gpce2oK1TdVsPZwEnzS+yh6yZEP2t1Id81Bsdk54bqizYy12LKmcsw7KnIFwJKzj669fQnAyAp9Tx1N35CNAG+hdHITvXBrG+UENTmJCBkLr4kkCK0XpWJziNx97rO89jO++/5vw+mbHhEyGYZ2QOuxpegGnmh82c72FDEKxvcHjAL7x6Xv48JOySNPKhBJ4QrRWXDUyJ+SMyHNC2gFEJxc8tnwxMuZosdKcgJCcGq1DIXzvrSssV/FAx64lWagpyGDhmDbvftQ+igPXJuAmJnSqS4WYXZkzI1PreUymTzED4bufnxUI4/FJTEQzeRFCnZClD7ChdaPgmC4IWZFyfcF6VoXJr5MTipnkkpxMfPHRu1Fdau6rkdu9DCODMDEYXRN7H1mGZPF3lC1simFXQzWKsvwpKwrVtG5OQBjSYvibEz14szXIWMwR17C2NAPrq7L5WRwOoH04gh+f7IfT42VDQuRlq8qjw2McrGDpnqCNV3Ke18GkksbeI/jO28/DO8PlARSCJ/RMnPU2YV/TczjXuAu60yPkFx6CjeJjgRQmRsUsT4yKRlFVlI0XH9qCqhLZtuO/V8LeGtE7VlfJSVAarTujSuYhua4gF3dWLZoTi9ecgDAY0vA7ey9jhPbrMi1NR22OCw805RvFCZ378fNT/RiNxNlATn2JH+src+D3OHGkcxz7Lo/BRcvNlaO6Gno/wrfffG5GIGQyjJaJs77l2Nf0DM417ITu9pmgE/KLpQL+tSUa1S84vbHP5E4acaKA0CPlwJNpYFDE6mgUFUXZ+EJSEJpLNA2tUPSiLY4ai5GBKuQ4iAkJhFQlP7p8CTI9ZPZK7S3lIKQ3vWcsgn/6RquQ1eIsn8vzAp+6I984mYh+riMYxuC4xg6vqS8OIOB1gVj0wyuj2N8+Dpfbx84HkdsNlswQhEyGIQC6m/Dm8s/hXMO90N3khhEitNT+hONEDc38xdvFarNyZgeW8YzfZu83C5CpnTTXE6tVY6vwF163YyLadjYQmkUJnz2RnkJp5TK6JmpOKCpkUyuUVTLPET+5oh45cyDVpByElA+2DYfx+/suG+8p/cIeRwzbawOoL/YjHnewtRrUk6TwTJkZL0QcGA5p+NGJPnRP0KHuXgWEDtT3HsHv7X0O3mmshuNFSCYvQlZ8Hi1Nu7khVRTAvBMiq2F+Bp5dpGaMYxOpE+xcwp9n6osmwGbWtjN7xVN3TKx7DflQvAnC0rwAXn70LlQvkjmhPK5M6ZoorTsu1yh2f8XOJbsmZgdFx8NLFyM/kJnypeypB2EsjneuDOMvjtCRC/QOyvN/dRRlOlGX72PzuoUBN1ZW5PJN88ZZwcDV4TD+9lgvdJfXCMf8IMIZgJD1gjPR4qrBG81fwNllDyKunL7JZ0NkT1hMyFlAqYBTFCIqYKc0MAg3dfJZkyQbFuxmBGnzVzYwGE5sYxvD1AaGnAwPfuuJHVhcVmhGIdFiNAsTU5ZRJRuzdcddNAyEdOC4MDMQGLfUlM+JXphyEFI4/cvDXfignTZB8T3QPO0S+Y2otnJ9Djy9thRFWT4DhJQn7js/gBM9Ibh8PjgpJ3RQccJt5vUUjokJr1OYyCKEMeDy38CZFY/w51YZUPxbqNJWfVApTCxTdAZoZ2flShj9lM9jsXLJ4yVsGqKxp/B6Vi4NLkcM/+ST29BcWwYHbfkXLE3+R9PmLzb/yypZ1QlFTkhubZJnVDYkMNLsyV21FSl31aQchCRSf3vPJfROaByE9MFlfjSTfegT6AM1x7OxsTaPgZD+1zkSwv/4VQc1iOHyEghJuuG7/wiHFI6/vfdzU4JQrYL3LnsWZ5cSA5oHHpoMaKBQFChqaFZDdGL3hIVju8VfEaRlKE2YMZmOqdXwCKohXTEpKI9h9pPF5i6NThCN4p5V9Xhky0q225ofNcFf741ASO+JoRMaRgbeMWGA1HV2wBAVJ6ne5JVSENIvTZXxy7+4YIZiebSrcVRrHHE6bzimoyLbjcdXlrCChEDYOxbGT072oi8k8kG3h5+gJO5LEs239yQHIUF8XMgwVIS0iFZcAgMmK0Zs+aEMvbxivo6XUIAxmUlhxvb+pDqh3VmdLCcUk3isd6why+vE0zvXY93SGng9bhOEhsXfZEIm0QgmtI6ASjeNFYTEjE/Rgk12PG7qhqBSCkL6RTrHovjGaxfNY7fUY1GNoxbiiNNpRq447m/Iw7JSbhXS4nGc6hrH6+eHEHPys+fYWSGCzUii+U4SEEoZ5oyPV8EtlirYZL3EPNBejNgKFcs8Cc8rkg86mcPu188HuVxjX4bE7jPrlp0cB6XtDPzgnYayAjz/4BZUlOQbR1GY0szsQUhyzeMr6pGbkcEPNE3RLaUglJ2S7+5ttYJQmhGUTw9jw3gMVdlurCwLYFG2F2W5GUxb/PmZPlwe1uBg1bE8idOBBhKrX38eXmV7P6uCiQHdVAW/iJZGrgNyeUUBoMxLVTlmimKE7mVhQbVLYlTLVhe1tHmZILzOyKc6nWcL09ajaZNN2ymyjbRxySpZsCEtYH9210bctbIePg+dN28770R10syACQmEjyyvY6eL3rJMSOJmS/8E/vnbl5UDCHlPmL9oxadFrCLU/oAbaC71Y/fSYtbSO9U1hp+dGTDyQrYP2kEg/AjfecMEodkLXorXV34B55p2MTeMkX/KT+q0AchBm0yW4Xg1hWeLw8ZmUrCEYtmNsedz4j5qi49LLkmGoJQ1IOoglTwjz9hvLY6v1aNR3LG4FM/u3sw3MKQQhPc31aIsJ5BSR01KmZDOGzneNYo/ef+K9SRMeRSD7WRMJnWw89101OZ58dyd5aCDW9uDIfz3X3VycwPrmvC8kDHhGy8wnZAJ0bTM0i2SrpsoAAAgAElEQVQAuPx+4YZRYoQCPpPdpgjBguEMANrad+y1qjYvda2vLTecVT6YBICMFcW6YGOvoAznxoxJku0MWhRLK4vxwoNbUEKngk6zMEmwcol5ZFmYRHQduxqrUZWbYzmA8teNyikFIV2oQx0j+P7+qzZXjGBD44hW82UzNtR1LPI78dKWSsaWbYMh/K9DVhDSb93EcsIXQKtSSAc866vDG8tfwOkV0g1joT7lSaQYPRMAmrMlHIBWZ7V93tg64HSDhUj2YfkpV8NJq5bc2GrTCI1OivXkUBp62rS0Gp/asR4FuVnTACF5CZWBeGHx7xsYQtu1TnYwT3VNJYsQO+urUJOfc+syIQdhEN/ff82oaC3nAicJy+wN1jQUZjjx5bsqEY3FcbR9BK+cG+SGVzqhXZyu3sRywt+A5szE6YwG7KFW3NJdiJELJ8nNNCUkyQ1VllQ7I0b1bDqsjTCshGOD7djPT9UlUSbxjHkUe1/ZnKAze8JqAcMlGsq3ZfGS4C8UbMnuLzYxNJUV4vmH7kIpOaxVJlQ8hFaxWg7E65gIhXH8VAvOt15Fa1sHW7b0macehdvjwT0N1ezwxlQe3JhyJtx/bRh//uE18xhWIwQLvyA7oVX+m1cPZPcqznAwEI6Gdbx2theneyfh9pjhmMDc2PMRvvbal3ExuwF7mp9nZgSN5YDXu0mJRWHJWQHQZEL72cYGCxrLj2ZuYJAH55ih3Dxohy9Dkj1l2bOWA/EKiJUDeWj886tP7GT7CQkwvHdsuqkZAJO17fQYfnX0FN54az/6hoLGzuuvfvF5BLL8uKe+GrUFtzgI37s6jB8c4CBk5wFbQrAalmWE43khMeFLmyswFtbxk+NdaBuOwO31GjkhidY1PSfx2Nt/grdWfx4tDTsQJTPCDfCnxGSzV2wQo1KE2BmQYW6qMCzDumo2UFnPHIhK6i2Us8VTaIO8ODHd2aZ7RjkBSnzf+J6czBPjnxRdNi1fjM0r61FbVsx20xAj8rljc8bE4qKJxRCJavjBX/8drnR0QaMknz2uhuc++zhKS0twb2PNrQ/CA+1B/Pv9V0QlTOZUWRWbTCjbeQYWdB05XuDJVSUoCvhwunMEB68G0R+KI+50w8F8hS5kj/ehsv04LjRsh3YjACoRWMBd+YuDy2piUIAlAMkJ0wRUgqHBUuFOsXHBUjmrtn91dbDM9a6zOD2hcLGHabnp1dxN40IMi0sLsWxxBTasqGf5Ifu9DWOrzd6vx9DW3oW/+tufIjhCe7jpuCsKVRHs2LYJq1etwP3L6259ELKc8P0rikSj7HU2WNGmtpNfzRHDusos7GoqZoNQrQMTaOmbwInuccQdLmMEwEn5l3TDGDSnHPU6FTOKEGwMBUqWs3dLpgQgB6mZC8q8TfUL2v495Snwto2tRqi1zabYKmP7zhp1ZyHbaS19h2JNnE4Lk6J07IQHd9RXYuua5aguL2I5tnXijg859Q8H8creD3D0zAWENI2tiaMz8xDTUFyYhwfu34HP3LUWdYW81ZqqW8pzwkPtQXz/gzaDCXktT4zIkkHb1xWmiekoy3bj8xsrhXvXgb6xCPZe6EdL7yQzMzjY7GuyX15O5on8T/0Rw8ljp8Yk/eIpQ3AyACoFiRS37S6YmbCgvK8NkKY0Y+6kkWOhZihW80UOKJK92PdjmrHLkPLDzzx4N4pJtqEsSBQpoUgE+w+fxOVrXThBAIzwk1UpVmjEhDGNTTs21dfgn734FDsJKpUrhVMKQmq7He8cwR+902pKNJL9kgFR+SiR8dXvjmNbXR421OTB7XSxivBS/wR+cboXw6GYYWgw4qpkM0WH9DqAMH16xfgox30CKi3OGik8iwzQFoIVAKrhmVXUiWxoEZOTfj/R0GoVqJOdYWK1gcnDdcyKWVm6DhOErKqW9n86CUrXsGllA3ZvXs2YjW5kTNj34VHsffcghkbpNChxYxeDO2lA1zOuQdM0/PV3/wnuWtOcUpt/SkGox4GzvaP4w70XE6bnpmRE9jvzZJk+vdleB7YtyUdzaTY72XIyquNg2xD2tgzws0KcTmYxbyz2Iy/Tg47hSVzsG2ePUpLtw/qaPAyMRXChbwyD5OQRQ1MmC6tBxBbG1UJEhGlzDYjC2goA1crY3roz/3sqWSaZi1opSJTNC+oWBnpcayhWd18r4jWBkMkPnM3YkWSxGFZScVFWhIK8HIyMjuP19w9hgCphFYGCkclRzfJCAmEshv/9B1/DhuZ6uFM4eZdiEMZxcWAC33m9xVYZizc7WWhW2VD0QLO9Tiwr8WNZaTbqi7MwNBHFvpY+nOgIItvvQ1V+Ju5rKkGB34NL/ePYd64HET2OTYsLsbmuEOMRHed7R3FlYAJ94xFcHphg15EMtDRySjmnfcTUZFcRtgUgLbMnshBR8sjERejW1p4quVgFbrsjxlppW46bTeI5NI8bU4oa4dlUK2YThHxAnneoNOawoWNpJyYnWRHCwCYIQbYP6W+eE5og/H9/9E2sonCcwr2FKQUhaU/to2H89s/PGG+yKdEkAaIRqs18jbWpYjE4QRNemXiouRTF2RnoHwvjVGcQRVkZKMzyoTqfjjpwYFLTcW1wgkkPtYVZyMpwM1sYmTDHwxr6xsI41zOCUDSGouwMTEQ0HG8PsjkYJoIbVjGVCET1nESi4aCy5YhGlWye7CnX/yazeRkVt3p8mBSzle6JqQ9a99HYz0M2ihKSYNihiqoH0fxvtlpYdKg0VrQIk2w8DpYFMiAKJqbtCxAsSF+P88Gn1/7997CkotQ81VQNLLP8d0pBSLra0GQUL//DCWgsB7RrhSoQRdVsMTWYby7liJkuYOuSfOxopGFuiipx+DzkqiFDBJUovCBhlljLf9Pj8K8RCCYifCk4hXcC4bnuERy9NozzfWOI0nWnTzXTNPnNamBQZRrTXWPvD1sqZxWURs9Z0f5YqLPbuqx5n2FKsGxn4Oypfk+tinlnxRS2jQMWxcQjK3JEjkh/s3xPCfmMDZl2yack2fdFmkQgdCKOd374xyguzL11XTT0BpJF/3d/cQrdlI/JY7cUQBpzJ7JYMN58Mz9jICA2jMeYseGpdVUI+NyM+ajbwv6IzosEH384/nUT1xyI4kvGN6gh3zUSwnsXevGrtkG2jZW3BpUCxmZYUDVFu0smaR85wX2t6oJ2G5j4bwsLyr6xmu/xr7GCRM0XxQZXzoJKv9lo58nuynRAyFlUk48v2TMeQ3lhHn78/d9HQSAwS85LfreUMiE9RSiq44cH2vBu25DxpkrBmjOjREkyVpRMxFd/0MXwOWNoLs1CU0k27qjMSwrA67GhSrQGTOnhARy+3Ie/PdiGcMzB2JAE8QSvJmMiefFsXRG1+k3WV7aI2dcHodEhISFZ5HaGAda2QFOVZuRhO0Z/2R6KxX2N3NA4epaPcXLmI9BJBqS8Mc6/J1IjViXHdTy2eS3+xZc+h+zMaYw7zgCmKQchUf67bQP48/dVTyGXSeSSo4RWHkMHB6UUQRkbisFrL3SsKMvG03fWsh+TYX6mbCivi+BL9IxM4t2Wbhy5OohgROcgTGIZVkGY0EExxkaTmFwtEo05p8w7L4owncCA02FBtSBRlqoL4BigUwfnJago1CpgZSA0csnkoZjywX/9xWfx2LaN8PlSOwCfchDS73lleALf+MVJOqbaDHG2ytjcuqWwowJGBhi2Ek6Hk9bCFWXixbvrRT5oDccy/5O54fXCsgpEws/geAgHLvXhw0u9GBiPiCNjhcCuvh5lNCH5yjgbCKfQCJNVyOYSdCG9iJBqt/1bdEHjGAmet6mHc5uFizxsW2iHRoiNQTOkGw5mzopmQcOqYpYWaWKVSwx/96++hRX11SmtjNkljhtd+hnw53V+lN7Y3tEQvvKPx6HTRq0kIdjsJ8s9hGriZuZlbLuoroOYcE1lLh5fUy1yQu7EseSG0p0jSFWynQzVdnwrGSSGJ8M43x1Ex9AEs5JRN4DSiisDY+gYGkeMPYjcmyjeG3vlrFa64gOUULyo4ErybzPXU4sWtdAwGdIwvNplGVVDtBtiSZ5hzKgWJXERijnYWCiWVTE7WYqHYmccePM//jNUlRantCiZExDSgwZDUXzjpyfQNxll45rJ80DRyjOKFhXZZD3ibSo3YqjLz8Su5lJU5vvZBeAjoiYQOcCUClkFooFv/g97y1NW2FQJTrIqOsYeP6LF0D44hgOXenG2cxihWNwsXowcUbF3icF3lmwmDDOprhrbkWFKa89gMzEZp57yZKmIVRa0yDKicJmyICEA6gJ0QsSmfG8aobgsPxs/+tPfR2lebmrYSnmUlDMhPXZYi+F/HLqCV87RFgYh06h944QckIdkQyJhu1OoKImjsciPTXWFqC3KEszHwZtYJZsgM8OyKeOozJcUiPwHLDfSGgmIb53pwJG2fiE7yRRDmaO2saJ1bkSOBVjtWZb2njiFM8G0KooGoyK2OLBNX6G6KMnopBgsKH5OLUiMUKwWJLZQLCpuyZrP77obv/PCk8jKSG1RMmdMSGHlYt8YvvPKaf6pm8pbmABGM9R5HXE0FPmxraEIZXmZxgC8CT7BfEnCslotq/mhiTOpL1pBp4Zw+R0CVFvfCF47fgXHrw3ysCzkHPrQ2DsqpsvGbtWygtDeSVFlF2sYF/3fBIMDn+azitNUWQuGE2HXkG0UdmT6nwAlY0Hm9hGh2KiKhUBNmX0sjr//429i5ZLUdkqM/DzVOaF84OFQFF/5h6MYC/FNDDwWirxKsqIaH2V1LNYDU+tuZ2MRVlfnG2tCuEgt/3A2JCDIrxlhWaAtgRGNrytwTGLKEZwqXjP17zkjHmntxdGr/egZC5tphgzNyiE6/E1V2nfq9yxdEpvuZ4RZXpQZbhlFgDZDvShIVMGZmVbVDokJLgk0VhWzXvIULGgI1DxHpKo4z+/Fq//pX6IkNzvloXjOmJAemETrP9p7Fqe7gtYK2cKKxmdBSdb4ujVSATbX5mFb4yIOQiFUy+VJMpczgKnkhdbqWBWszQLIxF5yVlSvNj0XuZL7R0P4xdHL2H+hmw/lK3H9xgxo6w2L6jmxMyLDt2Jatdj7FTHaJlonsKCUZJTz8RJZkB6PNEEqUGSbTvSK6SLEYtjU3IAffPOLyM9KrUg950wY1mN471If/sO7F2xeQsGIggV5HmiTaYRUUJHjwSdWV6I4l4djoygRWqHRrkvSRbED0SRds6tiCc9KTpjMsUjfvtA1iJ8dvoSzXcNieaciQUnmS+iUqIwoWnMSgEbOl7iVIaE9J6tpManHLVoKIKXAbckFeYi9PgvS90mgTmzTEQtSyP/Tr3wOD9+1IeX64JyDkF5+z2gI3/rpMQyGohaxmoNOsftLr6EAJBNydQ15GS48tqoSdSXZhj4omc/oH9sqZaNqVkJycpkmGRgVJFpCNxDRdLx/5io+aOlAJOZAcCKCEPMtKoWKIVwn8xkmAaAMubaZEhmK1T6wpeK29Yi5LijFb9Giky08ey4oPuBmLijnSHRhYOU5ohSzi3Oy8KM/+T1UlBSmXJqZcxDykKzhP7zdggNXBpTixOawVvNC0TGRIm3A48A9TcVYV1tkitRSojH+FjmhNDEooLSwnzQ4WGQaoxQxKmNLmFayBWKe3uFxDI+H2eE/J6/04cCFLoyEpAxF97RVzAo7TlmIqPniFL1jc6TUVowIJjXDsCrRMMfHDVhQrCoRc8aqWYGxYCyO3ZtW4o+/8vycheI5zQnpwenTeeBKP/7tm2d5VLCYFtQ+sj0k8wvgRAxVeRnYuawU1UWCDdlWV16cyJVyqkbICdbUEWWxYnDcNMFo48QE/aZvZAKvHb2E/S2dLHnnFbOygcQoTGLmQJVsoclczlawyD4ur5TNth4XpkVYFUvPze/L6lnpjhhuGSFMy04IA6XI/YwChueEzMbPckDNYEE6fPvPvv4F7Fq3as5C8ZyDkK5j/3gI//K1k2gdJPezLQxb+sXKnhp6ZSxK6HAjjroiP7YvLWXn+cresayIbwREOdk3lcvGRsSmEycRhZIXjcWfl3uG8LNDF3Dyah9PN9RdiNKFY1sdwswJRuWbOBxvFipKb1nILWZ7zhyET9ojlhWwyBNv2KKzWbZkLri0phz/5dtfRlXR3IXiOQchPQHNe/z0ZDv+58FWMfCUxEkjChP1FCf2oaQ3UtfhdsRxR0UuHl1by9zRaoFiZUQrC3LDjp0VObrsli8j8lqqEotYY4BQ/oO2VF3qHsLeY5dw6mofwozu1ZvslMiVIoJsEooY4ROUVbAsbpQJOtMlY+Z+Rs4oWS2JqZXndmYBk6ALUlEiQq/KgvR8X//Mo/iNx3bNiUCtXqU56ZioT0Ch5crgGP7FqyfZEkz57ltsXSodqXohQyLvHxf63XhoVSUaykzd0AjDltBsmlxVAKqANJ/uOpWymiEkwM/8Ar2pPcNjuNY/goudAzje1o2+4LjYRCzkFpVDVZCrWiIBSGFIabGXG18tXkERqi3TdjTgZAvDZo/YbtdSuiNTsGBFYS7+8ttfRWN1ecoNC/bLOecgpCckN/PfHmnDj4+JeWRFkjG0Ngs1Wc2lrIfsiGFpSTYeWVcLv492WYucUPaMxcphWTVzoPE1xKaHQmVAtZdsYzxbv/k6GDS+RYAYHg+hc2AEIxNhPs8idm1TZX2hvQ9HL3ZgcGySsTMd1cVvnD2NjokEpmRBFlIVgEoJhikIQoxW3db29hwBc6ruSIJRQYAzFsMXPrEbX3nyIXZQ41zfbgoI2fLMvlH84SvHEKTD5QwqMkMz0wunBCJnwyyPAxvrS7ClsRweN18Xx8OxCjilnWcAMUlYNphOqYfl84urbnxnKuEwybvDdkTH+SAVvTZWTsRiGBydwMXOfvQNj+F8Rz8udfZjIkruc3G6gUVfVAsRfsyD6qRmeaCiE7I80zJbQsWHyXZciDZt+1bntGlmlRVxUW4Af/Xtr86JbSsZoG8KCOmJxyMafnS0DX93hM43sa4EMUGpHDEr3QRiTkTORpRkeXHviko0VRQobGiC0GztJZs9Uboncpf2NMBofD6mSQnWzJAfZkO3iKYhEtVx8nInfnnwLDr6acxSIFwWMkZbT/oElUKGmQqU1pzFtmWuh6MnNIsRe3uO56mJzmmTBb/6qYfx4ifuQ16Wf5q/8a/3YzcNhPRpvjwwiu/+7COMEhsqco0KQmVAxOikkJdNzt3S3ElDSRYeXl+HHL95/IQ5a6KwIwvFVuBxQCV+zUrEidRnd95Mddkl4NTvcwzSm8+Db8vVHvz43WO40NkvKmqh7ah9ZTYzzEOx9AAm66IYeaGQXxjLye5JsjDMWJEG2gnQoigRk3T06hblZuG/f++30FhdMee5oLxGNw2E9IThqI69LZ34wTtnxed/Cle15R2XCRoPOSTb5Phc2NlcgdWLbX1lxcxgBaU6mcdZ0w5GniEkkaqVmHyjqGwyoECbuMqmx4H/60xbF/7hveNo7RqwjBOYu2a4JqhuZ7WOedpEaXVizm7bt1XHyaboOGjj5HDGv/rSs3h02wYEfKm3bE31wb2pICSW6B6ZwB/+4iNcG+JbE6Zl8zdePQ85NHq4vDwXj61fArdbjoBO7TM0ASmDX7IRUTNvND6hSehvKiDaxRlOfmy9pvnqRVvv9YOn8drBsxihfcfswG/JlKKati3FtLblBACT5oFC0E7mkmE/r84SK90UIdE0L6nEf/zWF1Ezx7qgHYw3FYT05NRvPdzWj+/vPcEs9GootgBSjY+W2MYd136PAysqC7ChvhRFuYrjWo6QqkWLCMuyKLfPK0tWVNJQIxW4EftN9emWbWRZ/cr/PnbxGn65/wQu9w6JfFCtkpWZYrWFJwDEjAhsGk8pTIzesMgDmVeQg9FwTIv7mWOctmIEcWT5vPjT334R21c3z2l3JNn1uukgpBcxEorg/xy8iJ8cE9u7eCwUr8/snFjFa7MnJrc00NnIVQUBrKotxorqYnGW8nUYUQm5RgfFeDozT0wOyqnglvh1g/2MqMy/cuJiO149cAqt3QPGLIvCk+ZQux2AhtgsASjnh+UxFdJwYJdj1Ko6iUuGnpxFFpJk7sdLT9yf8pni6Vy1eQEhE7AHRvFne07gYq+oEFV5xCKV2Np5MnQJYZZCc67fg6aKfKxbUori3IDSUVFmURS/ocqEJv6Td1GSFSTJ2DFZOJZFyngojNOXO/HO0RZc6upn2ze4hig+WHLWWLF2sRBsFCZKl0QCUhYiVOlOKceY7T1zpYcahjmjrmqqw7/+8nNsvUcqd8xMB4Ds+s+Vs/pGL4DC8pG2Xvz5vlMYnggnyQ2NeGzqh5awLO1S/EJ6XQ4sLsnGXcuqULPIPC/PbmiwT+gl2rysXRSDFRMSGfGF5MmgkQuOT4ax99AZ7D/dipGJEFvGxIRqeeqo8Oypi9FvDEDpEeTg5Os81K6IELGZ1d8+PScMC+J5i7ID+KOvfA5bV978MCwv6byBkATd0VAU/3jsMv7vwQu8ErS4bIyXKPJGGwqkK0c4TGjZj88Rx4rqIjyysRFudhLU1DYvxkOyShbMa2rlRstEmX2y8p+132FHqChI4sCZyx34yfvH0NY5wLY82AFolWGUosPYV6Pun1EH6IVDRhYoUpox7FsSlGr+yDcuMA0xFgO5ZL72mUfwzAM7kJ/i1R43IiH1+/MGQpGOoGtkDP/nwHnsOdOeyHgJsVCOiSq/gsj4+QGBGiry/Xj4zgZUFNKBL7K1Zzc2JKmOFfHalHDMNNV8RsWDaH8Zhp+Qf4Ne2i/3H8eeg2fYifZk95KtPN6KS7RsJYZgqzjNd5LwAkUVpJlFywjR9n0yohBhNi5TlH5291a8/Pj9KC8uTOmWrZkAcF7DsXyh1Cpq6wvir98/i8NtPYlWfyMqX6dOFd0G2r+Xn+nB3c1VWLOEH51gsXwpG7wStzao+qF8GUmeM1mKajXJGO9BcHwSP3n7CA6cbWMzKbJfzO1c6jDTDBhQBaC9EpY2MRaeSY9W98koYTgWx9ZVTfi9559AQ1Ul3O4UnpY4UwTOZ06ovlaaRzl5rR9/9tpH6KEGv7LFiLZUJ7E9J1KUaOJnuh1YX1+K7XfQ3hrOeAlTesoqOakhmk85dZVsSxCMXyEhLWQYi+Pg6VZWDfcFx7jpNaFFZ7bkuDBtzfUsYrWdAS0ApJcilhsl5IFi76DSFalbVIg/eOmz2Lis6abLMckwOq/hWH1BtKz7QGs3frjvBAbGQ0oeaGcjM1+z/kI8B/I4gOaqQjy4odHivE46MM/wLStoDnYjLVU+CMmzwWSXk8NxMhzFiYvXWDXc2TcMXe2V21nQ6AXL0JykWyIAyM2mwh9otOSmCUCR/5TkZOP3f/Mp7Fx/x03tilyPIG8ZENKLnAhH8e75TvzlvuMYCUu3jcKEBhVNIZKItt7S8nx88u5mc5mmavtSW3uKy0bVDaccmFdeSlTTMTYewujEJEKRKMvHolEd/cExXO7sQ3vPIEYmQ6LgkqtQrHuvzdacCUAuRAuGZKKzEJ5nAkDDpCqLF54H5gf8+M6Ln8buDWuQleGds8GlmUbkWwqEFI3GI1G8e+4a/uqdUwhORvhqkGl6qpiIrWuoK83DE1ubE8VrxdBg9xqalXKSRZtKHCa3d2tHHz48cRFdA0Emj/AzQcQWMU1nHyZmQuUluPKemLmgtQARoBMnLhn2f8O8kKwbYmNAaUwwTKrWqbnCbD++9ezjuG/TWuYRVPvkMwVNqn/+lgIh/XIMiOEI3m1px3996wSGQxEz/7tRD01UyDVF2Xh40zK2ZD3ZAiVVulFXhnCJxjoOYHwGxHO3dfVj36GzuNDeyzQ/4wNi9ukS3yPDpsV+Qy5Cy5FM4SM0FmNKd7TiL5SSitmOmx4ApYZIDPjtzz2OezetQV6AtzhvpdstB0IJxIlIFAcuduKHbx7D4LgoVqa6cvKaEgg1HRWFATy4cSn7xLOihB0jYd1pSP9lurBNycaUKvmDms1EB5NU3j/Wgjd+dYa13ZjkAgeVBJZxT15giHJFgpMKJyPUyiKE/23dQS3uK4yspi1L9oNnAsA4SnKy8LvPfgI7N66+JQHIrvF8dUxu9EkkMTsU1XDgUhf+21vH0Tk0poRlJT6qDyS1wsIs7N7QhJxAhmWRkjmZp2z1si9eFxHUbO3xJ6C878jZNrx/7AKC5H5RJBcGC9mjSxhi4qBKFKXF11VRWnQx5DgnAyBzxMwOgKSV/u5zT2LHuhVsxe+txoDGu3irglC+wDAd+XCtD//v4DkcvtSpQC4xpPBt9TrKCgLYdWcjciQTGo4a+ziAAkZLKOYcKDsolN8da7mCt4+cQ3CcA5DaMcSCnJeszKauFE7M/VRQyrVtijTDBGWz58sc5UyInhkDbl21FJ9/ZCfWLWtAwHfrFCHJyOeWZUL1xZKOeLUviJ8cbsGrxy/xYfNkN7HZtTw/gJ3rG5GTxcPxVKL1dHJDeppL7b1469AZdPQPAw4CoFrtilBsn5yjLxtuGDPEJnRELOwnCxABanF/1hs2gC77wTY7l1jv5nY48MjWO/H8w9tRX155S+iAN4p6CwKE9EvQG9E/MoE9J1vxo4PnMESMZL/FdDYQVVoQwD3rGpHNmFCskLOB0RiQUitmoQ2q9v/+oRG8f+w8TrcSC5PyneSoCTUUW0Kvqv2pIVlarExwMvZT5RljOGn6AMzLzsIz92/DE9s2oKyocN47ITcC34IJx9aUL8ZPZLrai//17nG0dPTzg2/kjUCo6SgpCGD72gYGQlkdWxcpmaeOGouVRPhleZPIE8cmQzhy+hIOnb7Mji1ziTBsPJ9S9TKGs1ivzBCdEJKl5ifuzwEoQrA0pDJMmn5B9n3piFF1QMGAd9RV40uP34/VS+uRn5U5L5as6YLO/nMLhgmt4VlHe/8I9py4hJ2HCT0AAAVKSURBVH88eA6TES5scxODjkX5Ady9ph7ZSQoTuceGL9hMMh4qzjgZHBrF4TOtON/WxY4kI8sJO+VEls+yX83AYwvJSo7IWm+K3CIERWMViJzvkFYsvitGPeJL5ofgC81tAPT5vHh6+yY8sXMTFleWwud237IFyFQgXZAgZCm6TseFRXD0Sg/+5q2jaOns58NBmo7ivAC2rF6CLH8GW55Euw15bmgWIgkr5pQ23eVrPdh/rAVDI/zMPNP9Ys6DmOymANAOPjVMq3kds1OpzCkrYNUJYw3P7OeNpUV0nkAMi8uL8Y2nH8OaZQuP/VRALlgQyl+Cdt0MjE3i4IVr+G97D2MgOIb8nEysb65Bfm6W2PIqQWirjlWrl2DFgeFRHDpxEZeu9Zi7By0mVDvrSQuNTXKRPWLJhGKFsBl6ZfEh5Jdk4dfoggg2ZDkjkJ+Tha99+gHcvXIpO7c4w+OZbSS8Je634EHIIEGHKEY1toJj34mLeP1YCxYV52JxjRgJlWATJ3qaFbPV9BrVNJy+cBUfnbyESJws+PzgRWsOqPR/2TdsBYdkQxmijVAs54EVOUcA1FxaZM0rjU6J6KLQ6MKn79mMXZtWo6a8BH7vrS29TBfhtwUI5S9LIXo0GkH3QBCnO3rROTmJsXBUhGQp1RArEslZ9xvS17p6B3H4+AX0DI7yxJ7PBvCHt7Xe+CaEJLmgIR+ZlbHR9ZDhWWp/BvsJvdAobKz5X0lBNh7bvA67N65GTdkiZGd6FlThcSMw3lYgNMAYjyMS1RAMhXGhdxAtPYPoH59gWZiRC0oQCs/h+HgIp1qu4PzlDhaG6VQnyzYIozdMzMf21inAVIoTm3BtLTxkOy9Z8cEfj7MfzaEADRWLsGvjaty7rhnlRQXIysiAi75xm91uSxCqYKRuR0jT0D48glNdfegcHsNYhFb8mr3jcCiCC63taLnUTiYcgJzGSkfEwnqGH1AJnUaf2ASmBXyS4YzK1ya9MEAT+8VQku3HmiU1ePiu9VhVX42sLD8yPe7bivluC4lmpkTAoh6xo6azfnTb4DBOdvSiZ3QCg8FRXLrUjrYr3ZzhmBitdESShWJ7vieAaa14xR4ZUQVz2UUVnvn3Ce+ZGV4srS7DY3etx4al9Qhk+eB3++D1uhac3DLT94Z+/rZmwqkuCMkutGWVTAftfYP48ftH8eaRcxgJhRCTh0KKooN7SmWb0AynHFv8v/nx4nJ50XXAhzg7EYUCfUF2APesXo5PbLsTNcUFgNvF9i56XaTzzeatXLj3+ViCUH27mN6oRREJRTEeDmN0IoTznb04dP4KTrZ1oKs/yKpvY6VWMuBJtjTkGJnzxRixluXnYnVdFbasakRjeSnzOfp9PvgyfMj0uG7rUDudj8bHHoTqReKNCjoFk/89qenQolEEJ8KYDIVBczCTWhRamHoXyUwUdBKVC36vB26vB1m+DOT6fXD7PPC4XaybQQYDBzsYaDpvz8fjZ9IgvMH7TCzI/zg4IzpFFE56vzjP4cjZ7+D/ln8+HnCa3W+ZBuHsrlv6Xim8AmkQpvBiph9qdlcgDcLZXbf0vVJ4BdIgTOHFTD/U7K5AGoSzu27pe6XwCqRBmMKLmX6o2V2BNAhnd93S90rhFUiDMIUXM/1Qs7sCaRDO7rql75XCK5AGYQovZvqhZncF0iCc3XVL3yuFVyANwhRezPRDze4KpEE4u+uWvlcKr0AahCm8mOmHmt0VSINwdtctfa8UXoE0CFN4MdMPNbsrkAbh7K5b+l4pvAJpEKbwYqYfanZXIA3C2V239L1SeAX+P6fH8s+GfaTjAAAAAElFTkSuQmCC&quot;&gt;&lt;/div&gt;&lt;div id=&quot;SDCloudData&quot; style=&quot;display:none&quot;&gt;&lt;/div&gt;" style="text;whiteSpace=wrap;html=1;" parent="1" vertex="1">
          <mxGeometry x="550" y="220" width="160" height="120" as="geometry" />
        </mxCell>
        <mxCell id="BVkSgA7eZD7vXLeDeiiQ-17" value="&lt;div&gt;&lt;img src=&quot;data:image/png;base64,iVBORw0KGgoAAAANSUhEUgAAAGQAAACQCAYAAAD+4c5bAAAAAXNSR0IArs4c6QAAFgZJREFUeF7tnfmPHNV2x09P93TPjGfcs8/YBrwMznsP8R4KL3LyELzEUoSSKMofEAmxRMoPCYryK4hfQAgQAgGCCBH2fbcgmMVgFrNjMPvi3WBsj/exPavHs0Sf63esy3VVd1cvt2qeuqRWd1dXV1ef7z3b9557KjU7Ozsr9S0xEkjVAUkMFuZC6oAkC486IAnDow5IHZCkSSBh11P3IXVAEiaBhF1OXUPqgCRMAgm7nLqG1AFJmAQSdjlzVkNOnDghBw4ckM8//1y+++47I9aFCxfKokWL5Mwzz5S+vj5pa2uTVCqVMJEXvpw5B8jo6Khs375dNm7cKJOTkwIwO3bskEOHDsn09LQ0NjZKJpMxz/l83oDEo7+/X3p7e6Wzs1Oy2WxiQZozgBw9elS+//572bJlixw7dkzS6bS0trbK1NSU/Pjjj3Lw4EGBuGY/gPBsv2ZfQ0ODNDU1GVAUoO7ubuno6DDn4vi4t0QDgoAR9BdffGG0AI0wjGgqZYSugPBZECA2MIDBQ4HiHPZrzBvg9PT0GIDa29vNAwB9mr1EAoIZ2r17twFi586dpwatCsYFRDVkZmbGAKXaYAOC8BUUBcZ+z4/oe87Pa8we4KBRPGMCAWn+/PnmN2qxJQqQ8fFx2bp1q3z99dfGYaMhCMcGQt8jYEY14IWZrDANsYFwQdDzKyj2b6t2zps3zwCjIAEQr9lfqTYlApCRkREDAj4CXxEkBBcY22TZGqLHqaYwynkU05AgINzftDXC/Yzzo0GqRTwPDAwYTYuyxQrI0NCQrF+/XjZt2mT8A3/S1gpbSDo6bYHbPoRzEWVhtvQYhGG/VjOkINlg2Rrhft8FIuy9ff0cc+mll0aO6LwDQlS0Z88e+eSTT4yj1il9W/hBJqqYhhB5cW51/LbQdJS6PkR/R507ABESK1C81sjLNUXF3vP7l112WXIBOX78uAlZSeQARLdiQLiaEeZDMHtox9jYWBQLYUwK51STZvsddfR8Bjia36g55LmQz0gkIDjqL7/80gCBfygViDBnHhT24kP4HTSExLGam53LqC9SIBRIGyiOz+VyBqjEAIIZYqS+//77Bgz1D4V8QhgAYfvdPAQNRENs0KsJTNC5gsAibyHqamlpkcsvvzxek4VT3bdvn3zwwQfyww8/nJY/qC2vBjBulEX4i4b4BCQIJKKrrq4uExbHBgiCIH/48MMPTSJXKGyNqglhx7t5CNoBKERbPrd0S15yC38nkwe3y9SxQWmfP99k++RI3gEBiM8++0w+/vhjOXz4sHGQGraGOeNK94f5EH6X64Fk9LalM9Lyx/+SVFufzE4dl4n3/kfas1PS29Pj12RNTEzIunXrDBAIQbdqmqRi0ZfrQ/htrmX//v3e8JBcq0z/1b+JNOXNbzZsek16JndKf2+3cexenPozzzwjX331lXGgdnyvI7dSDSjVpLk+hOtBCBptAQ4PzBi+rVbb2Nn/KJMdZ4s0pKV182pZ2DgsfX29xpl7AeSee+4x3JGdzYaFskEJnsb2pQJXah4C2wuXRISjcyIaBXEOQNHEEZCCHoAadZttyMh4/mwRmZHmo9ulr7tTFixYYHIWL4Dcf//9xoHbI9k2VVEFXqpGFMvUC82HKECa0GkSaNMl7AMQGzhCaQVOJ8MAtRBwzFQCCOeLBRCbPHPtfikUSDFfUWoeEmU+pBDb6/JfCF8BUAAJIABOQbKfyUOY/PIGyAMPPGAoEFsTXA0JA6aaTr8Q2+smbEqHFJoPsa/ZBsUN4dWkAQoP1SoFjn0khd5M1oMPPiibN28u24dENVGl5iGE3bYpcQcJglRTpYAp5cF7JRSD5kdsv+JyV7FzWQ899JChy8N8SLUEHpXLKsT2qja716wzh/Z+PVY/CyIUlR0OY4IVQC8+5OGHHzYVH0FRVjVNUjHf4uYhkIrY9ahsrxtVBc2h2Jqln2v0pxqlWkfozTwN1+8FkMcee+xUHVSS8hDyDwCBhve1ucEBoBB663SuF+pEAUlaHkKkAyBxk4vUfnkF5PHHH5dvv/02cXmIZuZHjhzxpSDmd7J9v5LmZX+QE3s3ysTOz6S352SdV3Nzsx9y8amnnjLUSbkaUi2n7/qQWMjFTJO0/O1/i7R0GHCOf/Kg9OfGpH1+m6nn8uJDnnzySVMhkrQ8BKAxWV7JxWyrTP3+Mplpygu1Jamta2Vxar905Fv9cVlPP/20mQWMW0Pc+ZBY2F4RGRv4BznePiAis9K26XlZ0pGVrs5Of4khbC8VhUnLQ7gezISGv5o541uUn7JpkGo5GsjFyaZOSU0dl+zUsCxasMBMUHmjTp577jnZsGFD4vIQEkOmT7XM0w1JFQClOgDJftjA6X6bbFRSsRgjzHKIWAApx4dUk3wM47Lc2l67ZMdO8OxKRpv+COKu7OtWDkuL8lT7eIYZZh6E+XQGhBenvmrVKvn000/L9iFR6fko8yHucoRq1Pbq7/OsRX1oiQKjBKO+BzwtuIsFEFfAUQUeNQxWAYVpCCNTgbDnP2pR26tmMIxg9ALIiy++aObS446y3DzEZnvtORqXqdU5Db1+JQptTirMtNnH2JxXWIDgBZCXXnrJlPuU40OqST66GlIK2xsEjr1PhWyzuC4TrMfbNcn6PQWMTN1bGdDq1atNIVzcGuLmIdVie6OEw7Ym6mucOtO4gOKFXHz55ZdNiWjS8hBKk4h0hoeHo8i06seiGQBC+O0FkFdeeUXee++9xOUhcZWSZnoHpHnJBTJ9dLdMbHtf2uY1mzl1aHgvgKxZs0beeeedsnxILfOQWEpJ01nJXPifkm7tgcmSExselfapg9LX0+WP7VVAyvUhUcPiUvMQjiObpvrE25Zpksnzr5DZ5rykJCXpbWtlwYmfpbeny1/l4uuvvy5vv/124uZD4iIXx3vPlbH+FdIwNS7zt66WhR0txoeQHHoJe9944w156623Yo+y3DyEqAsNYTmE7206M08aZiYkNTNtiuSYNfRWBvTmm2/K2rVry/IhtcxDODejkhlDoi2lMrhQpTqU/rAJQvs4PbYSQAEEDfHG9mKuMFvl+pCoVEnY8W4eQtgLy0rFRzU2u790IdBc4NEMchFvVSdEWDj2pOUhYbW9LjUSRH9opq1rW9xSnzCA7bUweoxqqjdAWBfy2muvJS4PqVZtrx2a28CEEYlhxCLHe3HqCkg5XFYt8xAAqaTXSRAQrrl0ubBC770BQpZOtl6uD6lVHuI1/yjgpNAqHDsLP71k6i4groCjCjyqk9dEMYjt1Vm7YtOs1XD6YefgupgxpKvdFVdcUftl0VDvUPDlakhUAMKOr1Vtb6VgsRQBQAh9vQJSjg+pZR5C2Eti6LO2FxnkBi6S5r/4O5k+tk9GNzwpLZlZ01+LZmheTBZNY1544YXYNcTNQ2JhezMtkrnwP0SaT1YuznyzStpGd0hXx8ludLEAEuYz1Na7kVWl+8N8SBxs72w6J5PnXy4zuTxkrzRuWSPdk7ukt7vTJKheAKHihMqTIB9STZNUDEjXhwCUd7ZXRMZ7fytjPedJevywtO18R3rzzcZ/UGztJQ+hc8Pzzz9fFpdVyzwkLrbXDQIgFnl4axxAm6Vnn322bB8SNSwOM3GuD0Fj0JC9e/dWGihV9H3A8LpOnbpe6nvDuKyoAo8aBof5EJhetsHBwV+0+VMuS7+nXJaWA+l7vW67BNWtbnS/G6Tx+DKtWvFisqh8pwI+aXkIi/wJNSm4tqsKEbQyt+4dAt3BYFeRKGCuuih3xTPn4ztKMrpkoxdAWKzDop2k5SHaVtat7bVXzIaNfrvoTYGwR79qlw2OSyoGkYxeAPnmm2/kiSeeiF1DXB9SS7bXbhKgSxq02Frfa6U81wWP5a3YmjsRsPAz6fMhCER9gDvaVbvtoml9bT/ra4TP+bQDkt0JKUh7mCjDuXvJQ1xAgqr3gtS9WF4R1bkH1fayz86FbNtum5ugGcCwWUF35tBk5AW6BnENUCesE/HCZdF9+tFHHy3Lh9QyD4HDQnhwWrrZywcqimWLfDnd1ifTY0Mi05MmqKCMlGI5L4DQ3PKRRx4p24dEDYtLzUPiIhdbzv1naRy4SGR2WkbW3SlN08NmjaE3cpG2GrTXSFoeEkvjgFyrNPz1v4s0tRsuSza+Im1HN0tnR95fsTWdgOgIlLQ8JBZyMdMk4+ddchIQmghs/D/pmjkgPV2d/oqt6SZHV7mk5SGxNA6AXGwfkImO5ZKaHJH83vXSOX+eibC8FVtv27ZN7rvvvtg1JCnr1F1/j++A7fXWyYEbct17772Jy0PiZHv5bWUISAoJe72VkrqAJCUPqRbbq/SK3qrC7TpnNzTT5FP5Mg2zlej0Qp3QIpZWseX4kFrmIQgB+h22VzcVro5e+wYuKli7paxdwWgvc1Z+y04SE8Nl0dv97rvvLtuH1CoPYU6dTg7uLSVszslmY5Wttdlbd8DYWb+CXAoQeqwXDXEBcQUcVeBRKRNNFIPWqfOZ0ic2yxtU3+uuW7fBcNlfm69y23FocYX29+U8Z511lr/qd25nd9ddd5WtIVEBCDve5bIqYXtVW+w+KPZrTToVDFtblHRE+7SlOY6du4t6oU64XdGdd95Zlg+pZhFEqb1O7DkQJQW1HYbda1e1wOa/bGrdneQKIxi9Vy4yZ33HHXfEriFuHkInB3XUtlbZEZCOelvQyt5WUn6ayffL1OgRkSnIxaxfctEFJMxnhJGCle4P8yF0JWXT7qSqBUWI2oo/zp3zT9I4cKHI7IyMf/i/0jQ5JJ0d7WbxkJf5EFro3XbbbYmry4qHXGwTWcH9Q05yWbJ5jbQd2ShdHXmTHHoBhEWVt99+e1k+pJZ5SBxdSWcb0jJ+7r/KVHM3d0yWeT88I50yIl1dnf5KSYlmbr311rJ9SNSwOMzEuT4EHwAo+BKf22RLt0y2LpL08WPSNLxTOua3GXLRWykp93i65ZZbEjcfAghxlJK64GOqtJTUi8niLmg333xz2RpSqzwkLnIRTYUdoHRUQ160wxu5qIDYpselGMJ8RS3zkFo1DuCaIRpV4NDqvLY5MLd3ltfKRXqr33TTTbFrSLVqe+0RjqBV+HqTYq1MVNMUNPjCfJYXLovObTfeeGPi5kOC2F4EhcB1RNsC19d24mhzVoVeF/tMAfICCA3CbrjhhsTlIURZrMmAT0LYCoI6e7eTaFiLviCS0daAxLG9tNK7/vrrE5eH6LJobWuhk0d/9rW9Cki5VSe1ykMqYXuVbg8qui5mnoKKrL2aLLii6667LnF5SLFeJ3+2fXupELz22mtjj7KqOR8SpCE67cto13ZPrrYEvbf9jRenznw6jC/AaAiYhDykGr1OEKb2S5kVkcZM45+Wp6VN60AWBelWinP3AsjVV19tmEymcolqcKL2RVa7yj0ss6/F+hDu8DYycULGGztlovVMkWyrtEwekP7MiJz366Wyb+/gaXeBi92H/Pzzz0IzZUg8KG+qzmkn4ZKAYaRgpfv1+0EzhoSyAMVnUefUAePw6HE5lD9XTnT/Rhqb2ySXPZkoZg5vkWWpXbJ8QV4Gd+8ymmIDEQaKFw3RuP7VV181PeCp9Ni1a5dhN7UeydaSSgHwMacOkJCmh1IdMrzwApG2XmlqzElTNieN2exJK/DtKvmXPyyXXT/t+EWz5tg1RM0Ttpb1hgCDD0FT8CtoSzXnPcJMYKlz6qXkIUSOh4+NyGDH72W6c7mkcy2Sg7/6k4bkGnMih7bIXzbvkezMmOnr6E75BgHjTUNsUCAbMWFUxdNemyIICo3JlINqnpKYh5BbHTw2Lvv6L5Lp/FlGK1wNSY8fkf4j62VJR1qGDh8yN29JRJRlh3X6GptKHy0aZNL7HL4L/8Lrajv5WvgQABkaGZW93RfIdPsySWdzp2lIenhQFk98Jf1tAHLYzL2ERVxeE8MgQDRWpzKefozMu+NTKOtEa5TOqKZvqWYegnDxIXvn/Uomen8n6Zb8aRoy+9NHsnJpRkaH9psBpyYrMT4kDBh8CX6FBgNoiNpbXtdyPqTSPITrHBqZkKGFf5SZzgFpzDUZLck25qTxxKjktr0qK88fkME9u01lS2LykDAg7P2YMO7kRsNlTBeOnuIIIjImeIJ8S9SZxGrnIXpj46HhMTnWe75IzznS1NQiDeOHJPvTOvn7v/mtjI4Mm3vt2g498RqiwPAHCYdpukwSCSgEAPwBzFhY/Wwxn1MLH6LXorfOYxANj07I1MysLOrvkXN+82sTQWLW1HckKg8pRUv0GEwYzZe5Kw95Ctk91Asd13hdDAAfeYjNZWkUqDOHXDNgEFUFNU6eMxrimjDuME0UhsqjLdh8/ixmzNWWUkxaNfOQINo9KACx/9Oc8iFBGoQJo0EMfoVuEOQpCAIzoPcfD8tbghLNavsQfqPa8yGXXHKJsQJRttSs27MoyrfLOBYTRqtZvW0STh5tASC0hZFfKDyupQ/R3y20PiQo93C1BZHCjWHqrrrqqkhS8g4IV4fTJGfhPiRk9trjCqdva0shYKqZhxSaMSxmmvhcW3qQYBIS89DarGuuuSb5gOgVwhhjwuhSp3VPaAs+Rpen+eCyovoQBQAt4EGYj2liYBESs49jzjjjDLnyyivnDiBcKaOKnOWjjz4yGTB/zISdw8Nm3kXpFzVVCpBPH6IAMPIRNs9EYYTvAMB/COpWt3LlSrn44ovnFiBcLbE9uQpR2JYtW04lj2gLfxozRkRmO/1qz4e45pFBoeaHZwSv688BRZev6UBRqXOtrDFcsmSJrFix4hQ7USoqsfiQsIvDhL377rtCK1rMCCaAP88I1LvnqOCq6UO4HvIMnLCCgMABQK/BBUBzEphtBQAQ6JOlpaSlgvCLcNp3lFXsIgGAsJhEErpFb2Gk1AsJpZnFy2TMZ2gXa+ejcFmAqndSwP4DOBvaiIC11ZMdUSkACBsAli5dKosXLzaaYE9jF/t/xT5PlIboxfLnib64ARmdIxA8Th+h41vQFoDBvzCyFRB3ClencnWlrC5d1mIFhK+g6vyGm/wBHssLli1bZoQPCHyvEi0oBEoiAdELhoHFfKExCBtBkOkzr6/36EAwQYBwDl3Eo2Qg5gctUBMVRhIS4QEAWgAImK5aAeCCk2hANGdBS6DzicIABXPDPr0zG/u1Taz9B9EQtAiTgpN2AVAzRJjNDVgGBgYMCHpjyGLmpRafJx4Q/dOYK0Bh0ouRzoiliQH9uwBG584RLgDoEujTRmAqZSI2hL58+XKjCeQLnDMJ25wBBGHh8NEMTBZ+gFGvkRFagn9hn+2MNSyluwIawAMQ0LQkbnMKEPULEJJoBhoCCPBjmrBpzRS+AvuvAJAf6IxlEoE4NYiSFvaWKiw0AfNFIgkwvCdioscIIBCJEZnNtW3OachcE3DU660DElViNT6+DkiNBRz19HVAokqsxsfXAamxgKOevg5IVInV+Pg6IDUWcNTT1wGJKrEaH18HpMYCjnr6OiBRJVbj4+uA1FjAUU9fBySqxGp8/P8DYuz3QXk4O/UAAAAASUVORK5CYII=&quot;&gt;&lt;/div&gt;&lt;div id=&quot;SDCloudData&quot; style=&quot;display:none&quot;&gt;&lt;/div&gt;" style="text;whiteSpace=wrap;html=1;" parent="1" vertex="1">
          <mxGeometry x="570" y="20" width="130" height="150" as="geometry" />
        </mxCell>
        <mxCell id="BVkSgA7eZD7vXLeDeiiQ-19" value="" style="image;html=1;image=img/lib/clip_art/computers/Server_Rack_128x128.png" parent="1" vertex="1">
          <mxGeometry x="530" y="480" width="160" height="160" as="geometry" />
        </mxCell>
        <mxCell id="BVkSgA7eZD7vXLeDeiiQ-53" style="edgeStyle=orthogonalEdgeStyle;rounded=0;orthogonalLoop=1;jettySize=auto;html=1;exitX=1;exitY=0.5;exitDx=0;exitDy=0;" parent="1" source="BVkSgA7eZD7vXLeDeiiQ-20" target="BVkSgA7eZD7vXLeDeiiQ-22" edge="1">
          <mxGeometry relative="1" as="geometry" />
        </mxCell>
        <mxCell id="BVkSgA7eZD7vXLeDeiiQ-20" value="" style="image;aspect=fixed;perimeter=ellipsePerimeter;html=1;align=center;shadow=0;dashed=0;spacingTop=3;image=img/lib/active_directory/wiring_hub.svg;" parent="1" vertex="1">
          <mxGeometry x="810" y="248.5" width="92.65" height="63" as="geometry" />
        </mxCell>
        <mxCell id="BVkSgA7eZD7vXLeDeiiQ-56" style="edgeStyle=orthogonalEdgeStyle;rounded=0;orthogonalLoop=1;jettySize=auto;html=1;" parent="1" source="BVkSgA7eZD7vXLeDeiiQ-21" target="BVkSgA7eZD7vXLeDeiiQ-25" edge="1">
          <mxGeometry relative="1" as="geometry" />
        </mxCell>
        <mxCell id="BVkSgA7eZD7vXLeDeiiQ-21" value="" style="image;html=1;image=img/lib/clip_art/networking/Switch_128x128.png" parent="1" vertex="1">
          <mxGeometry x="800" y="490" width="90" height="90" as="geometry" />
        </mxCell>
        <mxCell id="BVkSgA7eZD7vXLeDeiiQ-54" style="edgeStyle=orthogonalEdgeStyle;rounded=0;orthogonalLoop=1;jettySize=auto;html=1;" parent="1" source="BVkSgA7eZD7vXLeDeiiQ-22" target="BVkSgA7eZD7vXLeDeiiQ-23" edge="1">
          <mxGeometry relative="1" as="geometry" />
        </mxCell>
        <mxCell id="BVkSgA7eZD7vXLeDeiiQ-55" style="edgeStyle=orthogonalEdgeStyle;rounded=0;orthogonalLoop=1;jettySize=auto;html=1;" parent="1" source="BVkSgA7eZD7vXLeDeiiQ-22" target="BVkSgA7eZD7vXLeDeiiQ-24" edge="1">
          <mxGeometry relative="1" as="geometry" />
        </mxCell>
        <mxCell id="BVkSgA7eZD7vXLeDeiiQ-22" value="VPN&#xa;Connection" style="sketch=0;outlineConnect=0;fontColor=#232F3E;gradientColor=none;strokeColor=#232F3E;fillColor=#ffffff;dashed=0;verticalLabelPosition=bottom;verticalAlign=top;align=center;html=1;fontSize=12;fontStyle=0;aspect=fixed;shape=mxgraph.aws4.resourceIcon;resIcon=mxgraph.aws4.vpn_connection;" parent="1" vertex="1">
          <mxGeometry x="970" y="240" width="60" height="60" as="geometry" />
        </mxCell>
        <mxCell id="BVkSgA7eZD7vXLeDeiiQ-70" style="edgeStyle=orthogonalEdgeStyle;rounded=0;orthogonalLoop=1;jettySize=auto;html=1;exitX=0.5;exitY=0;exitDx=0;exitDy=0;entryX=0.5;entryY=0;entryDx=0;entryDy=0;" parent="1" source="BVkSgA7eZD7vXLeDeiiQ-23" target="BVkSgA7eZD7vXLeDeiiQ-62" edge="1">
          <mxGeometry relative="1" as="geometry" />
        </mxCell>
        <mxCell id="BVkSgA7eZD7vXLeDeiiQ-23" value="&lt;div&gt;&lt;img src=&quot;data:image/png;base64,iVBORw0KGgoAAAANSUhEUgAAAJUAAACfCAYAAADwOZspAAAAAXNSR0IArs4c6QAAIABJREFUeF7tfQeYXEeV7t9henqCJmqURzlYyZKF0zogG2PAu8aAjdc8WD94LGAW2MQDFhwAg+Fh8CMsLGkfYRcWMIuXYHBcyUHByllWHo3CaJImp879vr9un5maO7fD7e6ZHsGt7+uv++a6VX//59Q5p0654vF4HE5xWiCPLeByQJXH1nRupVrAAZUDhLy3gAOqvDepc0MHVA4G8t4CDqjy3qTODR1QORjIews4oMp7kzo3dEDlYCDvLeCAKu9N6tzQAZWDgby3gAOqvDepc0MHVBOMgfPnz6OxsRGbN29GUVERZsyYgdmzZ2PWrFmYNm0aqqqqJrhG+X+cA6r8t+mYO9Jnf+DAARw8eBA+nw9erxf79u1DZ2cnYrGYAhf38VNeXq5ANnPmTEyfPl19ampqUFJSMgE1zc8jHFDlpx0t79LT06PAdOjQIRBY/FRXV6O4uBj79+9He3u7us7tdsPj8QwDy/ybx2traxXA6urqMHXqVAU03otAnGzFAdU49EhTU5MCDcWcgImPcblcCgwEFZnq4sWL6jhBQ3AImOSb5wvg5JvH5MNrdJBRdMpnHF4r41s6oMq4qdKf+OqrryowCVjkCoJDPpkwlQ4g/k73EfDJeaWlpQpsfBZBVlFRgcrKSiVaJ6I4oMqxlcPhMPbs2YO9e/ciFAop5rECU65MReCQoXSACVC5TweubPNbxCu/yZIElw40bvv9/hxbYfTlDqiybE6yEYF0+PBhdYd0YBovpjKDSUAk+wXMZqAL4DhwIKORzYTRCLopU6aoAUQ2xQGVzVajnrRr1y6cPXt2GEjsQOk8c2eat806lVyrV0P0K31UyN+ZMpXOYPp9zc/S662Dj/vLysoUq9122202W8iJ/My4wahYU8zRDCCsZAdMVkzV0dGhxBnFpogs6VxRxmly0MUY95vBJttW4jATUJnZTK6h7ez222/PuI2G2dCJUU/eZsFgENu3b1fMFIlERoFJFzt2wKUzVVdXlwLIwMBAyo4TPYonychQ3yegIMPxfsJqAjZ+CzCtAGTFljzPAZXt/1PyC9ra2rBt2zYcPXpUGSfJTOnEWqbH9dEfQUWjJu1Z2RSdwcxmCZ35BIwCNjG0CkCT6U4OqLLpFdM1J06cUGCiK4Uln2AShtCZqq+vT428KFLzWcysJDqaLjqF6cROpjMg9Sle44Aqh17ZsWOHAlNvb+8wkMyKd6ZMlE5h15mKDMURF5lxoko6wIn4pPXeAZXNXqEes2XLFhBQwkrDiqZmrEwHErtg05mqv79fDd1bWlps1n58ThfAzZ07V4F93rx5jqKeSVPThcIIAepLZhFnR+G2Cyar0R/FH5mLdSpUcXtL4Z+/DtGBLgSbDZvb4sWLlUmB4HJGfyl6hi6UTZs2obm5eRSY8s1E6cCmMxXZktu0eRWqlN7wIRRNXQDEgaGDv0aoYSsuu+wypevV19c7oLLqGLISwTQ4ODh8OFtGEvGgmxPSgdJ8XNepCCpGHNCgWrBy62fghuHOQe8FxLZ/DytXrlQhOnPmzHFAJR1DBfjll1/Gzp07lUlAOjYbnSkdaNIxUyqLOnUqxk5R/NEORj+i1HeiQBZceTeiVfMRQxye/laU7P8JLr/8cjX6Y90c8ZfoCf7zv//9748xCehMYwaLXXBke745SoHBeIyVkvoQWNFoVAGMQKMBlt/cJ8DLJ/ii3jL0zboKcV8Fyi5sg2+wDWvWrFFGVgdU2l/7zJkz+O53v6sMltJZ5qF0pqDI9Lx0jCbHzb4/7ucwnjFW/JAhJDpUXDViU+K2FDIawcUP3Tz8mAHJfRkxXyKaAYrUY1i3bp1qO8ekoIGKiu+3v/3tUeEgPJyKqdKBIl/gyiWeSg/Ok5gr1ou/dX+k/gfie5HhdODxt7CegFEHnwMqC+WDoPrOd76TF6bKN9iyjfwkeOxGKZijEBQPJdxO+p9MZz+KWwb5EZgOU2ngopvlW9/6li2myhcTpQOhFVPp0QXCQGb/nBlQIhL1kajuCzS/j/7f0x3IBJmIUn5Td+OzaadyQKW1GkdTAqrJrlMRLBRFOghEd9I7X4/mNMepW02aEBAmA5N5RGw12nRApbUKDZzf+MY3bDFVOoYx62TZMpvOVIynolKu29CsOld/tjkygeAR0Wi+VncSC/PJuVb6mfl6B1Rai9CXJqDKlanSgc0uuHSdqru7W1musw19sQKgPhjRASdiVY/DMjOhsBsnSPDjgEpr4dbWVnzta1+zxVR2wZHt+eYoBSrF+Q59ScZ2Vvtl3qAwF9+LzmTOnHYs6lqLcZLmV7/61byM/rIFTzKGM8dTkREmMvQlE8DR50fwO1EKWmtxpstjjz1mi6nyLeaSgVFnKkYpcHKBOLkz6fDxOKd08Y2IDfUg0HRA3X7BggWKrZwoBa21qQALqCazTkWHMqdDSaTpeAAm3T19q98C38LrVZRCYM8vEDm/B0uXLlW2KidKQWs9xn4/+uijtpgq32IuE6YiqOj3o1upIIWW+JvvB1yG+8fV3wZs+w5WrFihXEaOTqX1CkdVAqpcmSrfYNN1qkAgoEDV0NBQEEzxocEFr0NwxhXq+cVtB1B86nmsXr1a+SMdh7IJVF/60pdsMVU6nYrH8x1PRfsUY8FPnjxZMFDB7Ubv9KuYPQQVLTvox3GiFKx6I59MlQ5sdpnMPO+PAXHiHqGLRP/Q0q4f03/zmBzPKBIhJWwTQXpGmIITpWDVVhxVfeELX7DFVHbBke35Vr4/Kuvmqe7mKASzj0+PRGCEAsEooBPASRwW98tvAa0Akt/m4kQpWKCKEZUCqsmsU9nNTyXWcP2b7yeWcyugC4tZsZkAU3JoCeA4wdWZ92cCFkH1yCOP2GKqfIu5TEZ/yTLpCUsli0zQQZVJlII0j+6Wkd8ShyUsx21JLeS4aTRgDQ0N4XOf+1xeLOr5BptVPJUe+iJiUA+BERDpM40laoHX6r91kAlwdDDJ+8i3zMK2UiMcUGmtwqH6Zz/7WVtMla2OlA505uNmnYpAEdFEcOhZXlgn6XRz5wuYZFQq0Qey38xyIiKtRKj5mIDQAZUGKkYvCqgms05FIy1BlSr0xRxbbyXKhKn0Y6li8nXziA5iuZ7ij4ZPB1QaqDgB4KGHHrLFVJkwTr7tVLlmfcnVuGV+H7kf/ZGMUli4cKEzRUsahcNkAVWuTJUObHbFpjlKgSMt+ionUyFD0dI/f/58B1TSMRwaP/DAA7aYyi44sj3fHKVQ6NAXb9VslC29GdHgAAYP/QGxaEhFJ9B25oS+aH91KrX3339/XkZ/2YInGcOZs75Q1Fy4cKFgRFV688eAKXXq+ZFzexHa+wssWrRIRX46oS+mbvnkJz9pi6nyLeYysVPRnkaQnTt3rmCgir7uQcYnGM8f6oTnlX9xEnQk641PfepTeWGqfINtskUpDF52F0KVc1UzFrcdQslpJ0oh6T+c4s+cXjHVDOV8i7lMmIqmBK6cderUqcIxlbcUAzXLAUQx5eIhuGIRJ0ohWW88+OCDozK+pLLb6FZoMzPlG2xmpiKomGu0sMWJUsio/WlSME/STMVU6cQcj+fbTkXf39q1a1WMur4wkr56hNkhrJ/HOnFbzpHr9HN0R7JEM+gNqF8j5zpRCkkg9ulPf1qBSsCSLVOlA5tdJrNa8YGJz8QqrrtXdN+d1XP0Vzf796TeZjeP7kg2X6OfS/uZY1E3geszn/mMynSid8Zk06kmMkrBKkJBmswKkDzmgMoEqocfflglDMuVqewyUbrzs836YuUI1qMbzNEJ4ljWHdHJohWS6RMOqCxAxWiFTJkq32Iuk9GfMJXoa3QuC3hEDAo4rEJdkul4ZgezFSOlYi6m4XaYyuKv9vnPfx6Mq8qVqfINtkxW0cpoJDLOJzFFo8NUpkZm5Cfn1WXKVOnEVr6OZ5v1ZZwxNOr2kkOd+dSdRLJa0zBGXVanEhGii4FMQZLpeekYTY6Pd9aXfICPEQpO6ItFSz711FMqRY/kupTclpxpw3irTEGQjOmyBZs56wtZoZChL+7icpSuvh3xSBBDx19EbLBLAYprMDuhLyZgMSm/PvoTEPGbCxtxJgvnBxJkqSzq6cBnF1zmeCoqxUx9VKhSfONH4Kqcox4faTmEyK6f/mmHvsiUIjaIeQrSkSNHwNGfPvdNB5b8pjLP/FBkNX50K3w642M2x83xVIxbKmToS2T9PyHm9qoEHe7Bi/Du+N6fTuiLJKuXxPUyeTKTf7iea5zsRSDx27waBEUk84XSbcJjuTBYMobTmYoOZYKskGvTDM67GcHpl6tmLD3zMopb9/7xhr7QaKfn/hY9SDor1dQiK6DpLggeJ4uxU+WjA4z7yB4El9momE4cpjuuMxWfQxfN6dOnM/lvjNM5bgxWLoQrFkRJnxHXtWrVKpWg448m6wvFT2tfGCXxoWHfnT5qswsmc0/ozloe4zaZiwFzHC3qehj1LYKLRspkulMuOhWBTVAVMvTFCql/NMuIdPSHsbERONThVe95e30v5pUbbhYdVLn+Xc2MJfcTDz71KoJJwMXjVOjJWpz9ko6J0h3XmYqgGs/QF91JTfDr0+P1uX5yjHXnNVwvh9+XrPGzdyiCFxpj2NNWNIyX6uIo3javB6VeIwuJGVTRuAun+3xoC3jRPuQGz7922hCKPQbzsASjLnQGPYjFjVBZXrOnw6/Om1ESHj5PB5X8pqjlCJHgogiWwuRk1LmyUdAFbGaditnqGE4s7hndLaPvM2calhnMuv9P3DZ6HnZzlIIe6sI6SZiMvJMcv2RzKbzUEMLmJo8CQBxxuOBCfVkIb5nXO9xxZlAd7fbhldZS9IZ59sh1BCDBxTIUcaMj6B51XO7vccWwfuYQVlYHRgHWSiySrchSBJiAgklfGVRnV+zJ+WaLOu1BVqutW91fmCTVAEI/pof76Axq/pPKsVENcqlFKVzsD+Pnh4G2IbcaykrcPV/qzXP7sLBibHobHtvYVIqDncXG+XKd6fox+5Mcn1cewW31/Sj2GMxmBSrZT1BRLIpIpP514MCBrEaHmUYpCBPp0QlmttJZyjygMIPSivGtwKWfd8mIv+PtITz+qguhqGsMONZMDWL9zMExLDUY9eD5c3409hWNBZMZXDa2y31x3LmgD9XFI2LWLB4EWNR/yFoEFAtHi/v27VNAs2N6yGUVrVThL7orSo9o0EWcboaR37IAErdFryR7XjLib2tjAE83GIq4IU8SjANgUWUIt88zlqQV+c7fz50rwbHuIkRjGggtrjffL9PtmuIorpsRxOJKw3WTDFQ8xoYXQ6lU4dChQ8NAywRcqZhK2ElXovkcbkvOAz33gQBBDyk2g8WKhc1iTt+W+zPv56Rnqt8fDeCVJs+w7iQ6jnx/eHUvfG5DFAmojnV58fszJZa6kfn6bLbLvHF8cJXBPFJSgUoYSoAl53JZXXZmJgq8VdYX0al4vVkMmwFgjl8319fsWbB6H3mPZOC6JKIUfnUwgD1tMmPD+lWunhbCjbNGIjXP9Hnwm4YShEcPAFP9ybI69qa5QayqNVhK/1cPhF3wuuMK6HpHym+aF+gIJhAoAvfs2ZORGNSZitdzJjBFqvkZuefxzKo51EWsI80KkzZBx5NHhrC1KTWg5PXftjCARZURHO8uwu9OF2ffKjav5DPfMDeE8qIRADV0u/CrE17cuzyM6aXWOhcZi+AisOiglizDqcSgzlTU0QiqQkYpeGvmofyad6sohYH9TyDSdlJlTKZexZUfJl081UunhvDM6cwARRzcsySg7E4bz/tswsL6dK8bmOqPoWUwfR38njjuXhLEjFLDLEHm+On+ADoDcfzt1X5L8chzCAhZBYsrN6SzY5mjFAq9jIj3tf8Az5TpSi1B11mEtn5XuWdYz0mXoONUewD/upeDNcP+lMk3jZdX1EUwvzION+JoD7jx/BlvxtdX+IAqjuRcLqyaGsPaOgMgLOf7XDjU4cGeVmv7FetHEL51YRCLqmLD4mjbmQHMrvRhTqXXUgzSrXSkJYDSYKtiLCbapy0rmR3LHKXAbQKxUCV4w8cBjzF4cvU1w7fnxyqOimCfVAk6egZD+NaOCHpDicQPaVqsxh/HkqooFlTGMb9itML7H0e8ONObnmn4iI+si6LSZ0QXJFN4O4aApxo8ONuX/J631Idx5XTDVvZqpwf72z14x9Jg0pHhz464sba0Bf6oofQfP358WCyawaUzFX2N3C50lMJQ3SogFsWUU0/C13MOS5YsUcvdTpq1adiZP9w1gGOdmQGh1h/De1dFlFIsRR9FbTjjxrZmY+2UVIXsdu/KsVp9MnBtOu/CS+eS35f1ml0ex4GLxjkfWB1ElW9ENEpdeP89zVG09wawrLhdDf1pLGU8l9VoUGcqgoq6S0GjFNxuBP3T4A12wRM1BkrLly9XGYonTZTC9jODeOJoOggAc8pjmFUew4yyOFZNHQGUomGXwXD8bh104UcHPYikGQWunRbHHUvE7wflB2RJBiruf77Rje3NBvippPeHRzMrRWj7INA66MZNc8K4ZobBXuZheigSw9PHB3HDdMOtw3o3NjaqiM5UTDVZoxQm1do0vUNhPLo5iGBClaH2EqODN9FX5u13LY9ifoWBFt3gqYOKxxp7XPj5ETf8XuDD62IKYD8+6ELn0Mj9y4uAd60EYnHgV0eBe1YAM8pSg6p1gIB14a6lMcytiOPXJ9w43pkwsgJ46+IoVtREcaTTjZPdbty+YMQRLcCKxuI40FmCacVB1BUHlT5FEwM/r776qoqH10eD5ngqxoNPVIIOGlf1VeT1dZRlP89hiDO3J8WCR/91cABbzydAlKG7ZGVtDNfPjmN62Qi7mUFlAAv4xREX7rsCqPEDoSjwvb0AdSTdF1hWBAzQ7BQHbprnws3zrBmLoDjWCbT0A6+tNxjuaIcLvzw6YrlfXB3HPcus2Ulnqz+c8SMSjeOOBQE1EpTlaxkuwwgE/X3MWV84fKcOZrfoAKHxlNv8lsW49RXg9fzretQCn2mOftXdPQW3qLf0BPCVrWHDNyfFyvGb5PibFsRx9czRFnUzuJr6gOOdcbxuviGy/vt0HAfbgUgsjruXu1FRDBxpj+Ols3EEiAUXcFmtC+9cOVZxZ+M+2wAc6YjjfWsAgpGsdbZndP0/sjaCKv9YkSegeua0CzuaDSr+yBVRVBRFFVvJRNbDhw+Pmn9ojqeSVbQICq78ngwUwiQ6o+hAFB+e1EsHh36eLhGGuymhbpiBXXBQ/WxPH3a32P2/jT7/49fGUeodrVOZRWN/CJhSbHTigbY4qv1AVwCYNcWFulIDPGSqJ45EcaLTuP/19W68aZFxjc4w/7ovjvO9QJU/jmmlLhxPnK/Ximz1P5bHsK8V6Am5sKAihjlTRoykP9oXxomuOGpLgPeu8YBmDcZh0RjKQtaSyE52qNn3x1W0zEVf0kO3rMuoVtfTeK3uQNZFrVXoSzqA6ccLCqqO/hAeecmYYp5L+bsrXapzrMSflc6lP6ttAJimiVAe++7uKM71Gjrbfeu8qK8YuYLgevSVGPpDowcJVvWnuC0toq0LuHVeDNfOMkDFz46mMH5xcAgfvLIEi2s8w/vNbMV4dL6DVZSC5FAwLyFid20aAZQ5SsHMSLLKFvU9+iwZiMh91AP5LUvdFhRUTxzoxeZz6TsnHeAeusGNInd2oBJGa+iKorbEhYpiF4KROP5wIopdzTGsqHPjXatGTAgExCObIgiM2EfTVW/4OEerr58XUyPGQDiGTz5zEV98Yy383hExK7oVO5p6lUyiGK94KolYMK8RSKDIDCS+s0xB01+W+/XEaQQ311Eu2GRSVuaB53oNHUbJl9FBd2N6Ksnx+goX3n+FoSuZmcqsB1ht9wTj2NAQwc7zUXz0umJMLTXuwwb7+rYQ2gbiePfaIiytGRGDz5+O4aVGE6oyrP8t8+L4s1mG5f2HOzpwz5oqlPrcw+KVLNDS0qI6kXarY8eOJWUqCXnR9SU964tq1kSYNH/LfEcBg9lswm2rsBhd9KdyWNMfScNnwXIp7Do7gP84kFDQXRzSx+Gm4pfonEy3b5rvxi0JBdwuqJr64vjhniAGw8BVsz24a8WI77A3GMejmwOIRoFiL/DXr/Fh9hQDbDz284NhnGO0sM36vmVJHJfXjehWeofJb+pVEtS3d+9eBTCrrC9cBFsC8ORPpf9xRNRaBdbx/FRr+mVEv243PKU1iPZTqYwVPkrh21u6cLQjd9H3/iu8WFBtzVQ6e5l/B6NxfHVrEF1Dhu60fn4RXr+oCD2BOMqLXXjyaAi7L4wOT15S61GjvX0tWci+RC+tr4cyV0iHC5vo4KLFXKZ30SdI57NZp+IULZ4n7GLFMBkBI8uTPNVzUX71vXCXT8PQwd8icHyjmuHDT0GiFPgP+cTT3cpmlGv5xHVFqPK7koq+ZMbRp4+HsKFhZMbLB68qweJaQ3f69atBbD1nsGjusB/9hlTc71sLVPhGx7jroCJAOG9QIkY5CjRHKRR6GRHPjX8PV/k0g6r72xHZ9A1l9GQ9C6JTHW8L4JuvDOSKJ3X9wzf54PPYB9WXNw2gtX/Eh3PfVaVYOnVEIacLZX9rFC+fDqG5L5ZXcNF88BeLgWU11nYsAoyuGrpjCCwG8pmjFAqdoGPo+v8Nt7sIbBlP50n4Dj+hQl4YpVCQ0JffHerBs6fCoPtFlBJWTrljTN+pjpd5Xfj0+uIxDlgrpd28b8uZEJ46HlSjMAbZ/PWVpVg5bSQOXldinz8ZxDMn6DS1V7907/euFW4sqxmtX8lz6Qvkh+Xo0aPK6k0dipMmqG8Vem2a/rnrEaxbBXegCxUn/gBPqKewCTq+s6UTh9qi1lOmMnTTkDqW13nwnrW+tKIvlQL/wqkAfns0gPesK8PamSMTU80jo2ePB/DMyWBeZ+XM4ch1TWLwmxilyXMJHDGEUvxxP0G1f/9+BapCr03DWkeKq+AJ98EVM/QYmhPEVjXhkZ8PPN2O7tFzMrMShX91uQ+Xz/DmBCo++Esv9uJ1i/24es7I6E8Hlfx+4tAQNp8Z0cOyqrTpok9c60a5b6ziTsOipApi3BRNDcJUNIgyax0jGiZL4SiUoS90GU146EswEsM//s5wReRS6Fr5+A0l6hbmMJFkzGRlcef1r5wJotLvxsoZPssoTV2J/tn+Qew8PzLhIZd34LXvudyNhVVjdSsOZhjZSZ2KdiuykzAVQcV4Ko4MJ6qII5pimB+Cx/yb7cs6TrhF/UJ3EI9s7MkoTDhVOPHbV/hwTb0hrnSwWAEqlfgzG0R1AEmHMUyluTeCmVOoyMfx/3YP4FBLOONw5ZTvsdyNNdNGLOq6qYFMRcaiSYH6lTAVFXiCSiZM5Aos8fWJc5rPEeDov+U8cUKL81n3FXLfhIPqSMsg/nmLkWMg20K3xkM3lQ6P+jJhJivg6YCUuphB1TkYxVc39aAnEMPaWT68+4oyDIZj+NrmPlwczH0e2NuWebBuxmhQsS6sh/gBaVnnb2Equ1lf9LzpAhJ+6x/xI+quF9bDKrd6MsaXNpxwUG0/3Ycf7xnISeG9ck4R7lk1etSni0G7INPBbQYVtwmenWcD2NgwhBKvC4trvdjfHEYomjBkJQvVyWD/m5d4cM3sETeNzlQ0gNLAyXAYspbOVOZ4KgEOGYYhvTyXIkr/zXPMmQT1CAZph2Sg0feznmaWLxiotpzqxb/vzQ1Ub1lejNfOTz3qSycSzbpYMqZS/9x4HJ0DUXx9Sw+6yE4ZgCVpwg/T6PaNCz1YP28kSkEHNUd/BBXdNFTKhakYIsORFkFH4AiA6PfTc5VaraSlpxnSoxN0VkoHKjP4zBJnwplq08le/HTvwGidKuHATap7mI7TULls6uhRXzoQpTuug0rYgqN8AmrnuQD+bXdvch3KZv3197yu3oPblxigErEn38JUrDv1J2Eqgo37uGIVr5O8UhKoJyIrWQiMDib5rX9fcvFUBNW/7enLVp1S13346lIlgvSGMCvsdsWhmakIpl/u7cXGBiP5x3iVRdVuvP+KIktQCVPRnMDEacJU+V5Fywpk+vuaxZy+bSUCJ5ypdjb24Xs7clPUP3R1GZaamMoszqShkoHNar/OFMfagvi/L1uEdOYZXSVe4DPrVdzxMFMJa1E5l4S1jKvSmYrnyDBfDyX+k8xPdaxlEF95qXNY/A0zRGJGcibbd63044Z5hqKeDjypTAw6sEaLP+Cxly7i5EUtAYeN+ilw2jj/7cuLcOWsEb1KwC3+PwbukZ3Gi6l0k4Lenub2ScVY+n9twpmqpTeEB59uM+g+ofDKCCTT7WvqfXjnmrKUlvRMdShzw7FemxsG8e+7u7Oun933qS114R+u8cOXyD2qdDoAzQk7FcUggZUJU9E0wOdbMZZZSRfdS1iPI0U6qqn8c58sp5IpmARYEw4qVva+X57LKdVPXZkbD91caQmqdMxlxU7DIEi4tz/xZCu6s4kXzkE03jjPi9sX05hrAGrn+Qgqwy0odkVUSDFHgePBVBJnPjAURPdgCPD44IkGsHLZIqxauRJMHiLZldMxV8FAxQc//HQTGrtzC6Z64OYKzCgfUdbt6E5W/zzRY461hZToK0S5dYEXtywswq6mCH5/Ioz/Nd+YZkQlnaaCbJiK72oeBcofj3HoahmUYBz99TfDM20ZipT7xQdP0w6UtuzGPXferpzYsrCmtPOkslOxUj/Y2oJNjQE1RM9Eh7LSUd68vARvWFKqLrfSmzLZL88WpuIs5S9uaMfZrrAtnciuDpXq/Aq/C72BOOaUx/HmGW2qiuKOsWIqmUkjFnGZPWyV51Pfx3dWDBjx4OKiO+Auq0WxzwdfkQEqX1ER0PAiLvN3YNmShSr8JlMxOOHij4206UQnfrBzZAQodptk7GB1fHaFF5+8qUrBMldQ8bl9wRib4T8xAAAMkElEQVS+v70LR1vHhk9kUz/9XbK5fu3UGK6rMhiTE0vFMs54KupYyUZ/Ai4rhtJ1KopTzi1sqXkNojOvSAAp4SSmQdXrQ5HXjdCGR/E377sXL7zwwvArWZkR9PctCKg6+wP46G+ac7ZM/+ONVVhYk1noC/UUNbEiAcLhiRWJ1vjyixdxsj2/8VK5WN5vmzOEBSX9ak4d02TnOzuxclIPBtG08O3w+afAwyBAE1ORtcL7Hsc965ervA0yGWPS2akU9cfjuP93Z1WYrtHLidk0Ig617MOpjleXuPE311VhZrkHbvcIYHTRx98xuHCmK4xKvwe8hr48OooX1vrUnDuW9/3yfCISdXT241zqN/LXtv9+713UBb87ohzJ1KnyPe+PbNc1FEHT4nfAr6ISRPQxtMWHYm77fIid3oJbF8RUlITketDVBivpUhCmYkV+ur0Zzx0fyjkEhmOld7+mEtfO9VvOUL7QG8U3t3SiczAyxs0yq7II979uGvxFLtz/VAva+6N5qU+mGQCTnTezzIW7ZhuLJZEh2KH5ZiqO6Dr7g2iafwd8ZdXweK2ZKv7qb3HXny1Qep0w1aQFVWNbPx56Nj8ra9aVefC5N0y1BNVjL3fiBMVakrJudgnefVUVvvZyBxo78xvVmfShaQ7cNCuC1VN6hic98PRMmSpTOxVHczSotlWuQnjOtZY6FZX1yKbHcN//fAc2btw4uXUqJZJiMTz45Fmc67Fe+sNuh/zLW6ePEYG8xwefaE57q+IiF4LhfE/GSvvYpCe8b2kv/K6wsg+RIchY+WYq3pMRpX2hKDoWvg3uKVNR7CseGf3RiNq0Eyt8TVgwt344F1Y6fYovVTDxx4c/dbANP99rjAJlFo20tN3t91xZiavqS0DVSn/x+59uU/qTuh/dOkqnSzyPNhylzyVMjomVs/JRH7v1l/MXVcZx24zO4ax6klw2W6ZKZaei7YvA7QsBffXr4Zq61AgRdgG+5t2oHmzAn7/+RnCWtHkRgUlnpxLgDAXC+Ptfn8VAKDY87X14ilZiGryd7ZsWluJtqytQymwdiXKqI4xvbukAY+OvmVuK6xeU4Uc7u9DeH8Fr5pTinVdUoi8Yx4GWIRxuCeBUR8gIIEwEoVHLQtzIvEdQ2qmP3fO9LhfuXhTA9KJBNZjhqI8W71RMlYudivdlBAQ/asVV+BGOxFDmL8LCWbUqyT4nXfAYy6S2U+m8/9PtF/CHo/05RYLqQ/fFtT787XU18Be5h1mLTMXPkjojcf8v9vXg+eN9wyaNW5ZMweuXlGFqmRc9Q1HsuzCk3Ejzq33YcKIXu5oCeatfquC9+iku3DXHiIygaGLWF+lMO0yVbTwVbWGM0aKRlaYMBgPaAZP0a0HFHyvR0TuEj/3uvJrUma9S4XfjunmluHFBKWrKvPCoaIaRu/9gRyd2nB1SYk8vVNrnVvswv8YH+hcJssFQDA8+06rYdLzLXQtDqPcPKnZi3k9hqfHSqcRdI9/p8lPJ+6fTqwoOKlb0V7tb8J8Hui1nKCebuZzp/uXTfLh1WQVWTGOGFIOcGjvDio0ONAdwrpsjvrEzj3n/GVOK0DMYUQluM31etufNrQDunGPMSKbIIVPpnoJMmWoyxFMxSccdd9yhIiXsFFdcn21p50qLcwOhCD76Xw3oGBQns4X10zIp6PB/Z2StNoOwx2xfVleMO1dXKBbyJAylPPPzz7eisSuRQXa4bvl/vnVSU+OBnB5/79IAarzGSvLMpS6KsbDIeIz+dIZS9XC7R8WnmUVfJjoVYUGGveWWW7BixQpbyMgrqPjk3Y3d+MoLLUnzl9uqXYqTb1pUjnetq1YLlLCRfrK7Cy+eGr3Mmoa50XdinJIaqSaGkMO/c6vd2jrg5roeVR9OcZcY9GyYKlM7Fe+dKuenPrpLBSbhFv4JOOuHfwr5/vrXv26rYfIOKj79B5vO4dljIwp0Lr6zVArx3Wuq8MZl5aoTf3uoG08e6UOck2TcBmvcurQcy6cXK+WeinuF34PaMjdqS7yYPsWLcBQ41h5AQ0cIjV0hdA7GlMuDOa9isQQnmWbNuBLbKmpYm41TVwrcM69PLeVGy7lkzhOWKDRTmdlKUKKDiECiYs8APyr5HC0yo94HPvCBwoOKFf2n3zSo0JPxHG4Ve914+A3TUFtWhKFwTOlz+5oCmFvjw1tXVGBB7djVuMzS3mq7qSeMZ471Y+f5gBY6Q1OEGwtqvErZb+6LKBMF348Z+t65cADVPiNdI10ysmSbgEk6NVOdysxUqexUyZhKZ0h5T9q0hIEIIAKpoqJCrUXDbUnVLSi67bbbsH79+sKDijU4f7EfDz19Dn1a5KWkGJIa5mN7ZqUXd62uxMoZCZ8hpzollXvJF+CWOulTrH5zuE/paZXFbiyt8+GyOp9yZLP8cFcPdp8PAq443jI3gOpImwpr4WRRK7GXjqlytVOJGBSdSkBM2xWBQtbhh+YFpi/ih8fMfkBdJ+PvD33oQyoJmp0yLuJPKrD7dCe+vOECOAF4ogptUg/dOj3p4zJhKkPVGqm0+bcKAnyxAy29Ubx2VhjLfBeVBXvbtm0qyRlTLjIVj1lhZsfbYSo7diodRASPsBCZiNn6WCdJaqs3jplJaUZgsjMuy8ZMemQxu2VcQcXKvHS0Dd/e1DphwCJJfevOOSo/g16SDXJTgccMLtne3DiEn+/vw5X1frxhep8KJWHmFjIUozDJAAQPh+RmG1K+Rn/CTJL/XIBE5qHhk2veEJQUw/o76iKRv5kgRABE/YnbuZZxBxUruKOhA998sRlDEWPquSi4yv0hbhPtO9vjXrcLd66uxJsuG/l3yegnX6BibvaHnr+IFdP9+PgbF6oOO3jwIB5//HHlXKcYo2ihA5lsxU4iUwi4MmWqZLNoCCKCVhZV4jefSYZh3BRj1Xncio1YB9Zl0aJFio2Yf8quaMsEcBMCKlbk0LluPPrf59FHC2QecxjI6JDLBd57ZTVuWjRlDEOxMTMBlc5MyRhsw6kh9ISAD65PrKSUeBr9e88995zqVOpWTGbGhYwksZkwhx2mIrAIVFmhQVZk4PsQRFSuyUx8hhlEohsRcFwUkgBitmGyktm0kAlQ7JwzYaBipY419+L/PHsWvQFGG+S3zJzixRf/fNaYmyZjKqv96UQhO2gg7kN9bbll5Sn+NmzYoEQhWYNMxZGwxKZTHJIhCLpkMepyY1neQ+rJa8mAFHNMSWQueqogOpCpD4luxLpMZJlQUPHFzlzsxz9vPKcC6aLMxJJIOCsvne12dZkHX/mL2cPGUDtiL5nupO+n3YYgyaSDtm7diu3btw+nACKjMOyEYJg5c6ZiDvoECUIyEWfOSH25TSYh01VVVSlQ6vP1WCeznkYWpEgTILGehSwTDiq+bDgSxU+2ncdTh7sRicWGWStXE8Pdq6uUPpXCojDc1pmOAtmB7CQqv3Z8YEwZtGvXLgUkMhPvwZgqzr0jyDjMF92HdSGAqH/xeZK4QyprpewTRGQkSU9dSBCZn10QUEkljl7owY+2XsDx9qG8jQ7vWFmJNy+vSGmrSsVMUjd2tEyn4nc2haJq9+7dyrFMpqP45D7qXZxaJSKLIKKfzawXCZgISAKIH+pFFIWTuRQUVGwY0v1Lx9rx+J52tPaGEKWylaMi/9pF5firddXgaNBcUulYcq6exc4OOyXraI4EaWWnwi0Z9SQLjPjYdDaiOCSAyEb8UCm/lErBQSWNRZH47KFWPLHvogpTCdGJl3CDZIOyJVOL8eHrpyp/nw6tVGJPMvVS1EkCsnx1JsFDkUhdiiM2gousJdZuDu25apXoRvkAc77qbvc+kwZUw4p6LIZXTl7EllPd2HWuX4UPK4t8Flb56lIv/u6GOhX5mYyh2HmyCgNBNd6dSWczmYv6FXUrKu7Uiyge/1jKpAOV3rCDwRB2nOrEzrN92HW2D0EuFRKHGjUq0ZlBL1AC/vAv5w2DipdQ1Oj5wwkqp+SvBSY1qPTX5ND6yIU+HLrQi2Otg7jYH0J/MKpSWI8o3iLoRjLuLp/ux8dunqXEmb4Cer7FW/665NK/0yUDqmRNreKBQhH0BfiJIhyNY3Z1McqLjdwMDngmHqSXPKgmvsmcJ6ZrAQdU6VrIOW67BRxQ2W4y54J0LeCAKl0LOcdtt4ADKttN5lyQrgUcUKVrIee47RZwQGW7yZwL0rWAA6p0LeQct90CDqhsN5lzQboWcECVroWc47ZbwAGV7SZzLkjXAg6o0rWQc9x2Czigst1kzgXpWsABVboWco7bboH/D3INMte6+6bRAAAAAElFTkSuQmCC&quot;&gt;&lt;/div&gt;&lt;div id=&quot;SDCloudData&quot; style=&quot;display:none&quot;&gt;&lt;/div&gt;" style="text;whiteSpace=wrap;html=1;" parent="1" vertex="1">
          <mxGeometry x="830" y="30" width="170" height="170" as="geometry" />
        </mxCell>
        <mxCell id="BVkSgA7eZD7vXLeDeiiQ-71" style="edgeStyle=orthogonalEdgeStyle;rounded=0;orthogonalLoop=1;jettySize=auto;html=1;exitX=1;exitY=0.5;exitDx=0;exitDy=0;entryX=0.75;entryY=0;entryDx=0;entryDy=0;" parent="1" source="BVkSgA7eZD7vXLeDeiiQ-24" target="BVkSgA7eZD7vXLeDeiiQ-62" edge="1">
          <mxGeometry relative="1" as="geometry" />
        </mxCell>
        <mxCell id="BVkSgA7eZD7vXLeDeiiQ-24" value="&lt;div&gt;&lt;img src=&quot;data:image/png;base64,iVBORw0KGgoAAAANSUhEUgAAAJUAAACjCAYAAACDgVz/AAAAAXNSR0IArs4c6QAAIABJREFUeF7tXQmUVNWZ/urV0isNDU13o9IiiGxuiI4YAhKjSRQTd8cTzeKcZGacJGZOljk50TjqZMGIxqhRR1Q0aojiEolyiIPEBVH2TSEIIovS7Fvv1bXM+W7X316ur7qruqu6XnXfd7pOddV79eq9e7/6/v/+/3f/64vH43HYzbZABlvAZ0GVwda0p1ItYEFlgZDxFrCgyniT2hNaUFkMZLwFLKgy3qT2hBZUFgMZbwELqow3qT2hBZXFQMZbwIIq401qT2hBZTGQ8RawoMp4k9oTWlD1AAZisRiYYm1qasLWrVvxwgsvIBwOY/DgwTj22GPV45hjjkFlZSWCwSB8Pl/7Vfn9/h64wsx+hQVVZtvzqLMRTHzs3bsXa9euxb59+9C/f3+sWrUKBw4cQHNzszo+EAioh+M47SCrrq5GVVWVAl5ZWZkCJffzIf/r4MvibaR9aguqtJus8w8QSNFoVLESwVRbW6s+VF5ergBCUB08eLAdVARKKBRSgCEzEWB8FhD169cPBBkBRjYbOHCgOldBQYE6hpsATF53fpXZO8KCKoNtSyDxsX79egWmw4cPt3c4O33AgAEdMhWBZD74OR1gAjQ+V1RUKKAJyHh+PvgZ7teZrCfBZkHVTVCJiWtpaVEMRDC1trYeBSbpXB1UJlOJCXRjKgES9wnI+CwPARBfFxcXK7CRyWhq+Z1kx5KSkqPAJteUDRNqQdVFUImJIzhWr16N999/v50Z9A4X05QqUxEgYv50EOkMJf/r35Psf/l+YTOaUgKOzwQdzS43ASb9te4ODiyo0gQVzVskEsHHH3+swES/Sf/VS+fqYJL9XfWpkjGVmDSdqUxw6f6W3KpcT1FRkQIWH2QzPgvY5Dwcjaa7WVCl2GI0aXxs2rRJgYkjulTBJB2UzKeS/bo/RbZih4rzbvpVwmJuDKWDTb8909QlM328ToKL7Hb22Wen2EKfHmZB1UmTMZ5EMK1ZswYrV65EY2Nj2mBK5lOR8fjQ2U1Mkc4w4m/JM8HGB1/rTrkwls5c6YBKBxn/Z+xs2rRpFlRpt4DLB+gvEUwNDQ1Yvny5AhR9jXSZyTzeZCp+NR18mlS3Tcwe9wmLmR3P9wkw+kY66CTuZfp3OmhNc2gC0IIqA2hi57KTGaRctmwZNm7ceBSLJHPAUwWb6VMREIyyk63S2XQmErCJmdQZTkaSOrPpgVa5bj3coN+LBVU6vWIcS/NGZqLTvWLFCuzYsSOjYErmUzF4STbkd2dq0wGnB1F15hK2MplNH3VKdN+avzR7hqzEB8MBjDHt378/K2BK5lMxplRXV6euoac2AZf4Y3p8TMBPU8pY13HHHWd9qlQ6hiaOzMCOpL/EB193FArortlLxlQcYTHqLjnAVK4/m8eIKWWUno+amhoLqo4anH4L/Rd2IoFEZsoUWLrqU9FxP3TokBpR5mpznABQWAJEo4i11KvLIJgYTrCgStIr9JcIpk8++USBiXGmngZTMqYaNGiQMrm5BFWgeixKxl2ESP0eNK14DrFII0444QSV3hk6dKhlKh1XNCkEE0FEMIlSoCfMXDLmMnN/NDEMouYOVA4Ck38Ap18VYvE44tuXIPr+XJx44okqwm59qgSi2EF8MLHLsMCRI0c+Iw/xClNRL0VdVX19vYqDycY4Wc9sDiL/9F3Eiga1fV3LIYTefQCjRo1CaWmp0nbZ0R+ABQsW4PXXX1cBRQGPGYdJ1QfKNPjMOBXZoLCwUP0I6PMRTBJlJ8gEaAIy/T1iIBPgC5ePRGPNZAqyUFS7EgW7V2HMmDFK7WBBlfhpL1y4UAFLDwKaQrZMgyXV87nl/pjEZWJXApQSsCSABGj0CwVs/F+S2hKJF7C5gS8V4LUUVwNOEAX1OxSrE1S8Jhv8TICKLPXqq6+2p1UkNybmxEs+lYQSRO4iwUdJJstzMpEePycAI+gkiMv/5X2+Z4JNNPNsE5MNec5x48YpVakFlQGqfGEqXqcegExHT+WWQDZzgzyGwCHIRGnBZ8bpBIgCQAEZfSoGQC2oEqB68803MX/+fE8yVUd6Kp2lksldJAouspd09VRugwGylrC3CA8lQW1BZYAqH5hKcn66AkIX5ElKRSLdoq/SVaBi3vVnE3S66ddHlTqr8X3x4chS3GdBlWitRYsWYd68eZ5kKjNOpUbxLS1HhRPkx5BMQSDg0dlMwKaznQBRB5Q+YNEHF/poWD/egirRGm+//TZeeeWVvBj9EQyMUSXTU7nFqkwBnrwWdjIHJDqr8fv0iRUyADAByM/wWAuqRGsuXrwYL7/8sieZyvSpGGBk8DNdPVUqgVEdfDrw+FkBkxsrch/DCVQp2DhVoqXfffddzJ07Ny+YiuaQgsBM6qlSAZx+jK4uFR+OQVlG+48//ngbUWdjLVmyBC+99JInmcr0qcgGu3fv7lE9latJLe4PRCOItTSo3TR7zEtaUCVai/m+F198MS+YilPZd+7cmVM9lVNSgaKR5yLeUo/mLYsRa6mz0hfzl0dFAquqyDDdSxF106eiCoDzB3OmUuDE1QnfQKh6LBAHwhv/D5FNCzBs2DA14dRKXxLoElDlQ5yKuqWPPvood6DyBxD93A+BYHFb69Xtgn/ZTCt9MZmKExeef/55TzKV6VONGDECW7ZsUZMfcrWFjz0bzVWnqa8v3PseQjsW46STTlKTSe3oL9ErlAnPmTMnL3wqMtWuXbuUmJCbJHppunV1gaRXsqK5chzUV5zKYkQo2bcOvljE6qnMXzinpD/77LOeZCrTpyIb8GGCyXwt0hYGSSU5rCsP2Aam/koAaAZWU9FkjR49Won0bPAzgS7OJn7mmWfygqkofRGhnkS6RaWQLL+n+4rCaPIsCWEpbySv3fbr75mgpKNu9VQaXa1btw6zZ8/2JFN1pz6VORPZzN1J1FwHHY/Rk9Umq+taKgEimY2qTwZCLVMlWowTQ59++um8YSpeKAHhVp4xk/WpBFA6kHRTqKtHeS1WT6X9BAVU+RCnovkTxtELcEi6RBfhiSpBVymY+91kMKbUWWcyaTZTAiPHWKZKtBDrbT711FN5wVSiX+osnKD7V9Lhehkh+V9AZZZx1MGnf5cphZFzSyUZC6pEa23YsAFPPvlkXvhU7DxG0+nH6DN+TJAlYxI5Tv+sMJPpS/G1lF3UtVoCWB2QdNI5Q9nO+0u0MMv/PPHEE55lKo72GPag5IWdx2n42ZC+mMA0gedm+uQYhhMIKI4C7bw/AB988AEef/xxTzKVGafi9CxOe8+l9EUNFPwBBroQi7UVX2OtdkpfGJy1oALUNPdZs2blBVN5QfriFJcjWD0G8UgYkV0bEAs3YMiQIQpYVvqS4PMPP/wQjz76qCeZyoxTsfNYOCR3pYQcBMZeiMKRX2BMHs2rn0Nk2xKlTmDxEFv1JQEqJmgfeeSRvGAqdh6r9uVM+gIHmPIjIFSqQIVD24Dlj1vpi+mQUkoyc+ZMTzKV6VPlXPoCBy2jvoqWgSNUMxbuXoPQltdA9QT9PTv6S6CLdTsffvjhvGCqkSNHYvPmzTmVvkSLB6Gh8gzFVCW7lsPffMhKX0ymojl58MEHPclUpk/F6eUEFet+5nTjSlyqelFbCSOqFLiWjdVTJXpFQCXRYTVkNpYvS7VKS6ZLDsniQxKnovlj/SyK9HStlAAs1fcUHFxqWnX2ebf9PBfjU0wq24h6oieo+X7ggQc8yVSmT8WOYzA0Geh19hLFgclobgI+HSzmfjOJzPOZx9CfYt0sCyoDVPnAVAwliEJBX5dGl7kIq5r6qs5KIiUzpzrgdKDq/9sCHUbrccrT/fff70mm6o6eSlcpmIsd6bOR3WokSBOZOUSz7JDJjJapEi3CgrH33XdfXoz+9KJnpghPL3RmSlrcQCTM3BGoUgEXj2HBMyvS035inEhw7733epKpTJ9KX+lBB47bXEUdNMkUDWb1Fjd1QyqjTPp6TNPYOFWitTiN/Pe//31eMJUUjjX9nFQ6PpvHUPXJAKhNKBug8qLy0/SpulJKKJtgknNz9McYFeupW5UCoKqo3H333XnBVNksJZQq+Bx/CIHKkYjFo4js2QTEoqqMEOs8DB8+3IKKDUl90l133ZUXPhV9LK74kEs9VeC4M1Aw6otALILm9fMR3b1BxacILCvSS/w0qaicMWOGp5mKs6i5SjydYY5We3JptqMYzHHgTLwB6FfV9vb+DxFb/oTSUdFUWz1VorXYWXfeeacnmcr0qcgIzADkTE/lOAifci0i/YaohHJg/wcIbXgJTHQz92f1VAlQUfN9xx135AVT0bxQVZE7PRUQ7j8MzYNPAeJRlOxeCX/9LowdO1bFqmwpoQSomKCdPn2655iKMSNJKIv547CdStVcgorNFi4cCCceRaDlsEobccUHjkxtnCoBKspIfvOb3+QFU7FkDzX1uSgl5JbEZqPxfTIVI/pW+mKAymtxKjemom6JTEWT7TaxUzpZTypLZN0twm7WU9Dn9+mfk/Pqz3p6h/p0nsuCKgEq1iX/9a9/nRdMxU5jbSozpKArEARsOmDkf5kcqs9A1lM8JlBNfZiMBPV0jkT3+Z4FVaKF6J/88pe/zAufSmqWM3lrspKZGHbLDXYkIpTz6SAxQeSWG9TPaVUKiRbj8Pz222/PC6aSUIK+ipapq2InJ1uazQ14JlPp099FM6UDRy+wJgI+uzbNUdG8trVebrvttrxgKl364lZKSBfm6Xoq3Twat9/+UldzClj0ckFyYDJQsY66DSkkWon+ya233treuG4yEv0XrjuwyaqguDm8bv5JR593c9RF+WkqPfWiGW7+lQ6kZGUaBUBS0lFAJq/Nz8k5eRzDCQyA2tyfAap8GP2xMIf4U8kYRzrfnNiQyjK2uh492fn5vnku1iElS1mVQqLV2FG33HJLXpg/MhSZwy2hbM50cZv5kgqwOgKTcuYDIQSrRit1QuuBbYi11KvC/Bz5WaZKtB476Re/+EVeOOqcscIMQE+UEkoGrsDwSSg64RzEY1GEty5F+KO3bdUXs7H467355pvzgqmopzp06FDupC+OA//kH8FXXK6aMX5gK6JLZqqqL3TUrfRFQ9dNN910VFVer00mldwfFZaU6uRS+hKeeCPiwSKlUvAd2o7Qmj+pnB+j6lb6YoBKX3DarXyhjPr00ZXbqDBT+91GfyyBSFDlMqHcMvTzaCofASdcj+I9axA4sFmBiX6Vlb5ooKL5E1BJZFkPHWQTPB2B1VQp0MRQ+ZlLUEUDpQiXVsHf2oRQ0y4OBZWDThb1XJyKv8AlS5ejsSE7xScGV1ZiSHW1+jVR+6NvdNTp/JqJWL3DvcBU1IFz9k8uVAodjQoZo2JYwXPSl8ceewybmwch4i/pbFTbpf2lTiOqgg0oKwCuuOIKVUxeNoYUBFReZirm1jhPkUnwbG1mVF5e66kfmfEsiWkyKovceiqhvG3bNtx51z0oHH0+giVtI4tMb9G6PfD7Awgf2I5JY4fg8ssua/8Kpmn0wvde8Kl4caacmJ1GjXqqoOoMIMlqMJj5QH2Vdz1RLaBiTMxzM5SfmfMc3tlQC1+gAKcMq8g0ntT5dtbuQn3V2Qj1q0Drmmdw4dSJmDJlitrH4vytra1H1SZ3S6vo75k+l5uplBsxE7IEMEdwAo5kPpvpU5GpqKmn/EU6V3J8+rMpbdHPnwxo5jXw2s3ksnk/ekfx855SKfz8ppsRHTkN4Z3rcPHEE5Xv4yaz6A7a/vbqAuwa9DkU1kxAdOdqRNc+266jeuONN9oDivr3miDSgeQGqlT2s6MIKIKYfiR9JBPA8tqc9k6QMc8my6clA4vOJsnA7/YjcLt3857cXst7ngHVe++9h0dmv4SyKd9H3YpnMXVcpVo9INPbipWr20HFFMORhTNw1pga1aGs+CspDDcwdwbwZPvd3g+GQqiqrFQjJYKLlfHIWG6hCLPoGduEvqDp08hn3UR4OjPpIDQByXPzWGEnfbk2fQk3AloecgyviSNTTzjqNAP33HMP6k64GMEh4xSoqsqCmcaTOl9jYzOay0cppuIW27sRzQd3ZeW7Ojxp8yGU1m3C6BE1aiTKtAtXndDjZALGTJcSEpOm7j8Wa19IkkDS1Qh8Lfv1Z72Wg6yTw2OZPmIdBU/k/jiHbfpdd6Pi0hmAz0H0wLbsdnKoGP7Swdn9jk7OHms+gvC2ZfBtWYBLLrlEHc2IOc2haQZNpnIT6Zm+lGnuhHlMBYKwjACIoDIXkUwlSc3vY9UX/kA8oVLgL/QPM/+IgV/9HwWqvrIxs7/7uR/j+uuvV7fM5eF0E5jMp6I6QV+RVHfI9bYz2UVnHvnfbGuz5KKwmVufOIECriWCWLhR7ZZy15xClvMCHX0VVOyI2qf/rR1UXMmLU8U6Yyo66bpeSoAgIDLNm/5aP7Y7P16ntBKFY74E+HwIb34TkQPbVN6PSWVPmD8LqjamIqjE/NFXkdGd6VOxiCx9MDKWmznrDlhS+6wD/9hpCA6fpBZ8iOxcg8iq2d6SvlhQtYGK8/jEFyKgmIZhNRpKXfSl2cgIe/bsyZ1KAQ4i53wPKOzfplI4uA3+1U95S/riFVDF4zHEWxoQDzek9oPNwFG7596Cyy+/vB1MAiqyE5lIEscElUhfuPwZI+o5K9DBZUSGn4eminFwWo6gZMdb8B/Y7C3pC0H1wMw/orwnHXUOnw/vRPjQToRr3wPgg79fpZLJwslOOMMNgw3bluLE4cM/syt2YCsmT56szCErJ3O4LsX5maZhTC2nKoWC/gj3Ow7+1noE6z6BLxbxlvRFgerRJ1E+7fasj/6Y+2vZswmtuz+Av6waTkEpEAgq38Ap7AdfsBA+/6dJ5jYKaVssKunWjf3xSAsCwc+CuH7p07jw3DNV3o9V/mgOhamoW2KeNJegUs6/48CnrRjhKelLT4AqevBjtOz5ANGWeviLyhWQ/KVVcIrK4C8uR5y+AXyeeQ4vfxznjByk8mj0tZjnE6Zi53HVr1xJXyScIZNZ5Zm+HhnVExH1bIIqvPdDNG16HQ4FZcUD4CutRKBfBZzCMo2ChGq88xxd9SQ+P7pSlTvkSI+gEqZicJEFOrIFKhM0DGEQOG4znuV9PW7mCelLG6ieQvm02zJi/uKtTQjv+wjNW96Br6waPn8AgYoT4S8ZBF9BdnRaGfDZjzpF9J0HcNHk8UqfRPPHEIMwFVfRYimhVKUv5rWZoKFYke8RPBJIlWS0HGuuFiHndFNs5CyhTOdTNlaFm/3cX1E29fsqmJb2xvxVaxNi4SbE6vcg0lwH0FdCAIFBw+AvHaR8pXza6l7+Oa675ioVCGVbsVOFqcaMGaPyhMlARWAIu5BJdNBIslmXzPAYvhYm0oOleoLbBJLb65xIX7gE2vz589GqKTvr6uuwfUctQpUju9bvjh++wjL4QkXKyXaKBqgYCs2dGsl5x6q1OfwpXE90we248vJLVGfTfyJjCVPR/FH5SfNHQBBAOogEFDpwdJWC3shuqgg3qY+EOszPmh2WE1C9PO9V/H2HH07/6k+vJ5ENh8/fJVD5mC8MFoK5KDV6CxWn3HmpdnJPHhdrPoT+G57GBV+YrEZ9BBW138JUDIYSJJKq0etOCRMJCExzpoNI32fKYZKxkCdB9dDMx7Fl8AVAUbn6FbaPuuJx+zrRHrF9H2LEkcWYcMZ45aBTxaFH1BkUlWovYrZ08yX+TzZLCSX79eeEqZ7605+x2jkdzoChCf8pYQ/icfta+ZNx4KNFOGPAQZWYpWyYUXUqAISp9FJCeo2qZCM0HWSmKC+ZYK8jRtJFh6YAMSegWrhwIeZvDSI2ZHxKvkVPmp1UfJ2euB5n/QuYOqZChRNkgoOAitLjZHoqfXivM5epR08GJP39VHwoE1DymR4f/VE2/Mxbm9B4/BfbmClFx7UvHedb/jAuPe9sZeLoTzGcoOf+ulr0TJcfEwDJwgfc51b8w42VPOGoM7t+/1NzUT/qKguqJKPA5r/9N7517TXKx6QchgzUGVN1tTwjQSESZmrlOdAZUFqkFi5iJJ8jzFTApDv2Pc5UTJD+5Gc3w5n6M/5ULFOZTB2LIrj4d7jysq+qfqIfxaU5UvGpTDWoPgFUd+j1ESAHAg0tETTHA2geOBqBYCGKwvsxIHYQ408epWb6iCTHs3EqXtgNN9yA0IW/ag90OvAh1kHGtk/tbzyAqu1zcf65k9qj6ARUR0wl+nTTUe9s9MdyREeaojhYPgbxshr4SisQCoYQQAQF4cOo2L8E5549XgVaOeJMhbFy4qgTVNN/OwM7h18NhBj1pr/eFlpIOkztQ/ujezfh5MhaTBh/mlIh0Ac15/1lwqciQ5GFDhYci/qaKQgUlikfjqDiI+h34Nu5CuMKazF0SKXKNXoaVH9+dg7ebjoRGFDTpWBnb/6Qs/1tnDO4UYUTqPrcsmXLUdPek43+0vWpGKY43NSCvTXT4CsbghCTxgpQwU+BhQicFY/g2ssvwltvvXWUdt5TcSpezOuvv4G5G8NoqTo9kbPozTBJ795CG1/CBacMUeEE5vwY+Mz0vD8yDs/bFA+h9qR/RihUgGAgeDRTKXAFEVn+BK7/2mQsWbKkvXKf5+JUbOL169fjyYXv4cixUzVQicearBP6xv7Qqlm48suTVC6PLEW20kGVqTjV9u3b0eiUYvfIKxQzFdCXMpiKoGK9ievOPw1r1qz5jHzZM3EqQoYNdfdjc3BgxKWfgsrETB997fv7dHzrurZwAn98VCJkw6diULWu1Yfak67pmKne/V9856qvYNGiRe2ze5KNAnMW/OQXM0n6nz/5L0Qm/bQtqu6VUHauryMWQcmqh3H1pRerflu5cqVqq1SYKl2fimGCg4ePYNeQqcCgka4+VSDSiIK1f8SlF30Ry5YtazchbgyV0ziVfPm/33AD4uexxLRP/alp2dKpTKy2v247pE/sb9iPoXtfwwVTzlHhBMaouKXqU6UTp2LAk4How77+OFJzHhyGEzj6C4TUc8AXA9b/BeefOhSt4WYltfF0nIoX99u778HmwRcChf3S82R789F7N2J8YAsmnH6KMns0f2SFzpiqq3EqhizqG5pwMFqEpoGj4B80HIHiMgTqdsJfuwoTRlRg6DHVyrfTKwx60vzxop6d8zxeOzQE0bKaRLqGKoXErBWVE+x7r4Mfv4OpQ+MYdvzx7eEEtlU2fCrxf5jhaAm3IowgGlGIaNyHqrIC1FSWobiwQNVrl7iYp+NUvKE333wLL7xXh/pBp9iwQuKnX7Tpr5h25gmqLheH/AwppMJUpj+Vjp5KZx2/hBVCQcQS1V9kGn6yanqm4chZRJ0XwtD/Y/NXYE/l53uzQUvr3goX/Q7fuPYqpRVnBJvhg3R8qu7qqfRl3KSOgzCafiOejFPxAtlgM2b+CbVDL+7aZIe0uis/Di58czq+/e1vK3ZieoY+T6pMRUB4RU9Fc33llVem3ei+uNvyTGmcpi2s8FPUnfkDa/7YbtEwKjfOxhVf+4pqxRUrVrRr0LPlU3WmUe/Mh0oWWqCE5qyzzsLEiRPTQATQbVDx26hWaFKxqi5My0rrcvPg4IY9GHH4XXxpykRVP4HhBJGodDb6645PZcqL2VJ6qe/OzJ+0LEMUdOiZqJaqySwhns6WEVDdfc99WF06GfECG1YI7N+Is0p2Y8KpY1XhM4rzhAmyEafiuQU8boyVzIcSkBFEBI+U7ZbJGJxjyPeYu7zxxhvTwVRmmOq551/AK7UDEek/NBFCkFBC33su+OQdfHlEIWpqhqqJDpQRp8pUXY1TdaRVNxmK7grNmrAR/2eNT4KIgKL/J6JAekZnnHFG2n5VRpiK+aTZy/fhUPm4tBDdGw/uv2UeLp00RonxOOGWuTlhqlz4VASRsBCfCRoCiPMPGQhlcFZApJeFFDDSUZ8woa0CdKpbRkDFegAz5y7GjoqJQLwtXdOXJjjo9ztg6X345nVfVx3FmuocHafKVJnwqQgMMg4BJGzE8xLQZB7mCgVEBIm5ZC4rvrDaCx/UqPPZXFCqM3BlBFSM1t7x4BPYWv1lxOggJmTFffF5wNJ7cPXVV6vp7QwniLPLjkjVp0onTkWgEES6SeN3sbg+c3+cb8hjxN/S41Y8jtfJ8tYED6u8sICsTL+XQh+dgcjcnxFQ8aJv/OGPsOf0f+3TYQUn0ozjts/F1HMmqFgT1Qmc2p4OU3UWp2Jb02wJkAhabmQimjTOmqGJk2IdJoh4rA4iWdpOJZ8DgU5Xn08FYBkBlYQV9k/oYrWXVK40D47xN+zGqKY1mHbeJKUcmDdvnkrV0KSww7riU4mJIohUfq+lRbWEFPrn+xxlklW4udVV5/dzPWQyEZc7ob/H46XsUEcSmK40e8ZA9bt778fSwFmIqkkQbk6VXF6yWaf5v79g/0ac2W8fzjp9nDJ7//jHP5QJpInh0JzlGDub9ycFO2SJD5kMSsYjQPk+3Q2ZYeMGIlkGRBiJBWuFhQimTIMoK+aPJ33xL3/BnC2FCJcelxDsJb6qDyk/y3YtxTcnj0BRUaFiKo78CKh169Yps0R/hYXOGLuir6PPphGWkQQHzRHBQJARRLIGH49zM2lkIK4nQyCRkfSyRHoFma4wT7qfyRhTLV68GLMWbcPBASenew295vjKna/h1v/4unKQWYOKo2KCiqMnSq/Xrl2rpr2TbQgyfUo6wUPQ8VgJRgoYzKE+G4wmTUBEIJHJxKSRlXK5ZQxUHD7fN2cBtg2cCAeOmlTa10Z/1asfxgN/uE/1J/2f5cuXK2EcgcUOZ0yIExX44GuO0DhrmSDiUF9MmhuIaNLoFwmQaE5ldEYQmSmZXgEqOou3zHgQHw35Up8dAVavfhAPPfRQe3/SiWZJazKWBCHZThyd0eGWERz/d8vri0kjkDjk18sNeQlEWfOp2Cjf+8GN+Hjs9X2yYIfT2oRzDu++AAABeUlEQVRT69/B7T//8VFtTDAJQxFcBJUkayXCTVbjRkecAOKDrMT0iQDJyyDKGqgkrPDJyd/R1Apmtfve+zrUsAtTBx3E9//lWlfLQ3DROeeIkOaPlYrpP9E0illjyMErflF3zGfGfCpexPQ778K7znhEuIBOH6tXVXJgI66ZUInLLjo/aX/IiqGywCMPTFbnszudmuvPZhRUs2bNwrzd5WhiWKGPbQNr38aPv34BThs3to/d+WdvN6Og4kjn3ufewtZYeZ9z1oc3rcfNP/xuVhYhzzeUZhRUpPeVq9dg67Yd+dYO3b7eEcNqcNppp2Y9Wt3tC+2BE2QUVLxeWQy6B67dU1+hr7LgqQvLwcVkHFQ5uAf7lR5rAQsqj3VIb7gcC6re0IseuwcLKo91SG+4HAuq3tCLHrsHCyqPdUhvuBwLqt7Qix67Bwsqj3VIb7gcC6re0IseuwcLKo91SG+4HAuq3tCLHrsHCyqPdUhvuBwLqt7Qix67h/8HEgaMgEtE8LIAAAAASUVORK5CYII=&quot;&gt;&lt;/div&gt;&lt;div id=&quot;SDCloudData&quot; style=&quot;display:none&quot;&gt;&lt;/div&gt;" style="text;whiteSpace=wrap;html=1;" parent="1" vertex="1">
          <mxGeometry x="1060" width="150" height="180" as="geometry" />
        </mxCell>
        <mxCell id="BVkSgA7eZD7vXLeDeiiQ-57" style="edgeStyle=orthogonalEdgeStyle;rounded=0;orthogonalLoop=1;jettySize=auto;html=1;exitX=0;exitY=0.5;exitDx=0;exitDy=0;entryX=0.5;entryY=0;entryDx=0;entryDy=0;" parent="1" source="BVkSgA7eZD7vXLeDeiiQ-25" target="BVkSgA7eZD7vXLeDeiiQ-26" edge="1">
          <mxGeometry relative="1" as="geometry" />
        </mxCell>
        <mxCell id="BVkSgA7eZD7vXLeDeiiQ-58" style="edgeStyle=orthogonalEdgeStyle;rounded=0;orthogonalLoop=1;jettySize=auto;html=1;exitX=0.5;exitY=1;exitDx=0;exitDy=0;entryX=0.5;entryY=0;entryDx=0;entryDy=0;" parent="1" source="BVkSgA7eZD7vXLeDeiiQ-25" target="BVkSgA7eZD7vXLeDeiiQ-27" edge="1">
          <mxGeometry relative="1" as="geometry" />
        </mxCell>
        <mxCell id="BVkSgA7eZD7vXLeDeiiQ-59" style="edgeStyle=orthogonalEdgeStyle;rounded=0;orthogonalLoop=1;jettySize=auto;html=1;exitX=1;exitY=0.5;exitDx=0;exitDy=0;" parent="1" source="BVkSgA7eZD7vXLeDeiiQ-25" target="BVkSgA7eZD7vXLeDeiiQ-28" edge="1">
          <mxGeometry relative="1" as="geometry" />
        </mxCell>
        <mxCell id="BVkSgA7eZD7vXLeDeiiQ-60" style="edgeStyle=orthogonalEdgeStyle;rounded=0;orthogonalLoop=1;jettySize=auto;html=1;exitX=1;exitY=0;exitDx=0;exitDy=0;entryX=0;entryY=0.25;entryDx=0;entryDy=0;" parent="1" source="BVkSgA7eZD7vXLeDeiiQ-25" target="BVkSgA7eZD7vXLeDeiiQ-29" edge="1">
          <mxGeometry relative="1" as="geometry" />
        </mxCell>
        <mxCell id="BVkSgA7eZD7vXLeDeiiQ-61" style="edgeStyle=orthogonalEdgeStyle;rounded=0;orthogonalLoop=1;jettySize=auto;html=1;exitX=0.75;exitY=0;exitDx=0;exitDy=0;entryX=0;entryY=0.25;entryDx=0;entryDy=0;" parent="1" source="BVkSgA7eZD7vXLeDeiiQ-25" target="BVkSgA7eZD7vXLeDeiiQ-30" edge="1">
          <mxGeometry relative="1" as="geometry" />
        </mxCell>
        <mxCell id="BVkSgA7eZD7vXLeDeiiQ-25" value="" style="image;html=1;image=img/lib/clip_art/networking/Firewall_02_128x128.png" parent="1" vertex="1">
          <mxGeometry x="872.65" y="610" width="80" height="100" as="geometry" />
        </mxCell>
        <mxCell id="BVkSgA7eZD7vXLeDeiiQ-64" style="edgeStyle=orthogonalEdgeStyle;rounded=0;orthogonalLoop=1;jettySize=auto;html=1;exitX=0.5;exitY=1;exitDx=0;exitDy=0;" parent="1" source="BVkSgA7eZD7vXLeDeiiQ-26" target="BVkSgA7eZD7vXLeDeiiQ-62" edge="1">
          <mxGeometry relative="1" as="geometry" />
        </mxCell>
        <mxCell id="BVkSgA7eZD7vXLeDeiiQ-26" value="&lt;div&gt;&lt;img src=&quot;data:image/png;base64,iVBORw0KGgoAAAANSUhEUgAAAJQAAACfCAYAAAAf+/AXAAAAAXNSR0IArs4c6QAAHrBJREFUeF7tnfmPHNV2x8/0LB6Pzebxzg5mMTYB24ABBSl5kMcjIL0nRS9SFAJRlPyAlH+AfREgQOybWAUv/JJfokiJQhQe4QeM8QbewGzejQHv4G0We5bocz1ncnyprqrurqXN3JJavVVX1z31vd/zveece6tleHh4WMIWLJCRBVoCoDKyZDiMs0AAVABCphYIgMrUnOFgAVABA5laIAAqU3OGgwVABQxkaoEAqEzNGQ4WABUwkKkFAqAyNWc4WABUwECmFgiAytSc4WABUAVioKenRzZv3ixLly6VPXv2yKRJk2TmzJnuMX36dJk6daq0trYWeEbZ/1UAVPY2/dkRd+3aJWvXrpVvv/1WTj31VPnuu+9k48aN0t/f7wDU1tYm7e3t7vn000934NJHd3e3+82JsgVA5XilAM2aNWsEQA0NDTnQwEo//PCDAxSMBaAUVPpawVWpVBzIJk6c6Nhr2rRpMmXKFHcMQNbV1ZXj2dd36ACo+uwW+yvYCCAdPHjQAYmtpaVFxo0bdxygent73eeARsHkPwMq/cy+5jOANXnyZIHFTjvtNAcyHmW6zQCojAAF26xatcoBaXBw0AEJsCiYogDlM5QCRgHGe/sAKBzHf9Z99D8UZAqwk08+WXgUsQVANWhl3Nmnn34q69evF2oVefhA4j2Pjo4Oxyo7duxwLi8NQymAfHDxXo+rzxZY+loBfdJJJ7n/BlgA7ZRTTnGP8ePHN2iB438eAFWnOTds2CCrV6+W7du3H+fWLCPZC87nvsuL0lCqm2ChKIbyQeODivcKNm1aNYDDhIBMwQXoeA3g+K6eLQCqRqsBopUrV8pPP/3k2MgHUNx7H1B9fX2jbKanYTWUHf0h1H2AWWaKApYCyQeWfa+/s+eN2EeT3XjjjTVaJ1RspjLYkSNHXOwIIA0MDIzqo6ieXwugOBYP3QAMm2okfa/fAyq+01EggOMBUC2gqjFUHLCsITjWjBkz5JZbbklln+N+G2rKq9ts7969snz5clm3bp0DkeqjWoHkaygNG/A5sSgLKv9srFbyR3sWIAo0CzZ9raO+JMayxyPYevPNNwdA1WyBiB8QzV62bJls27bNjdgs69Ti4pI0FBccYQ4D1rMpg9nRobKYBY/qMgswZTeeo4AWAFXPFfF+gz4CSOijLIGkwPI1VGdnpxw6dMixVFabdZM2bqVAA0CW9dTFKsA4J84zAKrOK4K7WbJkidNIR48edUDymSWr9z6gEL8ACnFexGbB5gdUCWkAKp6JxpMCChqqhquyb98++fjjj93QPyl+VI9m8l1jVByKmND+/ftdCqbsTcGGGAdQZ511VtBQaS7K1q1bZdGiRbJp06bjgBQ1fM4KSHocn6GI9+BeSwNUa4d0nT1fhgaOSN+2lc4VnnHGGS42FQCVgCaYCEbavXv3cYHIrICU5jg+oMjBMZI8fPhwmr6Q7T6VinTN/xtpP/1ykeEh6fv6j3J0/Qdy9tlnu8DmmWeeGRjKtzhD/cWLF8uHH37ohK/m19IwTxqApDmOdX0+oKggoC4KHVX4Rp7w2n8WGd/t/nqoZ69Ulrwo5513nkvPBA1lrghu5KOPPpIVK1Y4kY1G8gVpWsCk3S8pnGA1lMahSOICdKoSCB3ExaMyB1ylIv3n/VqOTp0rFXKNvftkwuq35IILLnDlMgAqxKFGrL5lyxZ5/fXXf8ZICiplFvs+K+BEifFqGgrGRLNoXRPgB1SMNnkGZDz43H6WFbiGWzvl4PQFMtjZLRN2fiqdPT/IhRdeKBMmTAiAskamMvLll18+Lusfx1B5ACsKoFH1UPy3xn506O7HjGwODxDyAGA8CDnwrMDjmfdah5UIvkpFyEi2DImQ+Zk9e7arQAhxKGM5BZRlC177DGXjS3kxVJyGqlYPpYlgv+JAg5I2BaPH1/bRDlw8gFJmA2S4VmU8ZTvfxWKfSy65xAE85PIMoCgpeemll1IzVFzgMiugRcWh8qiH0vPVzqP5R4212XwkrwEdDwUbVQYwZWAoAygmAbz44ovuEwuIPFxbGjFeTUPBUFHJX8tQfr15I/VQaiI9H2UxBRXP/B8aCm0XRPmIxb7//nt54YUXUjFUlgyUFEbwNZTm8Gy5sK0M4DXf+aDjveosTfzaZK8mfPV8fCBVe28/DwxlGIph+fPPPx/LULUwS165PM4BUGkiupqA9plVAaYaK2pSgjKZFulpolgB6D/b/6a9QUMZi1Cz/dxzz6ViqKKAFRWHgmWIkmcZf4qrn1Lg2RGvFfOAD0GOjgoMZQC1c+dOefbZZxMZqghNZV1qtfKVeuuhEkMCVXbw262jRz6nrpz5fyGXZ4xHvu7pp59OzVB5ACtNHIqINFH9LOuh6gWZMhUzlqk2IKcXRPmINcmPPfXUU4kMVXYcipwZgCqqHupnYCOoetYVUhkalJ5tnzrxT8qFpDXJ4VAPNWIxMvhPPvlkaoYqKw5FmQjnWkr5CtPcZ/1KOi/+Nalh6fvsP2Ro61I599xzXXI4VBuY7vfjjz/KE0880fRxKFwL7rksQA1fQ7XBacfs1LdfKh8/73J55BZDHMoACjfy+OOPp2KoMuNQ6BVGpGXVQx2ZuVD6zrxWRIalfc/XMmHjf7vUC4OHUG0QASgbElDRqZ8VFS6w/+OP8oj14PLoAKVslYocmny5DLSNl1N2LJNWGZK5c+e6oClhg6ChRq5KLQxVFLCi4lCM8rhwNvWhr3VCKc/k3HjW74ie2/eNgbEiwvzSkYj8ZZdd5tIvIQ5lrErB2qOPPpo4yssjXOADNC4OxeiOuI8/E9iPgNuAJMfzI+MKMM3N6YxkBZ2CU8te7P62zAV7XH755W60FwBlAEVJ7SOPPJJKQ/muME9NVe/6ULYeyn/N+drouM0n2goDexc7fx9soOxHpFxdXohDjYBKAVWLhsoKSHEuNGn1Fc23pV0fygeSLV2xieG4JLEW7GkNFYAKuTxPRFBn9NBDD6VmqLLiUJynMqQyj3V3tqDOgkz38QOzUQCzpkmqPtB92S+4PGM5tMmDDz7Y9HEoXbRVdYxN2urFtwVy+pnVUOryFEy2iiDKVaoGs/tbgOrnAVAGUFyoBx54IBVDZeXq0hzHd3mcMuCvVr7iVwX4LjxK/6kZfHDa84s6rv6OcyRKHuJQBlDUTN93332Jo7wiXF1cHCqP8pW0IQQfVGoL0i6wEymYEIcasSbD5HvvvTcVQ5UZhyLFceDAgbqX80kLnrT7ATLSQZSvnHPOOaHaQA2HC7nnnnsSGarsOBSBTRbLKKt8pXXiZOm64M9EKq1yeM1/igz1OXai2iCUr5huiJC96667UjNUHsBKUw/FGgIksstKDo+78u+lddpFIsx+2fmVHP3kXxyQWLg1FNh5vH7nnXcmMlTZ9VC6WEZZgBpceIfI+EnHLNd/SNqXPCezZs0anfUSNJQBFQxl4ypxo54ixLnN5ek65WgVypXLqjboPed66Z8y11UbdOxdLxM3hWqDqnrz7rvvjl3bIM0w36Yo6t0/LpdHtUFp5SukW1rHyeHu2VRDyYS9X0j78NHRaoMQNvCgxSjPrpNZjaHqBYo/OkxzHD8OxUVjDmEpy/mM2uvYUtZUbYbkcMx4mDgU8aiogF4a5kkDkDTHiYtDEfNhYQpNwWgyV5ulEXSb5OW7tPvZUa8mh+0x9VjWjFptEObleeC6//77HaD0gjaThtL1oYiSM9KDuTQxzPnqwvf+oEHbYp9tszmGvddMTH87Tl/a/fg9IA8uz7MeqRfiO3EMlUe4IM4VJlUbaE6tyGqDKHCG5HBEV6TaQKcnaQLVjvqqAS0rV5cmDpVm9ZWkWihtW1QIRF2ybbc1lf+93S8khz1QASi9YGo4y0j1iOpaNZO/fzWGUlDYeigFiK0KsK/jYmhRebo4IFlgkQ6CIYOG8gD18MMPj0agkxiqrDgUgI/L/KfRQFnuw7mwNtTFF18c6qF8w1ICzHA8b9fmM10tGkpru7NcLKNRgJFfJO1CxDyUABtrMklB4ztxDJWnZkpyebiWrFdfaRRQzGZGP7G8dACUseZjjz3mMvnNHIfSmwcVvfqKmqnS1inj5/xGWtrGSe83/yvDh/eNlq+QJA65PAMoZg4DqGaOQzGFqrTVV9BL8/9WKtPnuGqDob2bZGD5m06Ms356KF/xuJ61DSgNaeY4FGUinGMpq69UKjJwxT/JUNdkUnlS6T8oHUtfdOW/LDgWylc8QLH6CnecSsNQeQQ408ShYILSFsuQivTPXCA9Z1zrGKrzh+Uy4fvlYfWVaiIUQLFuQFoNlZU4jxv1+XEoLV8ppR7KGa4iPSed5Va879q/yYUw9NYcYW0DD1msYMfCY2kYqqw4FHqFvF4p9VARPRFAEYMKubwI4zzzzDOya9eupo5DkYAFUHmUr2hUXUMmhCgcJ1Uqo2sj6D72O+6QFRa+jwAUqwBTDZnEUFm5ujTHiXJ5RMvV5WmVgT5rHo9j+7fpsDk+m6ZRkGi77URRNZNf/sLnWt6ia5yHXJ4HKha+p3gtrYaKi3DHucQ4zZQU2CRSjjCvNkcu6pz4zC6OX+28fYDrfvZZTRaVRA65vAhA4U6SGCoJEGmYJ03SmH1wJUSibT2Uso+WrOiNgfQ5jp38BLF1c/a844ATNajht4GhPMtwrxfu+dLMcSj/blR51EOpK6McWldawVT2va4rxb7c50VnD4fUiwEVd6MCUGkYqqw4lJbX6A2CVDCrkFZ20vu9aPP80mCtnfeX5onSSrbfcXy7bhS/51wuuuiiMHPYp25uwMh989JqqKxcW5wL9UU5EXJdj8mKaOui7AW34pmLr9/p2k7WBvZ3/jHibs5IOoho+fnnnx9yedagr7zyimzbti0VQ5UVh+J/ubgkhy04fCaK0jl5fUbahXBGqDbwLPzaa6/J5s2bmzoOBWOho0pb2+CkaTJx4W2u2uDQqn+TgZ1fCnEoIvisvhI0lAEVN7EGUEkaKitXl+Y4vstDALP6SlnJ4bYFt0tlygWu0w0e3CFDH73gwASoQrWBx1CvvvqqbN26dRRQvIirKfe1TxqApAkX2OP6gGI0BaBKyeVVKnJkwT/KcFf3MRv17pPOT1535Sss6RPu9eIB6o033nAMpZHiZpyXR0yK8pVycnkV6Z15hfTMXCgyNCgTN/+PjN+/2QGJ8wr3evEA9eabb8rGjRtjGSqPcEEc0/kMRZScEps8cnlpRXt/13RpO3JAWgeO3f+YhcaYfBru9eJZ8K233pINGzakYqg8gBXlMqNyedRDsVB/M2zYgXABrjjMHPauyNtvvy3ffPNNag2Vh2ZKyuWhV6iIKAJQmkwm/cNrvQm2ves66R+9s0PI5XmA+sMf/uAA1YwaSteH0vKVegDl3wXdf69A0c81oRy1aIatVtDBS8jleYB655135Msvv6zKUEUwkh8wjVrOB3AxyksCiAWG1i/ZAKifZrFlLFHu1FYYRFUbBEB5Vnv//fdly5Yto59WK+fws/LV9rNiWw8aFWHnO3JrxJYICcSFDQAG8R67aT5O83PKKDbv5v9vVJVBqDbIWJV+9tlnTp/oBbUg8F9H9da0n9nj+79BcG/atGk0Wh+1toEyj2ocq2lsEZ1NHNsCPHVRFmQ+O9nzsneoIuWjd64iWs/yRwRb0U8hDuUBMgpQ1Wjeiud6wVYNWFQ8aKFfXvVQmhzWMhS9sxQA0YetRLCmsollXgN60i6M9gpPvVAo5t+7zScaP9OdRER+SUXc/gqEtP9hAZXmN7Xur+cKcGAmej+BS8IXbLWuD+VrG3WnWsuk73n2qwusy9TKBF+QR9lWqw0KX9uAk1u8eLFceumlTbWCSBJgi/h+1apVzm0AJnTUV1995dxe1P3yKF+xN+/xXbSWmliGASzKLCrG40pSYtvMpIWuSTJ4iDmMQ26SZynVBjTk888/d2DC30b1piIuXrP9B2IcQOE2iILHAYpzh83QMgoYW1VZN0hSGqUycapMWHibtJ16uvR++Ufp++Ld0WoDIuaFrm0AoJiX/8EHH8gNN9wQWGrE7QAmUioABUARY1KGUg2lcSgEMDYsZbEMmGn+30nLlAvcstLS+5MMffiUAxSPwu/1AqDIQb333nsujnL11Ve70oexylQw05IlS1xR36233uqmmFtARWmoshfL6J/3DzLU1e3uYd1y4Fvp/OxfZfr06a7aoPDyFQUUvW3ZsmWuJ86bN09mz549ptgKOzCSW758uetYV155pavJxi5JGookLNPlS6mHkor0Tp8nh2YslLajB+SkDf8lHUf2u6Qw1QaFL5aBITVlAGWvWLHC1XCjpzAqAvSXvmGDdevWydq1a11C9aqrrnK9my0NoLhwsFgp9VAjF2egbaK0DPVJ69CAIwKAhDAHWIVrKFye5sp4RitgYBb+ZAF1Rjq/VBfIjJWVK1e6GBOdaMGCBS7hqvYAUNU0lM7LQyIQfC2nHurn3R1AMZhgmaHCy1csQ9lTY/r3mjVrnJFwf9C/PzP2RGcuQLR69WpXC65t9NukDKWiPEpDASi0VlH1UBp5x3sAfgYJROp5rZ+xD68Lz+WphrIMpUFJXCBuAKMy4rnssssca53om7Lw+vXr3fQn2sWISNttn9O4PL15UFaA0pQLgAAsPBQ4+pmmaOx9jqPu3FAKoJLKLjA8UWIaNmfOHDeCOFFdIC6OdA6MAogI6MbpxDSA4qLB6El21I6oTI89lVF4tgDSzEUUYGyi2XbuqGqDwuuhqrk8n4XQCJSRMJLBP7Og1YnkAmknF/2LL75weTHmq5GWSNp8l8dF8+NQ6BTcJ4CyNuE1azQpcGBDBQ0uyubueM3+vqc44aoN0gIKw6M1EOwsAIbgQ3cQ1Gt2tqKN1KUz2YGLix5E96TZ0mgovRsVbKKAUWGvVQE29aL/q2CpVrYSV23gp3aqvW9Kl+cbnvokpjbRYJiqmV0ggwpcNpFs4kUXXnihY420G4Dit2lyecpOdn0oXX3FL2Gx75OAFeXK4lydBWxpgLJZbr9SIOo9LMWFogdy0pRJNBNT0R49R5gDLYGb056ctr24yaTApr/6itY81XI3Ks7LZ6osGKppNVRUj0ZP4UZYRxzXxwVrBhcIWGBQdI3GZBDg9WxxGiqsDxVhUYyvJa71GJzfEFnH8ByLZGSZuUDYApdMm7jfCefTSKhDGSouDlXE+lBpNZPvCktzefWCSX+HzoAVcC+aQ0oq2mv0P+3vATP5NMDN6+7ubpd+aHRLq6Fw99VWr4tbV9O6OdVgOpKkQyDyeY8W1NROkqYqXUM1ylDaAEaB27dvd41nNEUqA6Pkra0AEO5NVwumVxKIzWIrSkNhI0aCPb29MjAwKHsP9MhQa6fIQI+cd+YZsvDK+a7D6PKQaRmrNA0VFSmPihyn2Y+LQOPZcH9c3LxARaBS1wgnzoMB0XFpzjNN+9LEodLc0ZP/qsZUfAezo0X3HT4iPVPnyfDp86Vt3AQZ194hrQe+lbYv/13++nc3Oy+AN2jqUV5WDGUbiXEAFr2OOA2hBX8eWqMMgmEBE+DR/8g62JqXhtKwAWDitVsbofeI7Jh2rcjkix2Q2ki7kJ9rb5eWH7fIKd99IL/58z91laRpGao0DRXVo60vrud7XCApDp7pnbAVArlRtuJccG96lypKTQi0+ozT6PnzewCVJg7ViIaiPRT09Y07TfbO+itpJyUDoNqPPbt8XlubDC59RW797fUuaW9rr6rZk88LBxQMwggmKxcRdRytyeYCEVxEtNcLKgUpBiUazbGydHH++RehoUjCb9/+veybcY0cnXqptLf/fzK4YwRU7W3tIt+tlGsm7XGdU6d0xbk+bFy4hrKA8nt0lu8BLT2d/wMAFH8BiFo2jkGwUkszAJNGpdMGKtVVpN0fJiSwGVVTnlUcis7x3c49snv6dTLUPSuSodrb2qSyf5uce/hTOWfmlJ/Npo6yY2kMpa6jGoD8k/Uj52m/pyfyXyRnOQaASOMCufiwHKNHXuPeGD1W2+o9v6j2Ayg6Qp5xKLIN27Ztl5+mXSH90+cbhho3oqE65BhDfSILT93jOmJahirF5fmAqoU16tmXi0NMBXDwIFtfzQVyMQETOgI2YkIAo7miNtVqSbm8RjQUbSHc0ts2QXbP+r20d4z7mYZqb63I0PLX5Lbf/YUT5U2tofxhaN4XCxABYuYDAg4StozSfBcI6Bi2kzNE0FMlkPVIMamtDCqSRHkWuTzHgr19svvUy2VgxjzHUh0dIwzFHaj2bZTJOxfLr65b6ER52lFeKRqqSEABJkBCeoTiNjuTFlABMC2p0WWaYSdyhrgGqhuoFqhX1CcByP9eGSpuXl4WcSj+F622v29QDk+aIwMzr5C2ceOlQ4aldedq6dq9Wn7/2790tf7+7JqmG+XRkCI2tNPXX3/tXBc3CFRDcEHQV7wn1aArifAe8ChzESylchQXiTYoAlQwFGyatYby41Cq+wALtjg80Cr9g8PSNnxEzpoxVf7k0rmjRXxW6yWN8krRUAAqz7ABjWZ0RpHbJZdc4tyb/3+6JI1+zm/0dhd+fIk6d0CGC9TAYF7nD6DQT3lqKNqg7dBOAiszYMEGdETq1bVIz+9ITcdQiF47jM6SrTACQAIwgCmOVdgX4+naSnHnocvrMDOWwGZebEVHSAJUFhqKtv4i6qG4iHkACoCizRDU6B7iTmk2y1BJ+wNS6ty1FivrtIsyK4DKMw6lDOUzlf08ybVVsxUpLyZ61mqbluE6KYakZNaA4lRIYnIhYKW8R2YIdsDLpIOsqxvQbRZQXLha14fyy3+jbiHrg8p3gWlHdRZYXAc63fXXX++uQy1bUwBKR2cs0sXaRDqdu5aG1LsvFx3XSh1UlssSASjYqUgNFQWuNAylnOLKYHp63IMBD4OcJ554oibTNgQojMZJ+OK3lvf8nugtmoMRnBaG5SWWqx2XUSDhBtgKYas9u97zSAOoLDRUPQylCMHL6E20GSXSfgQ9I2TeU+9/++23FwcoQFAvoPid1paTStEZMPVewCx+p5WbBPWoJY+a75b2f3Rdg7zjUBZQUdOqQIMykAJIQQSAcPVoSVycXbSDY910001y3XXXFQcogncKKP1XXxxHvWdfgpQ8EN42v5bm93ZklvX+tEfXxISt9ILV0j5+Q0iFIXsRcagoluIzAARI6LgKItiHDow7i5qxrKBEr91xxx2u6qCWrSGXR4lGLZqefRneU8NDw4oKMtZiEN0XsFMVoKuR1BpeAFBczCI0lAJKWR8A8d8AmniUhkeiKjYtGAEP4RQe1NWTTK91qxtQIByjp3V57IeRiQMxo4RkbS1aK62ryXI/3ACjTi4KUfZaXCAuTxe/r7Zoa70aSlmEtmqEHAaiqoLv6KjoQMBMB7abhgF4JiQDeJjGxmAo7azoOJA1BCh6cBKgdEljWAkapbE6P7/ZAaXnp/XhGF5vvpMEXAYaAIaOxz1nOFYj65Truei64+rK+By9RwdVUPkjO2UhvAJunNEsQKKTZL01BCjYJs7l8R35LPYDSGmDlFk3MovjoTcAFukfXcIn7riwhc7zIxyiCWz0ixbYJc3L4/gACFDqnQ4AByEO3BEaKSpBb8U5LpsHAAJIOoLNwiZRx2gIUNTiVAMUnwMknXKed0PyMpB/XGUehtQaWoj6by2PxmW+++67o3Eu9IyuAuxXG6hL1TshYDs2wAiI+F5nBel/+oKc0TLnhgYCRHEFhXnYrG5A0XN0cqQ9MYBE76QX0hsxxC9tgxV0nSgudpRgRxBjI5iFwCkrBKPFGNUCGFgLhvJTG9iPzodA5pn/8nWQjYbz/xwTXQqAsHmZW0OAQhdZhuI1Iz96HgYpskKyaCMCCtrKc1TlqK5TTueCyWGKTz75xLETwUON+agWwx1hLx2dRekgwEe1BDoIFgJAtQ7r87ZTQ4BCI2hpBCDCWBhOJ2hWE92WrqPE7Yn0vbIVoyS73A+uDYCQL6S4jQwA4IOxCAjDOoAOu/lujPbbeBBgA0QMCnhda8I2bxAdB/56k8MYBNrWqgPEN8NOoq5jbSO8AEhgD+1MCHfcDx2GOizYHE2kaw1ovkxHglYLYUfAAwshqE+kJbrrZiiMSESZ3oWhMGQz95wiQA5b0bEQxIhju06CrjmFntKoNc/EkWA2BRDPzEE8UbeGAEV8BTeXZhh9ohqo1vMmoImrg138hTdgK1id0S+iHbvhwrIIKNZ6nnnt3xCguHsCVG3dXNa5tRPteEgBWHv+/PmFluHkBZBaj1s3oBCXixYtynWFlFob0yz7k2Kibr3ZRmBF2KduQHFyuLuxKMKTLgzubCyCCbs0BKgkw4bvx54FAqDG3jXPtcUBULmad+wdPABq7F3zXFscAJWrecfewQOgxt41z7XFAVC5mnfsHTwAauxd81xbHACVq3nH3sEDoMbeNc+1xQFQuZp37B08AGrsXfNcWxwAlat5x97BA6DG3jXPtcX/B4DdO5s7XIyYAAAAAElFTkSuQmCC&quot;&gt;&lt;/div&gt;&lt;div id=&quot;SDCloudData&quot; style=&quot;display:none&quot;&gt;&lt;/div&gt;" style="text;whiteSpace=wrap;html=1;" parent="1" vertex="1">
          <mxGeometry x="650" y="710" width="180" height="190" as="geometry" />
        </mxCell>
        <mxCell id="BVkSgA7eZD7vXLeDeiiQ-65" style="edgeStyle=orthogonalEdgeStyle;rounded=0;orthogonalLoop=1;jettySize=auto;html=1;exitX=0.5;exitY=1;exitDx=0;exitDy=0;entryX=1;entryY=1;entryDx=0;entryDy=0;" parent="1" source="BVkSgA7eZD7vXLeDeiiQ-27" target="BVkSgA7eZD7vXLeDeiiQ-62" edge="1">
          <mxGeometry relative="1" as="geometry" />
        </mxCell>
        <mxCell id="BVkSgA7eZD7vXLeDeiiQ-27" value="&lt;div&gt;&lt;img src=&quot;data:image/png;base64,iVBORw0KGgoAAAANSUhEUgAAAGMAAABxCAYAAADBJR0FAAAAAXNSR0IArs4c6QAAG6JJREFUeF7tXWlzHNd1Pd09+2CAGew7QBAAN+0ULckMJYqSnbJkSbZlx0sqX1L+kHzzP0lVEle5VImtxLErjlzWYskUJVESN5GiSHDfV+w7ZgazL92dOg94QGMwADEACGJkdFVXz9Iz3X1P3+Xce99rxTRNExvLupCAsgHGusBBnMQGGOsHiw0w1hEWG2BsgLGeJLCOzmXDZ2yAsY4ksI5OZUMzNsBYRxJYR6eyoRkbYKwjCayjU/mr0Izh4WFcv34dZ8+eRTweR319PRobG1FXV4fa2lr4fD5omvbAYfnagpFKpXD37l2cP38e0WgULpcLt2/fxsDAABRFgcPhmFn9fj8qKysFSDU1NSgvLxcrf8N912r52oERiUSEFly5cgWhUEjI0e12C8ESHILBhWDY7XbYbDbxmprB11zl60AgMAMOAeP7srIy8f39AOlrA8bY2BguXLiAW7duCVMksqCKIlaCwfXOnTvzwJCASBAoaK6qqs7b8jOCSlAkMASHa2lp6YoBKnoweKefOnUKPT09yGQyc0Cg8CQYFCLBGBwchGEYQgMIBD/nVoJgBYW/lf/BLVe5SKDllpojQeFrrvRHhSxFCUY6nRYmhyBQuKyPWYUjBZhPM+jMdV0XMpIClvsTCKfTOWPCaL74mdxP/p/UOisw1s+430svvSR8UCFLUYERi8WELzh37hzGx8fngJALgPWutvoM/o7OPZvNzpOTVTuoLVaA+Z4rweLK1/KYueDw/csvv4yGhoZCsCiOFHowGBRh6eXLlzE5OTljm/NpQz5QpM/o7u4WTp0+hdq11EVqhnT60qxJJy79C7+n2eP63e9+9+ulGaOjozh27BiuXbsm/IG8+KWCkOsz6FcYbVHDksnkUrHIu5/Vf/C11BZyFvqOH/zgB8WvGRQ67+ATJ04Iv0Bna42MJBC5GmB9v5DP6O3tFUAQEBlxrQiR6R+rDg8cVW1ID15FfX2tiLQIRtH6jEQiIfzByZMnMTQ0JC7T6pgXE77VP+TTGukz+vv7weOEw2EBymotjqd/DrW8FZlL76FRHYO/1IfXXnut+DSDdymjotOnTwshySWf7V9I6LkhaG7YKX0GzRQjKZoo+h5qoYysVgJMuuM70Ku3Q+s/hS22AZSVeAUYRacZNB3vvPOOCFG5yBxRrkDvBc5SoinyDGoGCZq08dIPUQsZZcmV+9HJEzhpKhcCzFRVJMra4Q7fRvumFvH/r7zySvFpRl9fH95++20BhrzDJQfIBWQpmpFvn8UYOEGR6Q8ZvsoQV/6X1Vnz3AgYwWLOSwYDus5eQAPt7e0zYBSdZtCOEwxuefFL1Yx7+ZCFeAaPw0VyBsnEF2PgVtIntYOaRBNHrbGaOh7X4/GI0LboeAbTGTRT1JDV0IzFeAbNFBm4NTDI9VGScUsuIc2ZTCZab5ZcBm41Y0XJMyQY9B2FaEZuiLsUn8FQeTEGnhseExjpx6zfyVBbkj1rxpfg0SwWpWbQV7z77rsi0bcUzVgJz+AxJAOn3V/JYs1rSW0iKDRRrIX88Ic/LL5oimD8+c9/FhnVQjRjOT5Dkj463tUkfQTVVlYPIzKE6upqVFRU4PXXXy8+n0GCZwVDRi73CmUXCn0X8xn0SwxVyWcIyGotjkdfh71pJ1Jn30K9FoK/zIfvf//7xacZBOP9998XRaFCNGM5PoNgMPKhqbISzJWCkn7072H6GqENdqFD6UZZiQevvvpq8WnGyMgI3nvvPVGfXorPWIrGLJSbYljLSIomisyfaXSycH52L2K3GGBppx/JQAd8I2fQuXkTSkpKBBhFxzMYan7wwQe4ceNGQZqxHJ/BaIpmisKykr1cUkdwZKqEWwkaX+e+n+UYrAIa6OzsFP9flNEUNWP//v0iTb4amnEvnpHbkCBBkaRPhqmy6cBKHmXykmDJ0Xc8nnUkHvdndFW0mvHhhx/i6tWrBWnGcnyGrIFTeLITxNolYu0OkWBIcGUom0v0rDUWqykrykofC0gHDhwQVbylaMZKeAbBoCZa7+yFhJnrIyQYud0jUpOsBJBmionCovMZEoxLly4VpBnL8RksWk1MTIgkX74a+EJOWvoUeSPI/awJRcnWuS+7Qn70ox8VXzTFfqePPvoIFy9eXJJmLBZNLfSdtZ7BKIocY6Vl13ma4/DAyCZRXVkpuhMJRtFpBsH4+OOPRRvm/eYZZOCysLSqlb6t34ajfS+Sp3+PajWE8oC/OGvgTNx98sknov1mKT5jJTyDpI+hKbtNqCGrtWR3/iMMXy20gbPYnL2OMp8X3/ve94pPMwjGwYMHcebMmYI0Yzk+Q5I+HnNVGXhJA+IVW+Eb/BKdzbXwTZO+oqtn0KF++umn6OrqWrFm3MtnyAIWTSO1Y3WXuaSvKKMpgvHZZ5+JpoT77TMY2jKsZSvN/RqPISOuomTgvEOtYNwra7tSnpHLwBfqQreSPmvZNR8vkZ8VfaWPYHz++eeiX6oQzViOz5DjM6gd1rSHHAJArpDbhJB7HFnlyzVxEhDuz+6QotQMOtJDhw6JDsKVRlP38hmSgVsztNa7Ot8dnptEvJefYeKwubkZP/vZz4ovmiIY1AwJxlK7Q5aTm6Jm0EeRaxTCwO8FgPV79tlyKNpPfvKT4mPgBOPw4cM4fvz4ijVjIX9iZeDsJFyNxmcrAI5Nz8Ddvhexc2+hXImgsqKiOBk4hUMw2G1+v30GSR8LSzzmatbA9af/GfBUAIPn0Rw7j0BpSXEycArm6NGjYr3fPuN+MfBU+RbEK3fA13cUHTUlKC31FScDZ1riyJEjYi1EM5bjM0j66LzpN1aTgVtNFts7Zdm16Bg4waCJoqlaimashGdYGTjBkPwhN6TNHe1q7ZFabCSsjOYITlF2FEowGN4WohnL5RlMFHJ0EY9lbUSQpVMJtrV2YeUeVoFT6FaSWvSVPtYWGNYyP7UUzVhJPaOQceBSA6xl11yAckuwRc/AGWYyrGXmthDNWI7PkDVwCk3WviUTl8xaaoxsPiCJkxokt/Q7Vq2SJFKOL9+8eXNxdhSyBMr0uQxtrWmFXJOx2HsKQrbX5O5nHZ9B5y2JpRSqteuDr+XnuWbM2gWyUJ8VTSAd949//OPiY+AUIB0rOwqtd6c1B2RNzi30mvvzLmZNnV2K/F9pYqzjwGWf7WqWXW3Vm+HatBvJm0dQboujorx8bWvgvNhIJIpUJgsVUyNSH+SSnR6rF5mcnJmWguAQPKtmEASaxtUsu+LpfwJKaoDek6iePI+qcv/adaHzIgeHR3Ez6kV31IGRlP1B4gDO5h5wpNHmiaJCCSMTnRBDDNitSHMiNYM+g+fOCG41y67R1heR8TXAe/cTbCpTUB4IiMbn+84zaDeDoTCujCv4YtQHEyYUKHO2M1FGzudyv9X+PqMrSGcBjy2LnYEw6pVRMZac5o+aYNUMago5hpz+aLXvok2bNokU+prUwAnGrd4hHB4pxWjKudrXUvD/ZXQIIOSjDrb5Iuh0DiE00g85HsPqM+i8CcRyyq6S/FmHlslBmdbORB5jTeoZBONG94AAYzzjnpICJytbwlYxddhSIbgyY3AYCdiRgU0xodjsMDUXspoXUS2AmFoC01QW/V+aprRugmDMeCwT2OabxBbnMMKjA3PAkPNNUWiMqLhK0kaBypnZ5EQtUuByQhd5l9DscbUGEvlqHmvCwAnGtdt9ODLmx1jaOQuCPFsJysx7E7bMJFzB63Alh+E0onNmO+NdJAcziuFYmg0ZWwkm1AqMm+WIGO4pUCz/T5zSQiPYgDx9M4j4FNhaEsZW1wgmxwbFoE06aqvPoOAYfs6e3uyo1XyR2rrutSUYV2/2TIGRcS1qVhQ9BcfoRbgmb8KBLOAqQ9Zbg7S7FhlHGbKqE1BtUE0ddjMDp5JGKaIIqBGU2VIwVCdGzXIM6gFM6lMmkbKnNqT0aSByzmCrN4ytzhFEJobmgFHoTGzWGrjUBhakuNIPyeEBcoiA9TS2b9++NiOXCMbFa7dxbKIcY+mFwDChJkNw9h+DIzkGw9eAdPlWpEqaluQTVJgoU+Nockyg1pFAGg7cSFWiL1WyKBD88y2ekNCMWHBEOHCrZuSbo9CagrEy69wH7shmaUZjckyG/MxKAL1eryB7P/3pT9cmmjp/9aYAYyLjmRlTPRNVGTrU2BBct/4C1e5CpuEppP2ds9EW7cq02RHR1fQsajO/t3zPgb9V9hg6PUF4NAOXo35cjMyaGPFHlv2pNh2eILa5RhEPjc4BQ2oGIynZpCzveAqXd7x8L7dLunPE4Mo6uNr3IH7lI/hdqhhkuSYM3DBNnL14HceC5QhmPULIM6EqpyOauAnnnY+huEqRbfs2Mt6a2e+nQ13VSMOVDkLTOIegCk0FNFVBBg6EUTJv/yp7Ag+VBOFQDFyIluFqZGofa6gsX3e6JrDNPYZEeExMDpnrM5h+YZVvNSt96jd+DsXfBLO/C1UTp1ARKBOk777zDILRdf4qjocrMDENhhCEkYUycQf2WwegOkuQ3fy30H1183iIYmRQlhrEFq1HDNHlZCkUmMdbgsFsKS7pLXN5C4d06UC5LYFdgTDsmoozIR9uRWkip/jNFDBT/qTDNYHt7jGkIhN5NYPHY0pkNUe7xlueR7pqBzy3/oJN3gwC/jKRKLzvXeiGYeKrs5dwIlyFoOGZjabSCSiX/gibnoDR/Az0qofzhqaOTARt+g082lYtohoKhaDE4glc6IvhXLIOWWjifylchq+p6aip0ZPEUxVR2G0qTk2U4OakY5ZgTOtTu3NcgJGOBedphpxMjOx7tSt9WZsXtmwCLS1NYiY2kr77rxmGiS+7LuDLyeopMLgYWaC/C2r/V1Aan4Te+NSC5taZGsP2zHns3r0biWQKwdAkqir8Im4fCsXRNWpHT9ovXIEAgrPVWB5et9mXwt/UxDGYcOCLETeimdnpTXnQNseYACMbD88BQ/oMhqokfavFwOWMn5yXkLMjEAhyljXptaVz++KrczgZrUFQnwYjm4Ry4S2oJG/bXoVhm/48BxL6ivJUH3ZWxLFlyxaEI3F09w+hqbZCqDbN1ZneKLrijQKEfOFruVPH01UJVLiBEyMu3AhPze8hl832UWz3jENPTIppk3J9BoVXCAOnYAkkSSAFLl8T1JngwzRnKn4yfb8mY/oIxtEvzwgwwoYXMHQYIxehdR8D2vbCrNq+oFbYsxF0ZK/hye2tYhLeUCiMy9duoKa2DptbGpBIJHF5MI4TwQAm0toUocuzbPVn8Fx9GrcjdhwesCOlz7LCNvsodnjGYSQjc8DIx8ApUBJOSQp5Z/M1AZCsWoa7VkIoQZgJXPLMl74mDJwnd/j4aZyMEYwSmHoKuPExbNFBmI/9A3TNOTd0tdgYV2oc27MX8NyzzwrS1DM4iu7BUTQG3GL8NEPMkVAMx/tNnI+UWdzyzGWLULbRp2NPXQZpU8WRATtG4tNgmECbbRQPeSdgpqPzNIM+g2ROMnAKVRK53OHDCzU+i2DBInwrSNb7Zs004/NjX+GrWB3CpldctHL6TWgVbdA7X8qbxWW0pekJVKXu4sk6FR0dHYhE4zh9cxAjGTc6vHG0N9WIFhc69C+7YzgSqpmXDZbhq98J7K7LosYLHB2w4bplqMUmbUSAoWTieTWjkC50a/e5tfa+ECBWMNZMMw4ePoFT8TqEDQ/M8ZvQbn4EtO6GUfv4gmDYM2F0Zi7hm088JFLMwVAIhy/0oNfZiTbbGHZUa2iqr0EymcLloTi+GPViLOVYMAP5VG0WT9WZODag4fTwrJlq0YbxsDcINZsQFb9cnyHnQlxo/Hchc6FbQbFqCz9fM834+NAXOB2vR9h0A0PT/mLzC9CrtuQ38qYBV2IUO5RreP6554SJ6h8cRldvFHfsnagwJ/CMf1xoDM1gOJrAyf4sjo+Xzg1dFYA8R4WCh6sM7G0ycW5UxeHeKTAMmGhVh/FwSRCanpwDxnJzUzJdIrK5Lhf06flGrBeaCwS/WzPN2P/pYZxJNGLS9AB9J2EbOgdjy3dglLXkBYMmqi5+DbtaS8WEipFYDF3XunEz4ccgqlFiRvBsYBTtTbXCVJEdn+xJ4OCIf8FgoN1vYl8z0BdT8Gk3kJye2rxFGRJmym6mRaXvXrmpe81RGI8nMJFSkLKVwqYqqCm1oz7gRjIem5dKfyA+44NPPsfZVBMi5Bk9J2AbvQh9yyswS/PPim9Lh9ERO419z+0WsXgwGMLhrqsYsDcjo5uwawoaPFnsbHCirqZKsPKbowkcGXSiJzY3dJUX3FoK7GsBQikFB++aCE9Pbd6CATziC88DYzmaQf81mlQx2bgPir8BHpcbtokb2OYcgSMTQjaTnglvc++aNdOM9w4cxNlUMyLwQBk6B0f/Kejt30LWv2nencyCkjvejx22Xrzw/F5hogaGhjE0FhYFWxsfHsInumiaGLLbUFMuohWmqb/sTeFAnzuvdmyrAF5sVXA9qOCTOwbETKYAmkyCEYJL1edpRr6+qYU0gw57aDyM3sAuINAGl8cLt8sNj8sD560PsavZjbGRwZkM7gPzGe/s/xjnUi2IqF6oI9fg6D0CvWUPMlXb5lX8bJk4GuMX8Y3OOrC5i4t17o6F7BDnEPyqN4kDfS5kKOicSuKuGmBvi4qTg8ChntnulGazX2gGweA8IdJMFaoZPK/+YAID1c8CpTUCBGoGAbH1HMG+Dg/67t6aM2H+A4mm/vT+AZzLNCOq+KCE7sB151PodU8gXbdzntS01AQ6wsdFdEEneK+JtuQdxvh/MJzGkT7g/BgrHLOND7TdexqBnbUqDvUCXw3qM4nCJmMKDI/NnAPGYs9cWujJMv2jYfRWPgP4m+FxewQQQjt6PseTDRpGhwYevGb88b39uJBtQVQtA7IpuK68BdVbgXjbd0REw2hnKrzJwBO9i4c843hx2kTRVHSdOQOn0wWnk08E48NB5NaJivLATIKNJu1Ebwrv37Y+ts1EtVvB3hYFfreKT7tN3JyQmmGiQe/Do6WT8NqxIs0g6WNCcVj3YbL+b2ArrYbH6YbDiKE9fRWlRhCJePTB+gzdMPB/b7+Pi/omRLVSQM/COXACzsluRDtegW7ng6CmFETTY2gMn8LuR7egra0NkWgMpy7ewNlhA33Ojuna0NQjerh/iyeBV1vTaG6cCgQIxpmBFD68qyDCmU9FLclEe0DBiy0qwmkFn9zVMTb1vCuhPQTjsdJJlDgU0V24Ep7BY8WTKYynbEiWNMPldKHWncWmgIJwcFxoxQNl4Lpu4H//9B4uGpsQ0/yAacAWugPvwDFkah5DvPKRGdOppUJomzgsWh150szQ7j9+AdfRgih/m7NUOjJ4tjaFx1vKRI5IcI54Bkf79Bm/4NCAXXXA7gYNp4eAQ706spaGxvpsrwDD51TngFGoz8hNh/A9S6pyirx1wTMIxu/eehsXzTbEbFMCVfU0vH2H4UxNYLL5BaRdFeKzkuBV7CiN4cUX9gnBijlsj5zDjcCevH7bq+l4rDyJZ1tdqKoIiH14933Rk8Lb16aIRKMP2NesiJrGZ90mbofmtpbWZXrweFkEpS4NnJZipTwjNyXCc1g3uSkK57d/+BMum5sRc1AzhHOAI9KPsoGjyAQ2I1SzC2oqisr+g2is9MNmt8Fht0M3GYqauFGyM2+flV01scWXwreadfh9JVBVBYqq4c6kig9vZxBMGNhVC+ysUXFqGPii35ijFTyTuky3AMPvts8BYzmasZLcFAtLDFoKWQp+GhnBePP3b+Gyshlxe2BGqCynlo6cgTfWg2RZG4ZdrdCHr0JTySM02DQbYHMi6axElL+TS06fVYVDR0dZZmoGA23qaZL8fTBhinaf3fXAYGLKcQ/EpgtPMjVlAvXpbjxWFkHA6xDzni/FZyz3OX1SS2T2V9bW5Xzov/jFLwrBovCnkRGMX//PH3BFa0fCVj4dyk4dU9VTqBw8AiU1iWHvVkyUduacjKxUy4+X9t6tAY9UGgKI4aSGgz3AEIHIs9Sk7uKJsigqfK4Va8Ziw8foO9jcwJUaRABoijl6l9vHH39cdIgUsixLM974r9/hurZFaIaM/3lQ8TiP5CRq7rwL1e7GWNlDGPe2ESbLOc1rObS0BMp/mc3CujQTD1UY+GadgcmMhs/7VdydfRqQhddM/bYqcQdP+KOoLHWLFs7l+oxcE0UBk4jy//iazpz7UPiyj4rgcUo8TlexZ88eMVNCIcuywPjVb36L67atSDhmzRTdaDZrIp7SoRlJ1Ie64MtOYLKkFROuVsQ173Rsuqjs57SL+uwGHi7P4rFKE5NZDYcGNPROTvfg5jNzJlCVuI0d7nGUeexCcMxzLefZrjQ9DK155xMEWQVkmobvZbWPhSoKv7W1VWzZEbLc6ZOWBcYv/+NN3LRvRdxRMQN8OmsgzgbY6UUz0qiPXUFVug+Kw40xZzPGbTWIqrIvKv+jncm1vTYD7b4MtgWy8LsU3Io40DVmw2ji3o+Drojfwq7yuGgX5RgN3r1sKqMwF8pNyUcu8I4neASBZocZZH5GQGSzM/dtaWkRwueWALA2shrLssD4tzd+g1v2rUi4KqbaaTIGYhYg5Imxh9aXHUdjtg/lCEGz2ZG2lSCi+hFTvUgrDujQ4FRNuG0mfHYTdR4d1W4DmmbDcMqJs0EnuqMajAXq4blCqIrfEg68pbZS8AxO600BNjU1ifqGtdInmwcofDpxdnZwX2qUldDxIe7Mq0kQCGyhs+0sBaxlgfGvv/pP3HRsRdzFJjQDMXaZLTIkwIYs/PoEqpUQKtUoaH4obLud2VqbCH3lNgUH+lIedMed6I/bkDYWHxpgbePhBVcnbmNfqx1NNeUia0tB8/ngTIdTwIx4pIlhUwTvft758gmZBIiVSGYMuHLwC/dbrulZCggz4YyZ2+F7j1/zgv7ll2/glmsbQlp5Xo1Y7C9sMFCqJOBRM3CpBhyqCUO1I2PaEDE0TGYdSBKAZS7V8dt4easPe556QjhwmibaefmYBp4/73wrKEwiUnNY+CIAdLyyH3eZp7GsnxWsGbSdv37zv3E64ke/rVkkBmfMEpQH/B6oDl/Ea49UYt/ze0XEQ67B2aQ5ioldhIx+CE5VVZUwPSz1kqARkAe9FAwGFYkTyR+7cAdn3bum23LyDV1a+0tzpYKoS9zA3z33CHbv/uaMXScnoK+gqaJj5vTYBGq9LQWDwQvgxf37G79Bd98AxlwtSNse/IW59Qj8qUE8/UgnvvXCPtG/W2zLssDgRdJc8TELPf1DoivQ2uoop3woZDs1zkKOt1hkmzdSAJob6vHk44+IOH+1Qs21BnPZYKz1if41HG8DjHWE8gYYG2CsIwmso1PZ0IwNMNaRBNbRqWxoxgYY60gC6+hUNjRjA4x1JIF1dCobmrEBxjqSwDo6lQ3NWEdg/D+pHCeti98IBgAAAABJRU5ErkJggg==&quot;&gt;&lt;/div&gt;&lt;div id=&quot;SDCloudData&quot; style=&quot;display:none&quot;&gt;&lt;/div&gt;" style="text;whiteSpace=wrap;html=1;" parent="1" vertex="1">
          <mxGeometry x="880" y="760" width="100" height="110" as="geometry" />
        </mxCell>
        <mxCell id="BVkSgA7eZD7vXLeDeiiQ-66" style="edgeStyle=orthogonalEdgeStyle;rounded=0;orthogonalLoop=1;jettySize=auto;html=1;exitX=0.75;exitY=1;exitDx=0;exitDy=0;entryX=0.25;entryY=1;entryDx=0;entryDy=0;" parent="1" source="BVkSgA7eZD7vXLeDeiiQ-28" target="BVkSgA7eZD7vXLeDeiiQ-62" edge="1">
          <mxGeometry relative="1" as="geometry" />
        </mxCell>
        <mxCell id="BVkSgA7eZD7vXLeDeiiQ-28" value="&lt;div&gt;&lt;img src=&quot;data:image/png;base64,iVBORw0KGgoAAAANSUhEUgAAAIMAAACfCAYAAADaiWqGAAAAAXNSR0IArs4c6QAAIABJREFUeF7tfflvm9eZ7kNSJLVa8ibJe707XhJv2bemySRpnGR6Zzpp0YsObjDAoL8McHH/gAIFpk0x6YIELVJ0T25um93ZblzHidPE8ZI4TrzE+ybJsnbJ1kqRosTBc8iXPjz8KH6kuInhZxOkyI/kx/M+5z3Pux5HKBQKoXSURgCAowSGEg5kBEpgKGEhOgIlMJTAUAJDCQPxI1DSDCVUlDRDCQMlzVDCwCQjUFomSvAoLRMlDJSWiRIGSstECQN2RqDEGeyMEoChoSE0Nzfj448/Rl9fH2bOnIlFixZh3rx56lZfXw+Xy2Xz0wrztBIYksilra0Nx44dQ0dHB2praxUgmpqa4Pf7lfB5c7vd6ibA4H1jYyNmzZqlQDNdjhIYEkjq1KlTOHr0KHp6esDArtfrVcJtaWlRgBgZGYmCoaysTD3W7+VxZWUlGhoa1I3aQwBSUVFRcBgpgUETSSAQwOHDh5Um8Pl810wuhwPl5eVRMFAzEAwicNEQcs/nnU6nuslz5mNqDIJj9uzZqKurUxqEmofvzddRAgOA7u5uHDlyBCdPnlRaQA6Hw6Ee8l4Hg5VmoLB1cAgYBAT8DAKDf/Ox/rc8R+0zZ86cKEAIjhkzZiiQ5OL4SoPh3LlzShOQF0xMTEQFr4NABJdIM5ggkOXCFLYODh0QPE//W84TEPJ1AoKagxqEwJBbppearyQYDh06pEAwODiYFATJNAOF5fF4osuBvizoS8VkYBDA6aCQ76Wm0l+X56mFyD8IjJqamhiQkMymc3xlwDAwMIDPPvtMLQccYGoCGWQrTaDPTHOZIGcYHR1VM1o/dOtClgwKRucQAgr9u01NIa+Zy5XV8iXXKfdVVVUKGN/85jdTxkPRg4Hsn5rgwoULaYEgkWYIBoMYHx+PcgxdgLoWkPfLckItQnDwxscEiznzTZAJWK3AIJpDl/z8+fPx8MMPl8AgI0CLgJqA5JCHPmj6rNSFOJmmMDkDP5PWB0Ex2aFzAN3qEG0gYBFfhXmvAyMRKMzvL4EhIpxPPvlEgYCCIgD0NdfOcmAuD4k0A4U2PDycFAzJgCIAtPJVyHtFqxCQ8pjnJ+IGX2kwdHV14cCBAzhx4oTiAiYApgKCRNYEBUMw0BOZ6UO0gRVQaH6aFocsO3yNFsZXEgynT59WILh8+XIcCMwZbnc5sKsZqqur0d/fnxUwJNMmpsYQc5ZWBf0UjJl8ZTjDp59+in379qngUTL/gJVwzZlnR3OYnIG2Py0UeiIL5Vi4cKFyWC1evLi4wUCfwN69e0EgCBfQBc3H6Qg5kSYwNYnpgaQD6OrVq3kDg7PMg/LFWzAxNorRS18oPBIEdE4VLRguXbqkwsZnzpyx5APJhDnV5SERZ6A6ZhArX5qhfOv3UTZ/PRACAqd2InB2N5YtW6Z8DNQQRbVM0ENIEJAcmvECO2o925yBQSZeW77AMH7bfwAVkfC47ypc+57GqlWrQKdT0YDhgw8+wIcffqgcOsIHdPWfTBOk+rpdzWFyBmoGHmJejo2NKXOW1yzXnU0u4V90G/wLb1GaoWywFZXHX8Lq1asVGBYsWFAcmmH37t3YtWuXGkfTM2dyhMmcRHaFbBc8JmcgQOfOnRv1IkqWE7UYgUFnlACEj8VBJfdTBozTiZGZa+GvnIsZ7Z/CFRzG2rVrVXS1aMDw97//HTt37owCwSSGdoVnehlTfZ95fqKope4sop0vHkQ9nM1r0cPX/GxqPt4IDt4Y6yB4+Bx9F/J4cu3iBBgeiURc169fr5JwisbPwCVix44dMUEk0yVbCJzBzHSym89AUPD6zSgmhS7cSFzV/JvgEA1DkPAmmsZ0hxcdGD766KMYMExVM2TLzyCZTpnOZzAjlrpmkGirSai55BAgopmKRjPs2bMH77zzTlqcIZd+Bglh6wEwqxQ3iSFI4qxVCFvnRibXMQNsOjh4rmgPahB+NpepogEDPYtvvfVWwXMGCoUqW4SgL12izfQYgq6hZKnQcx70AJQAR0ip3WilAKVowMBYw+uvv17wnIEzkO5wgsHuYWYymbzBSvg6+dRBIkASEPFe3l80YKC7efv27RnTDMmsCLsmqGlNMFDFYppk+Qx2gaKfJ8udCRYhnpI5JX/Le3mNNHeLBgwHDx7Ea6+9lhZnMM3JdKyOROCxik3QHU1Gn89DB4xkVn/ta18rDqcTU9ReeeWVjGkGuzM/mQax8kB2dnbmPIQ9GfCWLFmiYhO8L4rYxBdffIEXX3yx4DkDy+eYYk+rIh+Hs7wWNZv/WUUtBw/+RV0CA1XMaSiaqCWzl1944YWMaYZs+RmYQMKIar4CVWWbv4ey+RtUbCLYcgDBY2+o2AQznYomuYX1jX/961/T4gy59DMsXboUFy9ezBsYAlv/DahupN8SGBuGZ+9TWLdunYqVFE3U8vjx43j++eczphmyxRlWrFiB8+fPq6hlPo5A3TIMrwynw1e2fgxv++e4/vrrVQp+0QSqvvzyyxgwmOZTusJN932yzJjWBBk7TUtmYEm4XcLXU45I2kKXE8HyOoy7PPAOdzFahY0bNyovZNGAgcWvzz33XMY0QzIrwS5ITGuCcQCmmElpnTh9dBcxQSGFNhKllHsBDt3JUpAj50usQVzNtrABYMuWLerUovEzMOP5z3/+c1qcIZd+Br0kX1LVJTZgegXN8jozGGWm9utRWglK6TEI0UQ6wAggNgnhZxcNGM6ePYs//vGPGdMMdmd+Mg2Sbn8G04toFajS3dRyvQIQPUKpJwLzekXrSDSTLnJqrKJZJlgm//vf/77g/Qzp5jPogjdBoLuh9aUhUaDKfF7eUzSagQWyv/vd7zKmGbLlZ6CzSReG/tiMHZidXYRfmJ1ezGyoyaKViYBQVJyBtvtvf/vbtDhDLv0MvEBJgDXD1/qs1rOWzJC2SQzNWIq8VziIWFZm3oRENqWqu2g0A1vk/OY3v8mYZsgWZ+DAM4SdqailThp1UEz2vA4WAosgoclbNJyBLt5f//rXBc8ZshnCtmtKmuexloM3ekeLIlDFItpf/epXGdMMyawEu5rDtCbYQoe9H7JRhW0XDM7KcOOviZH+qH+BtZZFE8Jub2/H008/nRZnyKWfgTOQjULzFbX0rvwGKjZsY0o1hg4+j2DrYRWgIkiLJmrJAX7qqacyphnszvxkGsTUDAwGtba25i1Q5br7/8BRMSusREb6EPzoFyqEzerwoolasn7xF7/4RcFzBqpiaQ5qV61n8jz/pscxUVWPEEJw+XrhPfSH4qu15Dqsg4EDqJuMyWawndfTMUFNzZDvqKW/bimuLn1QRbDrmt+F98p5XHfddSqfoWisid7eXvzsZz9LizOkI2Q74OFSY0YtWfFMbynNy7wd0nowUl7HfIaickczLPzkk08WPGfgLKS39MqVK3nDgvnFGzZsUFHUonE6sU/SE088UfCcgUSNael69TWFYwaYEm01PtkW5HqXOrvv53lcIqgdiwYM7JOkgyEbnCEdEzTVqKV4BM3AlLmU6cuUzHTJidBnvhm9lNf0EDfBwOssGjAwc+gnP/lJWpwhHSGnyxms9pswm35KLEICUHo42+padeDoQEgU+yj6qCUJ2Y9//OOC5wx295tIN59BQKprC6vHVoSlaDQD3bvPPvtsDBg4A8glSNbSdSKl+z4RimlNiOfRatZaBZd04eqv22Gfk4Wr9fezZoJmZdGAgVFANuwwZwY1BtsA21Xrkwk/HRPU5AySp5ib5Fc7kIHiC8uXLy+e2ARTudjKx0olsiiX6tmM+8vf6QjZLrhMzUATTjKj7Ykq+2exNyW1AgExraOWLMXXE2Fl6FjGdueddyoAcLsA1iro5CuZMKe6PMj7Tc1AlUwHWabyGdKBSvnCG8DmoGwKOjEeVJui0dyd9iFsBqfYCNzqePTRR5UNzcyi/fv3x2gNu8K2e14icJmagdFBxlHyVYXtWfcQPCvvCZfXtR7C6KEXVCUV0/endQib2waSINKjZx5EuqR78TVuIcCd5aYqXNO0S6ZhTM3AWchwe75C2KE7/jccFXXh4fIPAh/9XGkEOsOmdQibFsRn53uwu3kCDv7jrnH8H9nlbVtDt2rNK0sFySQBIZ3PrDhEpsCSyJrIdwh7ZO2/IFi7WGHB23MS3rPvqKgl99Gc1iFsCvXguW786Vh4cy6wNV4ECEtrHfhmfacqZTNJJc9lWzwSOdY8EiRs7k0SmurMT1Uz5LvwNuidhf4Ft8Htv4KajoNwjAeKo/CWqvbTs13405eIgoCAcDmdWDIjhIfquxQYrGx63QaXxzyXoXDep7oxmV3OkO8QthW3mraFt8wSYlo8LQQeCzfcgedOOCPLgzMKCoJhae+HamsBVgzRtcswrbnHo75Fj4CCQCDJk6YaUzFBTc7AXgis/sprCNtAxKZNm6ZHoIpmGIkiTUOW3VOdy0HCc9u27+G5k64wCLh1MLmD06E0w6LO91WH+ckO5iTS+0ZiJ02+da1BgkptQXCkYpom4gxr1qxRYKZXVK+H0N3PfK9ENc2yOr2zm1XXWF6jPC8E2kyNl+d18PM9BeuBJADoOWTjrkTMm4Tn9of/J54/VRbHGZbUhLCoKzkYdKCwrxEHhCAjSHRQsLBX+EcqoLDKjmYmsh6y5udZhbDNiKOcx2sWAet8SL9efdniY7NJqHy2/p6CAwNn4htvvKF2j7E6OJCsGpZd472Nq/H8aXccZ1hcM4Hb5gwiNHIVvoFeZYLyRk3DW7I2OgQDQcGO68oK8/vVPpepWhumn4HfSy+kHplMFLU0o5fy3ZmotdTBIeNcUGDgxiEEAtdqOSh8XiS1wIIly9Dh96LL50SPD+gPOHF1FBgNueM4Q9iqcMLldKDGM4EaN1DjCaGmbAK13gl4gkOYGOnDSE+rylZmKppVo86bb75Z9TziwfNYrDMVzZCL3tFWGkK0g97fQUrz6RXlUTBg4KyTWkleGAXA3LyxGYtxediJpgGgZTBMEGkxqHXPEd45PmpSOh0RzhB7HkEhJqf+PhHq0mo/FleMINh+DBfPngJL9WRpYjHst771LWWH8/zPP/88WgBjBxRWmkEvnDWLa/XPpAawmsES5JLtFzleIlgpsxdgS/l9ssAYx7ognE46EJgjSFOnq6wRR7oduNAf9h2IwHWiCGcCUET9DRGwRECi1C69UpH3RdVuBFT8e165H0sqRjDReVxtzMHGYQTCrbfeqmYPeQP5g93lwuQMBJksE+YMthK81VKpcwkRsjyXqA2xntkknynv5S40BALN3rwGqqh2f/nLX6rZdtttt8G98Hp8fNmBtuEISYoIjyCgJphUM0RAQz9DrNDjNUP4Y8NgcTod3L8mTMoi1gifn+UOYHH5EOaEuuHraVFmKQeQrm2doIlQrTSFqRnkXAlUiZBMoZrPT2oSTfHFgolaPvPMM8pncOOd9+HUWD0+71T7CsUJPZlmCLuhrwldOIO+jMRoBk3oAgpdUwjoZpSN4es15xEYvqqAQxNTj4AmA4WpGTJdhZ0qDpxl5ajcsA0OlwfDJ3dhYrinMKKW0vz7xnsewt/aa9DlC4PAVOcUlszkyTnDNT+Dfl4yzhCjGSJ8RLjF6operHY1qygjn+OyIW370uEMXHKYvJuvqGXZxsfgWbgFEwhhouc8Agd+p/wstM7yGrVUvZ5r6rGjvQY9o7HLgMxsXUuEl4przqW0OINBQGNBc42DqOedDtxdfR5VY72KyBEE7ERrBwRyjlU+A03cfEUtx2/9D4TKw1XYDv+A2sqQIGDUMq+9o9/8/zvwRvtsdAfCfoJrS0FEE0TWcAqFq7nSGJNZE7Y5g3xXhDPIdxucYZ57CDeXn4vOYi4P4olMtjzI61Zd5fO54+3Isgfhn01TOYTyy/tR0XZQEUchkXkhkCw+ffVILz5sDc9AU9im0DPCGYSA0pqwwRk2VbZiXqhdkUaydHpDzXZ7yUBh1VWeTq98dYgNOV3wzVgKhIKo7G9SGoIWHK8zL+2CqSJ37j+KP51wIsgZr1kJVpxB1xjZ8DNYcYYqZwD3Vp3E+Fh4Xwg6wghguyZlIs3AGAi1S77AYEU4uXsdiW1eCm+Z6fPHva3Y33nNBDRNx6lyhvnlAQyMuzE64Y7VPEn8DEIcV3g6sabsUnQXWm5hoKe52wWFqRnoSud+E7mOWoprWzrT6s4uXhP/zgsY2Of5p3t9uDp2be1Oyhk0P8OS6iCWV/mwYnaZckwdujojLjZB59E3ZrSoHxmAG4PjnuhtaMKLnmAlxuBJ6Ge4u/wEqkJD6nUSPl5zKsQxkWagy5dgYGLNVA7+Lukwa95T4PKcCJ3XbjYHDftYwryJt5y7o3lBL7x7AP/3TNm15SEFzvCNxiHcvqRC2cb8Ic/tbcHhgbq42ESjd1SBQXfD6qFc/vje8Rq0BmvRHqxDIAIMPt9YNoCt7jNRfkCPI9Pn0kmpt+rcQs2og4GfK8JjfgX/5r1sZ6g/lpI7EazujdS1lYDRjI6aXk8dkDkHA+3rZ3d+hu1NugVxzUqYzM9w+5xhLHW0Y9u2beo3cMY++3Ezvhioi8tnIBjuqWmOZizJ4MiP1wduwulGZ7AWXRO16J6ow/WeZjQ6w+ly9BTSH5KMKCZ63bQmmIXMjm88ZCc5PtYbhcss1u+tBB11kmmz2wSB+but/pYxyTkYSJx+/+4R7GwNzwBzedD/prNI9zN8Z24Tdrz5qvKfP/LIIyrRhWA4OjQrLp+h0TOKe2Y0R7cG5mykLU1B6LPDfDwUqkC141oWNd3l9JDa5QgmKKyqsEWN81x97TYbh1vVW+pLlRnKtgKMAFr2yNY3X5fHBKhEh3NqWlKAv/rbl9jX7dWAEA8KxfM0P8PCijHc7DyJ999/XwGZZhDDyyf89TgyNCuOMzR4fEoziJr84IMPoiCgL57A4ABwIAQQViBhgo14CzPBGVLpHT1ZPgN/l75fhWw3wHveRPhmsY7+GyXCSXDS15BzpxMH47c7Pse7bQRDBAQ2OcNjcy7ib2+FtyvkwQSU2Tf9M44Nz47jDATD16vDpiAPAYM5w5kXyeorchA6XnQ1yggl97HQwaIDwup5O5pBNIAsE3pImwKS0LX8Tn3vCRGg2YxDj0rqYWudNCYKY1NbMl8k51FLIvYPb+/Dm62ViTWDEXWUpeKmukG4WvapXEgBw6wb/wlHh2dHOMO1fIZ690gUDBQaVT0bhzI6mmiGU1sQGAQZBSU5l3aEbpczcDIwPkGB6/mMJrETIUrOgpmUwu+T56Kzw+4Do6cTNSXNSrYAzOkywev9y9sf4PmL1TEBKbt+hv+1oBlHjxzBmTNnlNBmbv0fOO4LV0/pdRMNbh/uqroQHXARFpNbyR/0Mn0rYfOzaUEkErJdDmFyBrEMqL51AetbE6UtZBtgcNU0ovqWfwU81fB98QoCbUdVIjAnQV5qLffsO4AnDoUzmsMCTM4ZdLDcVdeJysEmnDhxCrNu/Ba+9M2N4wz1ZcOY3fS2AokEYvTZRx5AryJT2XQXsyl8u0K3qxlY+0mzMl9RS9eNj8MxZ7mqtQwNd2N8z1NqiST48xK1pAPn5/uH0O2PmJc2OYMetWwsG8LqqkFcCXpx0t8QxxkEDFzzeXBNlM7petMLCoWp63ZS4TPhZ2C+IUl0vnpH+2/6AVAerrV0XG2G5+hf1RJBMp1zAsmL4Pr95z0X8OmVamvNYHCGyfIZ6t0+dI9XxfkZ5riGMKfpbVVzoR9MhycwVq5cqSq0ZUazBpOgMCuwMq0Z+P1covIVwvbPWYuBxV+H0z+AuvPvwDXal//e0R98tBfPnS5D7xgzmyNJLcZyYfoZUslnqHcNY+bFN1W+otVBy4EFpwSFVFVR8OQTqWQyJeMUJmfgDLSTqm9j+U/7lGBZDRwTPrgmguozyBVkkuScQPICmIH86v6z2N070x5nSDGfYbZzEKsHDyjBdnZ3kXpbDh4HQUAhywCDSNQouuWRTOh2OQNbBZDEJqvbSFvSabyRHVtoSeUlhC3Xy/yAt04O4fBwXVbyGRiaXuZow9zgZbSdO4729rbolkDmmDFyx4RcLh3UEGT70v8hk34GsnYGqnIVwpa4B7WfbD/Ex/K3ZGoXxI63b7/9Nt7vrsPFUeEP8TmQmchnqEcvGtGNwKUj6OjqQF9PT0wQi+CgSr/vvvuUV5IHnTcku6nkPJocw4xNZDKELe5o2YqQAhWB05kmQhfgi++C12i6snlOzmMTVlqM3sE3mzxoDtTExCqmwhlisqM1a6U85EN9qBsVg03obTqGtsuX40DxwAMPRGstuVSwcMasVbRLLE3OQOZOXmInn0HPQRCBU9i8ibAJADmkZkKErYPAjFtYyaEgwMALYy3CK6cCuDhaC0g2tJ4DmeG6Cbo45o23orL3OLqaT6CrszMGFAyE0TPHQaQ/gpZGJmITOhhE2CJY3ougRejCY3Q3NK/DdEdzDHWTWTiMLnSrGIz+esGAgRfFRl07DrfgjL8BV8Y9MWV0GcmB1E3WSA6kKzSOeeOX4O48gvbm0+jp4mbhUC7je++9N7pkkN9I0CcVUJiagQSSsQB6GWW9liVJ39PaLKqxUu1WUcvJQGD1WsGCgRdG588XX57CgctBtIXm4GqQjqns1024xkexMHAO/Sd3o7kpnChKJ9Vdd92lHjOuQQvI7vIgA29Vayl1m/ws6aWg7zlpRiv1ULYZKDNBIt9rLmtWGsJcKgpKM+gXx+TTs+cv4vOOIDoc9egKVGgFtrHlc3EFuJPVWiapm6j3X4Dr/Hs4deqkUruPPfaYClqlWlYnQku1q7xVDkMiMNjNZ5BxNYNh0wYMcqFMLmFrv88uDaPb1YjLYzWKU6gZYVZhZ6huonasA9UX3sbx41/i9ttvV04ZHlJNlUoUM1kVtph+VpphsnwGXUMIV0iFMxR8fwYrhivPcXc6OpC+aOpFl2seWoKzyZiioLBVa5lC3UStrwmhE9vhcbtx0003qcugtqIlMBXOkM/+DMk0RMEuE4mAwbAyQXH0XBua0Ig2xzylKcJld+n1Z0hUa9lw5TOEWg9i69Yt6nIYv2BDkUxqBqvNz+1yhigvqahAZUUlysu9aikdHhqK65U9rTnDZFpCXmNOw18+acMl9/K4fIZEfoZk/Rlk+ZHwekPPx1hePaJ89zykt5NdIpktzsAkId78oTIMTHgRcFXCMzaIeXVVuH3reuXypjbVeULBcga7jSkmAwVV9m92nUKLe3lcPkMm+jOQk3hHO7Fq8GMV5uVgSrMOmZXJQDEVzqBbGjpZJJllsItFQn3L/xHe6lkoc7vhdXvhQRCeU6/ikTs3qpZDzCA3l4dEoMjbMiG5hdIvKRlqrUAhYGj1rIjLZ6gd78OYqxoBF62Q8DKi1K9UVNmotZR2QQ3tu7BhQYWyKnjQQWbXI5lIM5jEUYpixNxMZFXwdZrfIxNl6Fi8Dc6qmfC6PShze9S9x+2BOzQG75E/4Z+23aeu1a52yBsYuGvMvn37VMseErQtW7bE2PB2lgl6Bp959yRavSvj8hlqgr24u+oijl+tQHv1Wkw4WT0Va4XIrJ6sPwPPqR48h7WOM6qHAQ/GK5itZIdIJtMMqXIGagXmg4zULsPVRffCTRCwgioKBgakvAgdfgHfu3+TaiFg5k4UlGagqv3hD3+o1jw5pM0em2ZSWyRznfJ9Aoa28lVxnKE22Idv1F1Ss7m9tx8Xgo3om3FdxIFl9GHQGnTEcIZItbY32I9VV95TSwUPmrp2S/MzzRlIYhn17FhwHyZmLVPBKC4Paplg3CKiHUKXD+PWug6lDckdZFmbbJLlRTO89957ePnllxNeF122LBPfvHmzSsXigOo/RoCiwLDzBFrLV8VxBmqG7yz3qZ6RtAAYWxiuWY722bdEARHt6ZSgP4O87nKEsKzlL2qnFh6ptABMphlS9TMQDO3dfeic/3Vg5tJrmqGMYPAqU5jaAj1nsC50AnNm1iruYI5fQfgZmHP49NNPq/7Jdg8mbDJVjcDgPdU1M3oJBhLIjso1cZyheqxHLRP0/+/Zs0dlOjPp0736H3Bl5g22+jMIZ6DJOv/iS9iwcpG6ZM40Kc9PRiQzzRmoTekavzJ3M3yNWyOaIZYz8DcHz76PB1d5VcsgyfI2iaQ5/jnXDBQM+zk3sRF4guwjuyAhKBwr7kF75Zo4PwPBUHniJaXO5WBUsGHTA+iZe0fMep+MM1AT1Z7fjlvWNKqPMpt8TeZ3SKYZUuUM/C7OdF/Ije4134PbUx7HGdwuB8Y++iX+/V+/oyaCGeEsGM5AFfvk9oNYVj6Ey2ePoZ+l6WmCggGf8nUPoqt6bRxnqA70oPJkLBiokpdsvhed8/8hFgxaH0jTzyCBoFlnX8DW68KbdmRCM5ggEGvCTmyCuRBqi8aKhRhZej+83oowgfS44SlzA6d24Pr6EBbNb1AOumQaQV7PuWYgGJ545QAuupZgIXpQ52+H68p5DLGWgIQyBWAQDN61D6Czem0cZ6gKdKPq5MsxmoGOo+o19+JK/S3R7nFhYVv3gdRbAs498yw2r1ulxo1qWi/GnYpmmIwzJPIz8PsIhhF/AEMBB/xL7oJj1lJ4fT0oa/kQC2ZV485btqpYilmyPxmRzDkYqOL+67VPcd65OJoIWxMawJxQPyp9bXAOtmGE7tTR0aTAEDB016yL4wwEQ8XxF6PrJQd9+XXXo2PefRivrE+JMxAs807/ARvWhZuKs8+0bHeUa86gm7PkDzQ1R/0BBF2VqPI4sGzJQrA2g5NOz7+wox3yAoafvvqJ0gxWFVUzJvoxc+IKZvg74RhsR8Dvh2/UhwDBETkk8YNg8Fx3P7pq1sX5GSr9XQoMnEHlFVWYvXQ9BmbdAF91GISxUT9NMxh9IHmee7AZywb2RaOXx44dU2lr+fAz6N8pj/XkVqbpESTTIp+BmiFBPtruAAAHH0lEQVQKhiT9GbwTPlRODKMyNIyKQB/cvm6ERgcQHA9ifCyogOJecx96azfEcYYqfzdqLu4AZi5BoGYJhmpXWbYOTNYHkl3hKpp3YVNDSKWTM8+QzTuSuaHl9Uz7GWJBHAtq/ZqsloNkXl6a4Uz3S/VwhKyS8Gx8CtfaJ17ej2bPstRqLSN1Ey6Mwz0xCs9EAJ7QKLzBIXTXro/jDJWjXQi4ZyDkqYppIxwmiPb6QCoNAmDWmedx4/oVCgCMCTBAlmx5kNeTWROp+hmE0Jqg4PdNNZ+B1tb3v//9uM9JJtYMgSG1/gyTVVRlOp8hDBjA03YAS8YvqDRy1lQwpsKlZ6qaYSqxiWtu9HjNYEcjmBpC5jWXPprrjz/+eDL5x7yeNhiYR/iTl/bhUvmKlPszJO0qn+F8BvdIF+a0vIUtm25QGoHeP/ZskM06CoUz6BFNXUrJXPpc8vibWBfCezoEmaz7ox/9KHdg+CmXCe/ytPozTLl3tM0+kE620z37Bm5YWKE0AlUogz4kj0yhpwfUbLZhZWLmmjOYmoHXJDOfxJJBK2Zb8UbhkwfRY8nn+frWrVvx7W9/OzdgoBv3P1/ci7bKcDwhnf4MCXeisZ0DeS3b2tLP4Aih/Nxb+Je716tNOWhKstSOjUEZN+HfDICxiJaDKWu1laaYCmdI5GcwE2HNHEhd+JzxAgDeE8iyPzhfM4/vfve72LhxY+7AwGWitYJh5xxzhmT5DOy+RnJ6YRceu2eDCpbJsXv3btVcjGYtVSlNOLqlRUvQvEtFM2SSM4g24EynwClkznzeS6tBXq+V8AVY/AzGfX7wgx+kBAT13elaE4we/vilveioXBWpnEreOzr7dROqyTrcfadRP3IaD9yxGQylmweLfHbu3KlAwNlHzcBwtmgJAkMfXIIjmWZIJzZhCp+CpvBl5vM6qPKtSvh0LSbbNjIAyJuk9qWKhrTBwGXimf/3Onq9C9FXsRhBOFWWc1hLxLbzyUatZWwjcibQAt5AN9D6OTY2OlTh7WSDwgF+5513VFicWoJkkkJgzqFoCfKLTPoZxJzkzKfgeU/SRw8jlylaALwWPcVNN33lMZc4LnsifNnUNVXhm+enDQZ+EF25NNG4Dh/vHsNgxQKMlDfCj/B+j+Fay2t7RmV2vwkoAJBHuvtb4Oo9jpXVftxwww0q28ruwWjgrl271Ayk8CkQ+h8oOA4y1TN/SzLNkMjPwOsg2+fni/qn8LlEMRRPzUThW0UkBYgENTu4UfhMzKEmyMYxJTDoF0Q1y0GkL/1Utx8j7tkY8c6Fr6JBDWyIzpRop1inCirJNseT102oLciIqWglFjcyc410ouzqRXiHW7GqoQrcB5rb+KVz8NrfffddtWyQkRMAzEJingVnLIVGbcHlhM42asVEdRMEBWe3NPekBuDfBBo9g1yKrBqD6aSV7nkm4HD288bmG7k4MgYG/WI5EIwIEhhqY/LeQXT0+zAcCGHcXYVxVyXgqYTDW41xVznGyyox7vBi3OWJy2coG7oMz9gQnIEhOIPDKIcfDZUhLFswV9VQskpKejpNZcAoNJJLmpwUHDUBgcEyfgqTs5H8g254+lj0DrFi9knBLa9DWv3LxmaJ8hcl1M1GnvwtkvhjeiGn8tvsvjcrYEj05WTBKjV8YEDNDq7bvOftQE8FRufdHBeb8Ay14dEFfaq/IW9cL7N5MEn2wIEDCgAEBHtG0QSlNuB38zlmc1PlU2Ci3gkIAoazmkCx6uiim5IUOme/CJ+gyfeRUzAk+rFM3Pj564fgm8+8xnCSK9cFLgdlg634xwVXcP/99+dsrEgiqRFk2aDmIYCZVyBbClCwBCeFT63C1+MImdZZhUsE133eqNGofQrtKCgw+BfcGpfPQDA8Or8P7MKS64OWBnM8KTgSQM54agIKnjdqOskMN0PSJJ+c+aL6xfWd69+QyvcVBBiohqkZRhfcGpfP4Bq4pMDw4IMPpvK7MnYuSSR5Au+p+nkTRxB5AC0FAoHCpvB54+xP19bP2IWn8UGFA4btnyGw6PY4zlA20IpH5vfmDQwypgQEnVW8JxjIKZjtzZlP4dPimO5HQYCBqvhnETCYnMHZ34JH5vXioYceKoixll1uM+XoKYgfFbmIggHDk68dxPiSO+M4Q6GBoZCEl+lrKQgw0Fn1XwoMd0StCbXPPd3b/S14eF5vdD+rTA9A6fOujUDBgOHn2w8CdYuVSalc2ARDJLXtwYaetDbTKAk6tREoGDAkK9OTne5S+3mls1MZgYIAQyoXXDo3eyNQAkP2xnbafXIJDNNOZNm74BIYsje20+6TS2CYdiLL3gWXwJC9sZ12n1wCw7QTWfYuuASG7I3ttPvkEhimnciyd8ElMGRvbKfdJ5fAMO1Elr0LLoEhe2M77T65BIZpJ7LsXXAJDNkb22n3yf8N12/FblZn8JoAAAAASUVORK5CYII=&quot;&gt;&lt;/div&gt;&lt;div id=&quot;SDCloudData&quot; style=&quot;display:none&quot;&gt;&lt;/div&gt;" style="text;whiteSpace=wrap;html=1;" parent="1" vertex="1">
          <mxGeometry x="1000" y="640" width="120" height="150" as="geometry" />
        </mxCell>
        <mxCell id="BVkSgA7eZD7vXLeDeiiQ-67" style="edgeStyle=orthogonalEdgeStyle;rounded=0;orthogonalLoop=1;jettySize=auto;html=1;exitX=0.5;exitY=0;exitDx=0;exitDy=0;entryX=0;entryY=0.75;entryDx=0;entryDy=0;" parent="1" source="BVkSgA7eZD7vXLeDeiiQ-29" target="BVkSgA7eZD7vXLeDeiiQ-62" edge="1">
          <mxGeometry relative="1" as="geometry" />
        </mxCell>
        <mxCell id="BVkSgA7eZD7vXLeDeiiQ-29" value="&lt;div&gt;&lt;img src=&quot;data:image/png;base64,iVBORw0KGgoAAAANSUhEUgAAAIcAAACfCAYAAADTYsr8AAAAAXNSR0IArs4c6QAAIABJREFUeF7tnYmTZFX1508utS+90Fv1RncDTUND0wgCjYj+WITfTwgwBhcY/anhL8aYmD/AJdwV9wV1VEIj3AaNn86gMhKG4OCOLL1vyNY03fRGb1TX1llZVVkTn5t1klOX9zJfZmVlZmXni8jIzJfLe+/e7/uec77n3Htj4+Pj49LYGi0Q0AKxBjgauAhrgQY4GtgIbYEGOBrgaICjgYHiW6DBHMW32RnziwY4zpiuLv5CG+Aovs3OmF80wHHGdHXxF9oAR/Ftdsb8ogGOM6ari7/QBjiKb7Mz5hcNcJTY1ZlMRl544QXZvHmzPP300zJr1ixZunSpLF68WJYsWSILFy6U1tbWEv+9Nn7WAEeR/XDq1CnZuXOnA8ScOXPk+PHj8txzz8ng4KAkEgmJx+PS1NQkyWRS5s2b58DCY9GiRTJ//nyZO3eu+85M2BrgiNhL+/fvd6DYt2+fkMim88866yw5ceKEPPvsszIwMODAwYPPFCSxWCwHFt3X09MjCxYscA8ANHv2bOnu7o54JpX7WgMcBdp69+7dsmPHDgcC3ehwCw5lDvZbcPAdBQzA4LX/Hd3f1dXlmAWwwEgAhkc1TVMDHAHgSKVSsmXLFtm+fbuMjIw4pqBTebApGwQxB581Nzc75vCZhH2FHvye7yiIAItlF2UZgDfdWwMcpoVffvllBwrMhNZA+aDQ91NlDh8k+r/2WUGiPoo+t7e3O5OGKQIsOMM8YJ9ybg1wiDgwAIrDhw8XBEU5mUPNjAWBDw6Op6DgM0Br31tTZ80RwAEwPLe1tZWEmTMaHE8++aRs3brVRRqEprZjFARRmWNoaChndrQnlB00erHP+ZhDwRJ0PhYM+V6rCcTEESHdcsstRQPkjAMHoSigwJ9QQNhG9uk9DCR0tPU58E3GxsZkdHTU/Z29u9V/gCns//Ge/6EDedaHDw4/9NWODwKH/r9FAsf5wAc+0ABHWAu8+OKLsnHjRidc+Y2ajzGiMgdAAxjDw8MFO8F2Pq81qlEQqF4CaBQ4fAfwKMCCQOCDRk+kAY6QLtm2bZsDBaGodTJ9RggDQVTmoANgD8zLVDYbqShoVDdRYCig1EzxOQ+AFLQ1wGFahVD08ccfd6Cgw8rBFD5I/GiFjkmn09Lf3z8VbOT9rQ8cCw71YfgDZZmWlhankzTAISJHjhyRxx57TJ566inHEkH6RD6G8P0Eq2sU0jkILzEp+DSV3qxPoiwCcIhUiGAAyBnrc5Dn+Mc//iGHDh1yTqa9y8PMQlQzEtXn6OzslNOnT0tvb2+lsRF4PABDTgftg8cZBw5Y4tFHH3WhaCHRaqo+RiHmQIzC3zh58mR1wBFPSOvS9RJPJGVo30Yhtbd8+XLp6OhwjzMCHND23//+d+dPsBWrTwQxSTHmJEwhRUsApGRpK77F49J8wb9J8znXyvh4Rkb3b5SRnb+Wc845x5kURLC6BgchKKBAzfTDuCDpebrMif6vr3OQNAMcR48erTg2JB6XsXV3ipx1TvbYY2lp+ttXZc35q134i2Nal+BAn3jggQdco6uDaR2wqKJVVB8jqvnxoxV8DhxAQmb0DqIkfVY/aPpQE5f0gjWSWnWzO0R8+JR0b/+RrF271kUqRFJ1C47vf//7OWBw8b4QlC+qiAqKqN8LYw78DRxAQKJpe74LoFFOAYs+CHkBjj6rujol8MTjMty+RIZmrZCuE7ukOX1KLr744lxdSV2Cg+IaHxx+4qmYnEghcxMVJEFZWZumVzpXccrWediEm16LKqwAhgdhsWUfBVJ+AMXFeaKZjAPFJZdc4vI9nENdgoMKrHvvvXcSc3DBvhNZqNOjfF6MY+r7HFoJxrkVU8+hUrlNxClANQJT8YtrgHGUdQCQgkmfbW6n7sFx4MAB+e53vztJ0JpO5ijV58AZ1QSbyt35KsHyZWUVHDYHE8YYmCyr7WgEx36bzKtL5jh48KB85zvfCQSH7cgozFDOqMZnDk3Z2+SXdq6qlmpa9Jn/UJAoG9pz1JvA3gzqlPsRm77nczVR+v91K59TgPPtb397UvhabuYoxpyE6RzqH0Dr1gwoWKyfYVnA5kuCEmq21NCWBloQhmVj9Th1Cw7yJd/61rdCfY6oZqDczOIzh/oDJP2ibj6ILFDUkfQZQhnGZyG/sFmdY43u6tKsoG/cc889Bc1K1CijXCDxoxVN2eN7TMfmO6yWidSp9YuOec8wiLpljmPHjsnXv/71SWalFnUOZGqih+lM2UcBnfVzdHgDtaR1yRyA4xvf+Ma0+hylOKo+c5Cyx6RUI2UfBBpAAmuQkUW5rUtwIEd/9atfnQSOWtQ56ABS9q+88kqUG7z834knpfPyuyTR1iX9G+8TSfW7MbuAA9W2LsFBChxw2MKdckcr+RTWqPUcFNUQzlYrK5u88BZJnH2VyLjI+PFnZHTT/5Kzzz7bAaNus7KA4ytf+UqOOSxr1JLOUe2s7OiaWyWzYK0Dh4yPSevj/1NWLe9xtRx1m5XFhn/5y1+eFMqWmznKoXMwKBoJnVFz1djG2udJ39q7yPRJy+FN0nn4CTn33HMFX6hus7KA40tf+lLN6xyYFaIoQm8USh5I2KpYVgIw48l2STfPkpahlynxkPPOO8+BA02mLn0OQsMvfvGLkyq+arGeA31j5cqV7i5VAcsm0DQHYp91EJQCSd/rd1BbFWjF1oTQRmvWrHGVYHWblQUcX/jCF2q+ngOTYhNtvuxtBy5Z0co6vDY/EuQIW0ayAAJEvLcPGIv6EpzRugUHd+TnP//5afU5yqFzlDMra7Oxln14rUMu1Ewpo+h+3utrQAE46lYhRTv47Gc/W7f1HPmysjZ1b30WP9Gm7xU8/ud1Cw5UR8Bhq8zLHa2UQ+dQ5vATZZYFrLStoFATo7kS+5473/ovNm0QlrIPcnzrGhyf+cxnCibeypVQi/o/flZWK7QsiP2OCqrL8HWbQlGNsoKCi+9rBtYvIMKkoNzWLTgof/v0pz89rT5HOXQOOomajmJS9mFAsNGYL/Tpb3xG0v3WxBA54ZQSztZlKAs4PvWpT9W8zgGTcK7TlbIvxChBLMVcYjAHA67qEhzQ9Sc/+cma1zmg8GoNpM6xSbJdYq3tMjZw3JkaJsrV6Z/qEhzY8I997GM1r3OQ/azaQGomgFlyqXRc9i7mOpTU7gdlZM9f638gNeD4+Mc/Pq0+Rzl0Dh1IbecrLdYUlPx9prW87N+zwyFJvGVGZPyRu2X58mUuK1u3PgcN9tGPfrTmdQ7sOyn7ao2VTa+6UUYXXZIFx1hKOp/8jqxcucJlZet6fg7MCtKwLwpZz7zaNaRVz8o2d0rfihsl3b5Qug79QzqP76r/rCzM8YlPfMKFiUGKYamgKPV3Glr6OgcleeSBqJav3qYT7meHQ65evdrJ53WblaWhiVYUHCr6WIUwn8IZRdQqh84Bc5DT0NkAFCA2Za/DG/00ftj+qYBMs7J1nVtRcKAhWDOSL21fDnNTiFl85uA9NR1Uepdr85Ns/K8Fkr4P2wcwVH6vy1CWBkAEQ0PIZ1YKdWapn4f9rti5z1Um51nzJ/l8KJ8ZFQAWIP5rHzyAo+5nEyS3goagjFCL41aC1luxNR1+3kPzIRY0Qan6oNxLWBbWz8Yqg9VtboUL/NznPufCRJt0KqfPUQ6dY7rrOez15nsdZNLqGhx33323K94N8jlKNRdBjmoxjmnY/ByW/v2O4lwr9TnHwqycf/759ZuVpYGpBCNMrGWdA4eZzc6YXC7HtNT/0XVZyLHUrUNKDWlfX19N6xx0IEnCcqTsSwWD/zskfSIoxtTULTgYmsAQhenyOYoxJ8pefrSiKXvMX1U25iKdd44kO+dJav9WkUzaLf9FaA1A6hocTBtdyzpHNec+Z5BK8uyrpGXd29ygpvETL0jqse/Xf8qeu5ARbwxQrmWdQ1P2VRlIHY/L+Pr3iMxdkSWtzJgk/vJFWbI4O8q+bgdSc62MlbWNXos6hw6krlbKfnjxlTK8dAMaqiT7Dkrn0//HzX1e9yn7r33ta5MmnJ/O6vOoobHvc2Dfqza9NZCIx6V/wWUylmyX7iMbpSmTklWrVtX3QGqYg+Uy8Dm0wjvfMyElaqqdsiFqrqUYx9TXOQgXqzmQ2neCuZa6H0jNRbPqkhbu2o7WBgnaB0D0QaRj10EpJosbNbfCWvWAg9kPK7n5Veh2PAyTt8zIlD0zEzOlE/oF/gSdx0NXgNYkEp2jTGAbHWbQZaqIFHhNQxC6YWd9eZ1iIT0Gx/OzvFHNif6vzxwMAUCoAxxBeRTNjvJ7O87ET8jp+6D/UCDYUXJ6PsqU9lnXoK1p+Zy7ntWUWA6DVRCYz5w7jVHpdlAx4yx0rnA7+y7fsZPI20nm7WTzfGfv3r0uD4Pww4PlPTmW7XyAAjBxHmGVYsxJmM7BeWDj9b/smFUL6rDlSi2YLRtYdrSJtaDXVp63n9cUOPAJNm3a5NZa++c//+nS7RTD0FnLli1zr/0MYr6L1Yu2Fx+WwtbGZEkv7mKemVAFRuH4AIXpkLQzYBOmaqJIp5gEXLnmPrcsUGxW1jerYe9rAhzQ9f333y+bN292HUEnQLe89js/iMbt3eO/1gsPKmxRE6TPQUUygISpslnUB4mbhNT69etzIAEcMBrAjgKSYus5rJlQtrT7go7pM0jYDaWVZfqs831wjjVRz8EU1Lt373aNftFFF7lRVnYLung/iigGHBYIQaDQqQmCJj0BJLp2PSsLKEjwbQCPTfLpOflgDmMOO5OwX8/hO850vpoZv1TQdrTf6ZxT0KxB/jBKvoepq9pUk7/97W/ld7/7nVx44YVy1VVX5WyupbgwugyLGsJYw2eIKKCwtt9PlzMZ3R//+EenobDWO1oFvgMgh13yRTU+c+Dn6ET0vjNsz9u/YXwm9H0VC27/u/pfYbP+oI7ic2HGK55bIcT86U9/Ku973/smrZ7kO1E+OPKBJahhbYPaBrLmwzKF7rd0a/dNojQR5xf97W9/k3e+850u4sFXwcTk00d85uD47MO/0mP5HWvBWew0Tv45R3lftawsISiDjW6++eZcNGBP2I+/7V0YBSw+SPKBIh8YfObQ937j7ty50y1YDNDZMDt2OIRvXmotKxtvnSVdG94niY6zZGjng5J+aZNjwqoMpP7Tn/4kTzzxhFx//fWBpkTBEAaSqODRTlFwhHW2vVvzvQ4DB8dhubB3vetdzol75plncsJZkHnxmaPqWdmLbpPEsiuymE8PycgjdztzQpRW8bnPqbFgIA++RpAXHdT5YYxhxZ0whvFNhHZyGFgKfR5Urveb3/zGJatYOA89hgFKYeJY0OqQ1RxIPXrROyUzd1UWHGMpaX30Hlk8kZWt+IrUP/rRj+S5556Tt73tba9hDs4vCjNENS/WBET1LQqBI8hmwxxvectbXPiNRqMrIERhjuquSB2X4bPOl6GV10tmXKTzpb9K2/FdTlNCLa74itS//vWv5Q9/+IOLUKKwh5WJg0yOH+qGRSy+Y1ksWII0EI71yCOPOLFsw4YNbkJ5BUdU5iB0hzmqMpB6AuljiRYZjzVLcrTf3ZwrVmQHUld87nPAQWNu377d0fAVV1wRaF7yOaL5xKZ84LChYdBUi3zum5uwaAUJnZWu2ehgTCWmpVjm0IHU1QSHHxCwXLnmnSoaygIO9AHodNu2be71m970Jie6hKmhYUKYLw7578NCWQVJUEjrh5NBoSOlALt27XKiHeltnFBS7+R80DryiWG+z6Ep+0oMpFZlNWxhQZ0QVyeLq/gktQoOKBjPnSU+0T3ohHXr1smll17qMqV28223TXj5oauNUjSnos+WOYJCXAuWIOGLMBUllLsddRS7jOJIYpBOho6LZQ4Yp9SUvaqq2tn22X5GO6vqGuSHca3WDKpPV/HcioJj6dKluWmduSjyK88//7wDC8CBqlWl81c3DJLPg8yJBYU2iq8W+iDR75ERxvxxXpgQHuR8mDSeLLBOEw2olTksOKL6HDoFA8fSztXOtO95bffr/KN6vn6oHcSieq1BUWKQo101cChzKKJtboEOASSojdhim0bXGNy/wDBfw7/ooFCU75Bg00wsQh2mATPB8QAyzhkdEPQIAoeeT6HcCtcN6PTu1fOziwIHOcNh4FMHXiM/n0nDbqKaAAeaAHehzxwWJFrUwj4ttsE34e4CNKTK6STuJmJxnCcEKH1wZ2uNh67vjjxNVKDPMAPv1afgDiYUhbHwhxCAVCMJAkQQc5Tic3AeXK+yBJ0b1Ba63y/mKeS4+2DgmnSVBVs2STtpjQs3AuFsTTFHGEAsWKzwRadRdKMdTceT+CKZxZ3Pa/wXrfZSDxwQEarxsB1vBbMwlvD309AwB/Uepfgcpa5lb+s5tMPtuelKCHQ4r/XZZyhrltQno724HmT0qkQrYcxhgWDn89b9QUUu7LMhZ9hrbTyfEcJAEcQcmvIO8znItfhLkNu7O2o9h94EdBjtYENvG25zHkGbft9P0fvRWNBvdbRbxbOyfrQS5HNYUOjnFhxqVy2L+ICwIpfVL6IwRRB4LBh89rA+x5NPPpkbER9FIYU5YDCdzN73pazDzHEVDH6n6zkFIqXAznhzu8Q75sroKwfcNxlLw6PmmMMHhgWFrYTyAVIqc1gghDGKT9c+jSs4uNN27NhRVD0HnYF/hP/DpuYgyh1eChAm/yYuibnLpOuN/10k0SLp/RslteU/q5eV/fOf/+xCVsyKjb8tg4QBRPcHMUcQUyhjTCdz0Jmk7JHPMScvvfRSUfUc+EEAoyorUsfjEl/3doktumhiktpRGf/j3bJgfjZlj2NeUZ8DJfC+++5z6qIftxcyJ9PBHH6iLcjsFGIOIjDqOUgJ6DRTUXUOTAqOsx0fM3VGiPgP8bikL3yHjM0524EjPtwrbZt/4FIBgKPiWVlOmzXm8Z5f97rXTWIP7K5vRoJ8Dj9VH8UhtSDwHdN85kQ/C/I5uNvJrxClEALbSvSoOgfOH4AiVK/8Fpf0rGXyysqbJZkekK79j0jr0FHH6qi/VRtIzcQqhKFkZ1FC7SJ4fujqRy0WHPq6Uj6HOoWYRpiClRQvuOACJ6HrLD1Bjqju86OVqq5IHYBG2rPqK1I/+OCD8vuHHpKRdNpJ0pqr8FdDDPI/yu1zFGIS/Rz24A5//PGN0j9wSjJjY/LWt77VOXAIcwAmzJwok/iVYFWd+zwEHCRBVVisqM/B+ZDVdH7HukvksYMj0pwekGTfPuno6JLLLr3E3Y2qGBaKVhQopTJHIZ8ja07GZceO7bJj1y6hKqZ97b9K7OhuWb96qTz66KNyxx13uMZEveVRDHNUY+5z2hahC6ASKfGaZ95rHot9FVdIsdMf+chHXIExrx/etl+OLf0XkVhCOvr2yNz0EUkOHHZx9srFC6SnZ1FundMsi/CI5caVhoGjWJ1jjLyJA0JGentPyaFDB+XkqQE5cqJX0uhMHT2SXLlBmuef645/5D//h/y3//gPl7oH7Dik5GTIyvqJQfveZw4dSF2ulL1K8ZpC4BlFWDufNlQlVEGs+3ypveLgoHKK1Peb3/xmJ3v/8pe/lAPn3yWZZJvEYzGRWEzisbi0DB2V5r4XpX3ogMQHjktze5fMnr9IlvYskhVLFsrc2d3OYcKjjuKQ+npGLscyNCQnegdl/8HDcuTQARnoP+XOIdbdIy1LL5XkvHOlafbi3HlxioNPPSTNRzbKHbfd4hpaC4zJSTBqr5jqc83KRh1lz7Xq3Q7QND2gTKBqqopnmr0NysgGJS+tpak4OJiKidqHtWvXujts69atrkGPLb9R0l1nU0Tq7kxWDkqysLrWlab7pTnVK4n+Q5I4fVSaRwZFRockkx4SyYgkkk2SbGmV1olcSnNLi6NIl28ZTkl6eFiGh1OSSQ9LRsYlHk+KNLdJrKlTpG2OJOYul/ic5ZLs7pFEa9ckMMTicYkJoBUZevr/ydDO/yvvec97cnUnv/rVr1wGl2vC79BZeqIopHaUvV4rd7p2vH/nAw4SZmpGtYM1Z2KjJK170Q4PS9Wz3/5ev19xcPzgBz9wFdq33XZbbkATg4Ow3adnrZTe5deJxJOOPV5lkiyjxLx9+nkiFhcZH5FYZkziY2mJZdIioymJj6ZFmlol0dwukmyVWEu7xJKtEk8kc6DT/5iU3YzFJ497pWr/0A4Z2vq/pSURk5tu+BdXRqD0zDXdeOONrg6FKSJggag6B2xDtEbnAATMmi4jbv0o9mvn2sysPW99rRGcNWeWEcJA4vunFQeHFhhfeeWVrsBY0Y3j9/Ajf5aD+/dKqmuJDC68QjKdi4TbFaDAJDFu3QmzIzGRJPsdaPhOFjzs5/uuASb2O/C4t5P35xrTA4MjrPGsXzO85++Sfvr3jqHecM0b5YI15+fakM7DTDItA7WwpLmZMoIQParOQW4FUNgOV21HdR8/Ta+mwtd7LDiUhfQ8fGbJB5aqMQdqIncWOQgKjF//+tdPGqIASDZt2So7t29z5zjWtVhOz1kt6e7lIq2zsyZnAiA55nC9mQWJ+yyOEch2bvY5a6YAVxZIr4Io+x/uU7d/rP+gZI48I5mDm2W0/5i0tnXIG66+ypkNuxG6wnZsCGCasi+2htSf+zwsjcB5W4XYZqeDGMNnriDTUnM+h2ZlUQYRkZCNr7nmmlyBsT1h6JVJVZ5/4UV5+chhGR1JS7JrnmRmLZPB1sWSae0WaWqXeLJVpKnFmSPtfMsc2X0TzDE24gbvYHZk5LS0jA5IsvcFOX3kWRk93S9tHV2yuGeRnHvOKldNro6cmhCeyaUQleBjoAlUu57DmpFJ5nHCZyvkc4R9XhWzgpCk9RzoAgyPpBPIt1BgDM0qHfr0SDUYYR9SdV/fgAwNp2RkmCqmYTfRaiyelERrh8Sa2iSWSMr4yJCMpYYkM5LK+hnJJmluapKmpmbp6GiXrs4Od9fjGJJosnbeAoJzploesCJcqWiHLzCVGtIoqyYoSxRiDssgWgKga9zNGJ+DhvZrSKkbpbIbsBDe4aTxwPFTYSbI+7cg4nPYhgYnSqFh8PoRqHjYzrZ1Ej4g+J5O/8h5cb488ClQc/lPm4ybSg1pOddbUadVfRWcXUQ2ZH27TJgfnYSZl6ozBydg8yq8p0NIffOAKbhTdZ4uLTAOuhPsRdoQz4JCf2fNBft0qicaEXGOBwk1jgvLAS7Nq4TVc5RaQ6r+hHZqUJ6pkM9BZhcQDAxnJJXokNHW+RJL90nH+IBcc1l2Uhz8oSiOaNUc0nyVYNYZU9k8q1j2Ou2AjmN2HaIDNTeklm1tqKqBQQXGNKAtMKb+QjdMC4xlC4xtziWsEmyq41bKUUMKW9I+fakx6T3vdifaNTc1u0dTfFwSu++XDavnO7O5Z8+e3DXbULcmdI6wcSt+aj4oVe/Xc9B5SNaYADpeO5/37AcIqiACGju1JHUUygaqnk61EqyUcStRfA4NXcN8Dm6WweGMHFl2k8isHmlrapGk5k0cQGIy9ug98oH/+nYn9ft1pzVnVvKNWylU9FMr9RzKLNbn0Mlb1BfyQ8pS5gTLp3NwHIS3dOs8eXnVbc7RbmFoxgRztAAOfKQDG+XNPYMyOjLiTHUU81Jxn6PYcSuFsrLVqOdQ38MHB2aJdECQ46z7ClWfF6tzYFL27XtJ+hdcKkM9r8+Co6l5MnM0NUm875AsOfFXWbt6pZsCwzryk5Bi3lQcHMX6HLVUz+FXnStIVOcgOiDUtbY8KnPwPVVKCymklkkwEYCjd8FlcnoRlXWTmcPlaJpbJJ46KWe9+Fu5fN0aF3oHgcM3LxUHByluiowJCdUrD6sCs8CwDFKKWYlSZV6qz0Hh0p133umiATtmJQgkhZhDU+7W58qnc9DJgGOwvUd6V/6rJJqaXutzNDWJvLxb1iefd5lsPwNcMz4HTiKrNlLQQ1hqgVHOGtJi6znyFRb7oautDCMLCyhuuOGG3EyCpTCHhvS2RDJqbgWH9FRqTI6e93aXUX6Nz5FMSOaJe+XOW69zQp5mde15BpmWijMHJ8EJ/vCHP3TJKpRJ6DQojI3CHJX2OXQwEQ1MfojQ+tZbb3WpertCg29OovocQcxRKFrhXABIf6xTelf/F2lpaZMkDmlzk7QkkxI7uEmWje6Ri9esDgxla8bnUEGKBYEZ1Q44KDImrCxUZKxgcbkSV/eRzbLyXKlxK4CD86YGhQ3ziOSPXsFQyDBQqI2frrnPCeMJ30+dHpXU0qsl0TnPVZS3ntwtc5tH5do3bHDzplrxr+Z0DhqJ+lFS24uXLpOdzx2QzNBxWdKzWNavv8TlObR+tBLMUaiG1EYme/e+KLt2PyWn+nqlpWOO/NsN18oDDzwg1157rVNTS6khLYfOoYDUc3VLicSbpL2lSRYuXOCGW8IsQdVg+aKWipsVnCFY473vfa+juIe37ZNji98oc0/slM7+F2Qs1S9Xb7haFi1cKIsWLXQhWdLVjmanKfAZQ5mjUIFx1HErdgwqzuWJkyfl2IlXZOuWTdI6Z4m0nHe9tK28Uo78IltDimqrg5pgDxzuSvscflaWTlVTjY+nbB3mY9SMQ/rjH//YUTDFPjT+L37xC9m/5t9FEk2uniJJPmDgJekcOiDSf1i658xzqxWuWsr8GT2u8DhnThIJSUyYFgWHNkQQWFQCnxSVjI/nCovJ9h44eFAOH+t1uZXBgX7pWLZOxmatlOalF0uytZtyERnc/XtpPrJJ7rg9W0P6s5/9zFWCcW6YFmWDUqKVYnUOq6kEpe59ZgjKP9WMz/HNb37TMQDOKBezZetW2bJ5s7x0wXslnmgSoRRQa0hjGWkaOCTJ1CvSnDopzQOHJJM6JcnWdunonC2zZ8+S2d3dMm8WUnibtLW3uxl4OiYmc+HuAYjQLB02ODgkA4PZ9yf7UtI3MCADA/1yur9PxkZTkpzh4UHqAAAH+klEQVTVIzJnhSS7eiTRvVCaF6zOVpblakjHZXj/Vul/4seTakh//vOfu/nMVq9e7XQOnRkwSAybLp/DHktfa5Wddr7PEIXeA9T3v//9gfPFhgHKgXHcT2vm+7b5DOYgWrnrrrtyNaSoisjOJxZdJcPzLixYQ5ocPS0y3CeJ4T6JjQ5JYvS0JDLDkhwfkfjIkGSGByST6hcZHZZ4S4crJGaagUxzp4wnO2WcAqEWCotnSaJ9jiTa50qMYuNcyaGtIXX4EMmMyumN90nqwHYXnVAkrSxla0ipj0WeLme0Uko9h3/8fHJ5kFmhe7mJSNbpvO4Ru7h0cKCQshoTtRGXXXZZDpXcbQ8//LBLng3Ou0iG5l0s0jqL8hyJJ+ieeMEa0lfrSf0a0lcLlF1D5GpOXy0bnETPDg1Zxhg98oyM7HlE0kf3yNkrV8mN11+XAwWs9Je//MUlsqgKo3KMYZG6lm0xzDEVnaPYSjDOy68p5T1mnocmMXWi2g996ENRceG+VzJzqHxOYQ+1Eixqw9gTRS8g2bZzl+zf+4I70EjXYhl2NaTLsjWk1H+6omOtBY1JtoC4lBrS7P9k60/5i5hk+g5L5uVnZPTgFsn0H3UAoeqL86QDlS1gCF1Zit9Rc0JYO9Ua0lJ0DmtGfPMS5HOoP6arYAIIHFdMMgoqdSHqNxGmv+Md76gsOMjKUsxDSMtdx0pNOv+oAgVxh054Zs9eOTZRQxrvmi/j3ctkqK1HpKUrW0fa0jlRNDyZCSxD5GpIQcH4uDNLMtwv8eE+aT61V0aOPisjQ33S1tUtixYukvNWrXBMoJtaUbQEIhLCVgqkqVaDLdBpqCcF9FonUgxz8N1ScisareXzOfTcOS+7NCrHw4nW0gcfAdwM1113nVvhophtysyhNaScLFXcUDOmhhHeZDetHVTHimciCh5u+dD+QRkYHJLUUH/u3OPxJom3tkuMyCLZKuOpPhlPD8koPsjExv90dHY7B3ZW16s1pDqDoHMxMplJwACkgJnwm/Mj2lIZHYCjz8CAmEzOnf/S87YdV0pupZBCGgQMTp62xUSoQ87/6HgbHT6hF+lHVvQPYL/pppuKwUV5zEpQPQepZC1lszWkvIZVgkJDS5t8rjWkSpU6a2AxNaSwAyoo4SwVVgxvZCMa4bz97Czg4A7ErDAbM9ehq0pyd9rzLnc9h3U8tdjJ+W2Dg86vwHHmmEGTw1hQARqEPNhS5xspGhUTPyiZOaLWczAuhElqoW86iE7GrgMUPGje67yjtvH9O0F9BD+4AkS6RDmOJb4OAh2v2TiGNhLH9AFhywYBA98HODAHthupGpbgnK02U4g5ouocnKOdY1XzOhyP4/NeQW07WdmM8kpqXmFqZetSweD/rmRwlFrPARNQAQ5YCBXpRLWhdDyNHjSdAA2ojajP+n0aUeck5Q7T4mX2BdVuhNVz4GfgtGJWHnroIXdu/Bd3K+dLR9BpsFepOgcdACB1Mln1awAex1XWeE1HTTjqgA5mAwiAHrOhDna5QJG7MUvVOcpZQ2oTb/YuwvPWkMwCRkeiq09hC4jzyesWFEHzkOKHMGEcoTkLArJypNauYl42btzo/A8AAwgBCmwI44TlVvg+IObuV5bjvGFMAMF+AGE330/Dh8NvUHYA9JXYpoU5otZzqIduweHL5ZWo51DQWHDQ+FRaMVcYPgsgoTNxaHnAIvgudDjgsONWrCPM5xrWAiZ1MMOYgTbB/LFWipoLgFmNrWRwRPU5olSf2yRcocRbWCVYlAqxKMxx9dVXuwnwdIMRqPTG5AAQ7lrOlwUQ2WAQIgYYTksO9HoAA9dvh04E+Q2wCMyAuYAlVLWtBiAmMVipZoUZfimSqad5SFFJP/zhDzuG8DfG1DImmDsbgPBMSIw2wgZbIjwBDN9M8LkfocEMgAF2oA1rcSuZOXDS7r33Xqc4alp5KjWkalpKZY4o9RxhzIH/oct5fe973wvtJ75DtpYQmd+oTK3P6BB2JkL9I66NYigAwYpQhJk6jrgWQTFlh5Q/uP/++13yjdH1OjLNzy3QMEGlg9Ndz+E7pmp2/BFv2arvfS5h+MEPfjC3rn2+TiNji5nRaAtQaMSFjwFLEBIDBGUHTMdM20pmDr1QaiCwyaS6KTbWmeyChiL4FWHWEZ0qc5TicwAMIhDMA0VLqKVRN0CAw8oDbQXWxEklogAUOJUzfZsyOGgA7O5PfvITR6nM8kN+xZYI+k7pdNWQFgpp+ZxOJXxEwaVjyau8+93vdhpDY5vcAmUBh/4ldyFrzVLJjdeN169TLwQphpY5NKwtp89hTQiAwGdA+SQVz919++23v2amnwZAXm2BsoJD/5bwT717NABCOh6EaCS2dElLBYQmpFQStgDJp3MElgtOrN+GbI+MDhA4H1gNp/Dyyy93IldjK9wC0wIO/7DkJ0hqwSgMFuYu1oldAArOmq7xhhTOA7MUxiI4gFo2qJECAOA1mV4YgikYYC8AwUxDSM2NrbgWqAg4/FNCFgcoPMizEBajQmqHEypqSBh0OegMuhoAwEJBJDrACSRMBBCNbeotUBVwTP20G/9QiRZogKMSrTxDj9EAxwztuEqcdgMclWjlGXqMBjhmaMdV4rQb4KhEK8/QYzTAMUM7rhKn3QBHJVp5hh6jAY4Z2nGVOO0GOCrRyjP0GA1wzNCOq8RpN8BRiVaeocdogGOGdlwlTrsBjkq08gw9xv8HsF5eT14/5S0AAAAASUVORK5CYII=&quot;&gt;&lt;/div&gt;&lt;div id=&quot;SDCloudData&quot; style=&quot;display:none&quot;&gt;&lt;/div&gt;" style="text;whiteSpace=wrap;html=1;" parent="1" vertex="1">
          <mxGeometry x="1170" y="530" width="150" height="190" as="geometry" />
        </mxCell>
        <mxCell id="BVkSgA7eZD7vXLeDeiiQ-69" style="edgeStyle=orthogonalEdgeStyle;rounded=0;orthogonalLoop=1;jettySize=auto;html=1;exitX=1;exitY=0.5;exitDx=0;exitDy=0;" parent="1" source="BVkSgA7eZD7vXLeDeiiQ-30" target="BVkSgA7eZD7vXLeDeiiQ-62" edge="1">
          <mxGeometry relative="1" as="geometry" />
        </mxCell>
        <mxCell id="BVkSgA7eZD7vXLeDeiiQ-30" value="" style="image;html=1;image=img/lib/clip_art/computers/Server_Rack_128x128.png" parent="1" vertex="1">
          <mxGeometry x="970" y="440" width="80" height="80" as="geometry" />
        </mxCell>
        <mxCell id="BVkSgA7eZD7vXLeDeiiQ-32" value="&lt;div&gt;&lt;img src=&quot;data:image/png;base64,iVBORw0KGgoAAAANSUhEUgAAAaEAAAGhCAYAAADIqAvCAAAAAXNSR0IArs4c6QAAIABJREFUeF7t3QuMVdW9x/H/yFMqBSeUBi2oVIxT02Ij0dJSgRFDUZCSoK3aWtqq1TZVqiVNOhQfRPuI9UVtY41NjfEV0xQcY6XOaChDih3wMVWMFR9ghdYiDwV5Fm7W5qJc7syc3+y911p7n/M9yY039/7PWWd/9p75ss+cc3bdvn379hk3BBBAAAEEIgjUEaEI6iyJAAIIIJAIECEOBAQQQACBaAJEKBo9CyOAAAIIECGOAQQQQACBaAJEKBo9CyOAAAIIECGOAQQQQACBaAJEKBo9CyOAAAIIECGOAQQQQACBaAJEKBo9CyOAAAIIECGOAQQQQACBaAJEKBo9CyOAAAIIECGOAQQQQACBaAJEKBo9CyOAAAIIECGOAQQQQACBaAJEKBo9CyOAAAIIECGOAQQQQACBaAJEKBo9CyOAAAIIECGOAQQQQACBaAJEKBo9CyOAAAIIECGOAQQQQACBaAJEKBo9CyOAAAIIECGOAQQQQACBaAJEKBo9CyOAAAIIECGOAQQQQACBaAJEKBo9CyOAAAIIECGOAQQQQACBaAJEKBo9CyOAAAIIECGOAQQQQACBaAJEKBo9CyOAAAIIECGOAQQQQACBaAJEKBo9CyOAAAIIECGOAQQQQACBaAJEKBo9CyOAAAIIECGOAQQQQACBaAJEKBo9CyOAAAIIECGOAQQQQACBaAJEKBo9CyOAAAIIECGOAQQQQACBaAJEKBo9CyOAAAIIECGOAQQQQACBaAJEKBo9CyOAAAIIECGOAQQQQACBaAJEKBo9CyOAAAIIECGOAQQQQACBaAJEKBo9CyOAAAIIECGOAQQQQACBaAJEKBo9CyOAAAIIECGOAQQQQACBaAJEKBo9CyOAAAIIECGOAQQQQACBaAJEKBo9CyOAAAIIECGOAQQQQACBaAJEKBo9CyOAAAIIECGOAQQQQACBaAJEKBo9CyOAAAIIECGOAQQQQACBaAJEKBo9CyOAAAIIECGOAQQQQACBaAJEKBo9CyOAAAIIECGOAQQQQACBaAJEKBo9CyOAAAIIECGOAQQQQACBaAJEKBo9CyOAAAIIECGOAQQQQACBaAJEKBo9CyOAAAIIECGOAQQQQACBaAJEKBo9CyOAAAIIECGOAQQQQACBaAJEKBo9CyOAAAIIECGOAQQQQACBaAJEKBo9CyOAAAIIECGOAQQQQACBaAJEKBo9CyOAAAIIECGOAQQQQACBaAJEKBo9CyOAAAIIECGOAQQQQACBaAJEKBo9CyOAAAIIECGOAQQQQACBaAJEKBo9CyOAAAIIECGOAQQQQACBaAJEKBo9CyOAAAIIECGOAQQQQACBaAJEKBo9CyOAAAIIECGOAQQQQACBaAJEKBo9CyOAAAIIECGOAQQQQACBaAJEKBo9CyOAAAIIECGOAQQQQACBaAJEKBo9CyOAAAIIECGOAQQQQACBaAJEKBo9CyOAAAIIECGOAQQQQACBaAJEKBo9CyOAAAIIECGOAQQQQACBaAJEKBo9CyOAAAIIECGOAQQQQACBaAJEKBo9CyOAAAIIECGOAQQQQACBaAJEKBo9CyOAAAIIECGOAQQQCCKwb9++IOuwSOcCdXV1haQpVIR2795dSKRaflJ9+vSp5c1n2zMKLF++3NatW2dbt241IpQRM4e7uxANGzbMRo0aZccee2wOj5j9IaJHaMuWLfb8889bc3Oztba2Wv/+/a13797Zt4xHyCSwd+9e27FjhzU0NNg555xjn/vc52z48OGZHpM714bAzp077ZlnnrG7777bFi9ebHv27LF33nkn+S+3uAIf+chHbPDgweb+e/HFF9u5555rxxxzTNQnFTVCHR0d9r3vfc/cv5Y4QKMeB90u7v71NGLECGtqarJLLrmkuE+UZxZdYM2aNXbppZfaE088wZlP9L3R/RNwP9dHHHGEzZ071+bMmWOxXq6LFqElS5bYzJkzbcOGDQXfVTy9AwLuIL311lvtiiuuAAWB/yewceNGO+WUU+yNN95Ap0QC7ud69uzZdvPNN0d51lEi9PLLL9tpp51m7qU4buUScAfsfffdZ+eff365njjP1quA+3vuN7/5zeTY4FY+gQEDBtif//xn+8IXvhD8yQeP0K5du2zq1KnJ6Tq3cgoMGTLEXnzxRRs6dGg5N4BnnbvAI488YtOnT8/9cXnAcAJnnHGGtbS0hFvwf1cKHiH3Mtx5551nb7/9dvCNZcF8BA477DC78847kz9sckPACfzgBz9IXqrlVl6Bvn372tq1a+3jH/940I0IHqFrr73Wrr/+ev5oGXQ357/YtGnTbNGiRdH+mJn/FvGIaQXcW68nTZpkTz75ZNqH4H4FEHAvtbufafezHfIWPEIXXXSR3XvvvSG3kbU8CBx33HHJW+sHDhzo4dF5yDIJuLdkT5gwIXmXK7fyCrgI3XHHHXb55ZcH3YjgEXKvG7vXj7mVW+DII4+0l156Kfipe7nVqvPZb9u2LTkTIkLl3r8uQj//+c+Tt2uHvAWNkDttnzJlSvIBNm7lFnDvpnERcp8f4lbbAi5CkydPtmXLltU2RMm33kVo/vz5yecBQ96IUEjtKlqLCFXRzsy4KUQoI2BB7k6ECrIjeBqaABHSnGphighVx14mQtWxH2tmK4hQzezqihtKhCoSlWKACJViN/EkDwgQIY6FAwJEqDqOBSJUHfuxZraCCNXMrq64oUSoIlEpBohQKXYTT5IzIY6BQwXyipD7zBnXr0p/fG3evNncJVjS3oiQKOeug/GNb3wjub6NQ3MXy+KmCbiv5XB+L7zwgv3xj39Mvv8t7Y0zobRy1Xe/PCLU2NiYfFDS/Uy7x+OmCzizQYMG2d/+9rfk0jju28zT3IiQqOYusOa+qdddB4NbeoF77rnHZs2alfoBiFBquqq7Yx4R+s1vfmOXXXZZ1dmE3CD3OUx3dYL29vZUyxIhkc394vzd737Hd5aJXl2NLVy40GbMmJH6UYhQarqqu2MeEbrpppvs6quvrjqbkBvkLgzqIuSuapvmRoRENXe6uWDBAiIkenU19vjjj9vZZ5+d+jVkIpRxB1TR3fOI0HXXXWfz5s2rIpXwm/Lee+/ZuHHjzF2xOs2NCIlqREiEqjBGhPJx5FEs+RtO1q/tIULZjyQiJBjm8d1xREiAFkaIkIDEiCRAhCQm70NESCAmQgJSoBEiFAi6BpYhQsXYyURI2A9ESEAKNJI1Qocffnhyifajjjoq0DPOdxn3+rf7TIp7y/rgwYPzfXDx0dwvDfd2Wvff3bt3i/cq3tj27duTtwY/99xzqZ8cL8elpvvgjkRIMCRCAlKgkawRcpf4PvHEE8199qiMN/cW/2HDhiVv9W9oaEguynbyyScH+bDks88+a4899pitXLkyuRzGunXrbNeuXWVk/OA5u+ef5YOSRCj77idCgiEREpACjWSNUKCnGXQZ94G/2bNnm7sEvY+buxLtpZdemnyOw/0scPtQgAhlPxqIkGBIhASkQCNEqGto940c7tP77qW6vG5PP/20uUvb/+Mf/8jrIavqcYhQ9t1JhARDIiQgBRohQt1DX3nllXbrrbfmsjfeeecdO//885O/oXHrXIAIZT8yiJBgSIQEpEAjLkJnnXUWLwt14e3eeOH+buP+VpT1dsMNN9jcuXOzPkxV358IZd+9REgwJEICUqCRW265xa666qpAq5VzmalTp1pzc3PmJ+/eQbh+/frMj1PND+COxV/+8pfVvInet40ICcRESEAKNOJeHnrwwQcDrVbOZY488kj717/+lekdgGvWrLHPfOYz9u6775YTIdCz/upXv2oPPPBAoNWqcxkiJOxXIiQgBRhxb6WdOHGi/eUvfwmwWnmXcG8/X716tQ0fPjz1Rjz11FPJF8Vu2bIl9WPUwh3Hjx9vLS0t1rt371rYXC/bSIQE1rJEyL2GX/Sb+6JC94Ob5rZz587kiw5XrFiR5u41c59+/foloT711FNTb7N7Oc9983vaa7ykXrhkd3Rni87avU0+zc0FzL29vsi3k046yR566CFvT5EICbRliZD7l6u71EGRb+5f2Gn/aP7+++/b2LFjU3/bbpFd8nxu/fv3T/4mNGnSpNQPS4Q0OveB4ba2Nquvr9fucMiUi9CZZ56Z6r6h7nTeeecRoU6w6/YF/NQcEcrvcCdC+Vl29UhEyL/xgRWIUHZrzoQEQyIkIIkjREiEyjBGhDLg9fCuRKiHYJ2MEyHBkAgJSOIIERKhMowRoQx4PbwrEeohGBFKB0aE0rl1di8ilJ8lL8f5t6y0AhGqJFT5/8+ZUGWj5NP5U6ZMscWLFwvTnY+EuKgdb0xIvXuq6o6cCYXbnUQouzUREgyJkIAkjnAmJEJlGCNCGfB6eFci1EMwXo5LB0aE0rkV9eW4kSNHJhe1cxeIK9LNfRh38+bNtnbt2uSCcWlvRYnQzJkz7ROf+IS5K5gW7TZgwIDkKS1YsCDT9YSIUPY9y5mQYEiEBCRxJPaZUK9evey1116zESNGiM84/Nhbb72VfNtB2k8hFCFCLvBZLhYXQt3F0UXShT/tjQillfvwfkRIMCRCApI4UoQIrVq1yk444QTxGYcf27Bhg7mztbRnQ0WIkPsam02bNiVXgC3qzUXo6KOPzvTVREQo+94lQoIhERKQxJEiROjvf/97cmnsot7cdXxGjRqV/BJPcytChNz317lv4E77TQJptrun93FfzurOOLN8SSsR6qn6/58nQoIhERKQxBEiVBmKCFU2ymOCCGmKfG1P5058bU8nLrxFu/IPlfubEGdClZ2yfnccZ0KVjd0E3x1nycvO7ouJOzo6NLRDptzfH+fPn29NTU2p7p/2TkSICKU6doiQxkaENCdejtOcupsiQoIhL8cJSOIIL8dVhuLluMpGeUzwcpymyMtxvBynHSlmyUXIuJRD91ycCWmHU4gzIfcuRd+3T33qU10uQYQ0fSJEhLQjxSz1a6ryAjkNuguBpbnlcT0hJUKjR49O8/Tk+wwZMsRaW1u7nK+VM6HTTz/dli5dKrv1dHDMmDHW3t5e6Ail/TtITy2yzqf9mVXW5eU4QaksL8cJm1LqkZAR8vnLobGxkQiZGREq9Y9jbk+eCAmUREhACjBChDTksnxOiAhp+7Pap4iQsIeJkIAUYIQIachEaL9TGV6O0/ZodU8RIWH/EiEBKcAIEdKQiRAR0o6UYkwRIWE/ECEBKcAIEdKQiRAR0o6UYkwRIWE/ECEBKcAIEdKQiRAR0o6UYkwRIWE/ECEBKcAIEdKQiRAR0o6UYkwRIWE/ECEBKcBIqAhdcMEF3rfm/vvv73KNWvmc0KJFi7w7T58+vcs1ivBhVe8AJViACAk7iQgJSAFGQkUowKZ0u0StRCi2MxGKvQf2r0+EhP1AhASkACNESEMuy8tx2tb4myJC/mx78shESNAiQgJSgBEipCETIc2JCGlOvqeIkCBMhASkACNESEMmQpoTEdKcfE8RIUGYCAlIAUaIkIZMhDQnIqQ5+Z4iQoIwERKQAowQIQ2ZCGlORYjQ6tWrtScbeer444/39gyIkEBblgi56wm99tprwhbFG7nttttswoQJqZ4AEdLYiJDmVIQIcXlv3h0nHa1lihAXtet+lyrXE5IOCo9DvEXbI+5BD02ENGcuate5U90+V4ZANyKUHzSX965sSYQqG+UxQYQ0RSJEhLQjhct7S06cCUlMFuLy3toz8TdFhDRbIkSEtCOFCElOREhiIkIakzU0NFhbW5vV19eL9/i/Y/xNiL8JSQcOL8dJTNIQL8dVZuLluMpGeUxwJqQpcibEmZB2pHAmJDkpZ0J33XWX9FhZhi655JIu714rEfr2t7+dhVC67913393lHBGSCI0IESHtSCFCkpMSodGjR1tHR4f0eGmGGhsbrbW1teYjdPrpp9vSpUvTEEr3KcPlvXk5jpfjpIOZl+MkJmmoDC/HESEL8jchImRGhIiQ9IuTCElM0hARMuNMaP+hQoSIkDsO+MYE4VcnERKQxBEiRIQOHCpEiAgRIfEXJxESoYQxIkSEiNCHPyi8HMeZkPBr04wISUzSEBEiQkSICB38y4KX44RfnURIQBJHiBARIkJEiAiJvzAPjBGhHoJ1M06EiNDBEVq/fn1+B9chjzR48GBrb2/v8vH5nJBGz+eEOnfiC0w7cXGXcuBbtLv/wVI+J7RhwwbtpzPD1JAhQ7q8d618WDUDXy53JUIaIxEiQtqRYmZz5sxJ/n5V5Nu0adNs/PjxqZ4i1xPS2LiekOZUlAgtWrRIe8KRpurq6uz222/3tjp/ExJoy/JynLAppR4hQtruI0KaUxEipD3T6p4iQsL+JUICUoARIqQhEyHNiQhpTr6niJAgTIQEpAAjREhDJkKaExHSnHxPESFBmAgJSAFGiJCGTIQ0JyKkOfmeIkKCMBESkAKMECENmQhpTkRIc/I9RYQEYSIkIAUYIUIaMhHSnIiQ5uR7iggJwkRIQAowQoQ0ZCKkOREhzcn3FBEShImQgBRghAhpyERIcyJCmpPvKSIkCBMhASnACBHSkImQ5kSENCffU0RIECZCAlKAESKkIRMhzYkIaU6+p4iQIEyEBKQAI0RIQy5LhLZs2aJtUIapQYMGdXlvIpQBNse7EiEBkwgJSAFGQkVo9OjR9sYbb3jbojFjxlhra2uXj18rX2DKlVW9HWKlemAiJOwuIiQgBRgJGaGOjg5vW9TY2EiEzIwIeTvESvXAREjYXURIQAowQoQ05LK8HEeEtP1Z7VNESNjDZYnQ66+/LmxN/JHjjjsu1ZMgQhobEdrv5F72LMNF7ZYtW6bt2IhT11xzjbfViZBAW5YIcVG7yjtTuaid+5sQL8c126xZs2zjxo2VUTuZ6Nu3r7mrptbX13d5f86EzFpaWuzMM89MZRzqTlzUrnNprqzaiQsRqvxjSYQqG7mJ5mYipEg1NDRYW1tbt7Ht7nGIkBlnQsKRxpmQgCSOPPXUUzZhwgRx+v+O8XKcxsbLceV6OY4zofds3LhxqV99cFd+nT9/vjU1NWk/IDlNcSbEmVCqQ4kzIY2NMyHNiTMhzam7Kc6EBEPOhAQkcaQMZ0I//vGPxa1JP3bjjTd2eeda+ZzQr3/96/SA4j2/+93vdjlZhA+r8nIcL8dJhzIRkpikoTJESNoQj0O1EiGPhNJDEyGJyXhjQudOvBzHy3HaT9AhU8rLcakeOMc7EaEcMbt5KCKkORMhIqQdKWbGu+MqUxGhykZuIsTfhLRn4m+KCGm2RIgIaUcKEZKciJDERIQ0JuONCSJUN2O8MUEw5G9CApI4wt+EKkPxclxlozwmOBPSFDkT4kxIO1I4E5KcOBOSmDgT0pg4ExKduhvjTEhA5ExIQBJHOBOqDMWZUGWjPCY4E9IUORPiTEg7UjgTkpw4E5KYOBPSmDgTEp04E8oIxZlQRsCD7s6ZUGVLzoQqG+UxwZmQpsiZEGdC2pHCmZDkxJmQxMSZkMbEmZDoxJlQRqgynQk98cQTGbfW790fffTRwn+BqV+Byo/OmVBlozwminIm5M40inxzX7D60EMPeXuKvDFBoC1LhIRNKfVIqG/Rjo1EhMLsgSJEKMyWFnsVIiTsHyIkIAUYCRWhefPmed+a66+/vss1aiVCsZ2JkPfDXFqACAlMREhACjASKkJcWTXM1/ZwZdUAPzQlWIIICTuJCAlIAUaIkIbMRe32O40ZM8ba29u7RONMSDuefE8RIUGYCAlIAUaIkIZMhIiQdqQUY4oICfuBCAlIAUaIkIZMhIiQdqQUY4oICfuBCAlIAUaIkIZMhIiQdqQUY4oICfuBCAlIAUaIkIZMhIiQdqQUY4oICfuBCAlIAUaIkIZMhIiQdqQUY4oICfuBCAlIAUZCRuiVV17xtkVjx4611tbWLh+/Vj4n5N6ivWLFCm/OJ510Eu+O86ab3wMTIcGSCAlIAUZCRSjApnS7RK1EKLYzb9GOvQf2r0+EhP1AhASkACNESEMuy8tx2tb4myJC/mx78shESNAiQgJSgBEipCETIc2JCGlOvqeIkCBMhASkACNESEMmQpoTEdKcfE8RIUGYCAlIAUaIkIZMhDQnIqQ5+Z4iQoJwWSL0s5/9TNiauCPunWHjx49P9SSIkMZGhDSnIkSopaXFrr76au0JR5o68cQTuZ5QJ/Z1+1wZAt3KEqEZM2bYwoULA6mkW4bLe1d2491xlY3ymChKhNxF44p84/Lene8dItSJCxGq/KPM5b0rG7mJ5uZmmzVrlm3cuFG7wyFTffv2tfXr11t9fX2q+4e4ExHSlIkQEdKOFDMjQpWpiFBlIyKkGbmphoYGa2trSx1b93IcZ0Lv2bhx46yjo0OHP2iyrq7O5s+fb01NTanun/ZOnAlxJpTq2CFCGhtnQpoTEdKcupvijQmCIX8TEpDEEf4mVBmKvwlVNspjgpfjNEVejuPlOO1I4eU4yYkzIYmJvwlpTLwcJzpxJpQRijOhjIAH3Z0zocqWnAlVNspjgjMhTZEzIc6EtCOFMyHJiTMhiYkzIY2JMyHRiTOhjFCcCWUE5EyoR4CcCfWIK/UwZ0IaHWdCnAlpRwpnQpITZ0ISE2dCGhNnQqITZ0IZoTgTygjImVCPADkT6hFX6mHOhDQ6zoQ4E9KOFM6EJCfOhCQmzoQ0Js6ERCfOhDJCcSaUEZAzoR4BcibUI67Uw5wJaXScCXEmpB0pnAlJTpwJSUycCWlMnAmJTpwJZYTiTCgjIGdCPQLkTKhHXKmHORPS6DgT4kxIO1LM7OGHH5ZnYw0OHTqU6wlVwCdCYY7OokRo06ZNYTY4wyrnnntuhnt3f1e+O06gLcuZkLAppR7honba7uOidppTESKkPdPqniJCwv4lQgJSgBEipCETIc2JCGlOvqeIkCBMhASkACNESEMmQpoTEdKcfE8RIUGYCAlIAUaIkIZMhDQnIqQ5+Z4iQoIwERKQAowQIQ2ZCGlOREhz8j1FhARhIiQgBRghQhoyEdKciJDm5HuKCAnCREhACjBChDRkIqQ5ESHNyfcUERKEiZCAFGCECGnIREhzIkKak+8pIiQIEyEBKcAIEdKQiZDmRIQ0J99TREgQJkICUoARIqQhEyHNiQhpTr6niJAgTIQEpAAjREhDJkKaExHSnHxPESFBmAgJSAFGiJCGTIQ0JyKkOfmeIkKCMBESkAKMECENmQhpTkRIc/I9RYQEYSIkIAUYIUIaMhHSnIiQ5uR7iggJwkRIQAowQoQ0ZCKkOREhzcn3FBEShImQgBRghAhpyERIcyJCmpPvKSIkCBMhASnACBHSkImQ5kSENCffU0RIECZCAlKAESKkIRMhzYkIaU6+p4iQIEyEBKQAI0RIQyZCmhMR0px8TxEhQZgICUgBRoiQhkyENCcipDn5niJCgjAREpACjBAhDZkIaU5ESHPyPUWEBGEiJCAFGCFCGjIR0pyIkObke4oICcJESEAKMEKENGQipDkRIc3J9xQREoSJkIAUYIQIachESHMiQpqT7ykiJAgTIQEpwAgR0pCJkOZEhDQn31NESBAmQgJSgBEipCETIc2JCGlOvqeIkCBMhASkACNESEMmQpoTEdKcfE8RIUGYCAlIAUaIkIZMhDQnIqQ5+Z4iQoIwERKQAowQIQ2ZCGlOREhz8j1FhARhIiQgBRghQhoyEdKciJDm5HuKCAnCREhACjBChDRkIqQ5ESHNyfcUERKEiZCAFGCECGnIREhzIkKak+8pIiQIEyEBKcAIEdKQiZDmRIQ0J99TREgQJkICUoARIqQhEyHNiQhpTr6niJAgTIQEpAAjREhDJkKaExHSnHxPESFBmAgJSAFGiJCGTIQ0JyKkOfmeIkKCMBESkAKMECENmQhpTkRIc/I9RYQEYSIkIAUYIUIaMhHSnIiQ5uR7iggJwkRIQAowQoQ0ZCKkOREhzcn3FBEShImQgBRghAhpyERIcyJCmpPvKSIkCBMhASnACBHSkImQ5kSENCffU0RIECZCAlKAESKkIRMhzYkIaU6+p4iQIEyEBKQAI0RIQyZCmhMR0px8TxEhQZgICUgBRoiQhkyENCcipDn5niJCgjAREpACjBAhDZkIaU5ESHPyPUWEBGEiJCAFGCFCGjIR0pyIkObke4oICcJESEAKMEKENGQipDkRIc3J9xQREoSJkIAUYIQIachESHMiQpqT7ykiJAgTIQEpwAgR0pCJkOZEhDQn31NESBAmQgJSgBEipCETIc2JCGlOvqeIkCBMhASkACNESEMmQpoTEdKcfE8RIUGYCAlIAUaIkIZMhDQnIqQ5+Z4iQoIwERKQAowQIQ2ZCGlOREhz8j1FhARhIiQgBRghQhoyEdKciJDm5HuKCAnCREhACjBChDRkIqQ5ESHNyfcUERKEiZCAFGCECGnIREhzIkKak+8pIiQIEyEBKcAIEdKQiZDmRIQ0J99TREgQJkICUoARIqQhEyHNiQhpTr6niJAgTIQEpAAjREhDJkKaExHSnHxPESFBmAgJSAFGiJCGTIQ0JyKkOfmeIkKCMBESkAKMECENmQhpTkRIc/I9RYQEYSIkIAUYIUIaMhHSnIiQ5uR7iggJwkRIQAowQoQ0ZCKkOREhzcn3FBEShImQgBRghAhpyERIcyJCmpPvKSIkCBMhASnACBHSkImQ5kSENCffU0RIECZCAlKAESKkIRMhzYkIaU6+p4iQIEyEBKQAI0RIQyZCmhMR0px8TxEhQZgICUgBRoiQhkyENCcipDn5niJCgjAREpACjBAhDZkIaU5ESHPyPUWEBGEiJCAFGCFCGjIR0pyIkObke4oICcJESEAKMEKENGQipDkRIc3J9xQREoSJkIAUYIQIachESHMiQpqT7ykiJAgTIQEpwAgR0pCJkOZEhDQn31NESBAmQgJSgBEipCETIc2JCGlOvqeIkCBMhARVDgXWAAALLUlEQVSkACNESEMmQpoTEdKcfE8RIUGYCAlIAUaIkIZchAj17t3btmzZYgMGDNCedISpbdu22dFHH508z7S3hoYGa2trs/r6+rQPUfP3I0LCIUCEBKQAI3lF6NVXX7VjjjkmwDNOt8S///1vO/bYY23Hjh2pHqAIEXJPfPXq1fbJT34y1TaEuNN//vMfGzlypG3dujX1ckQoNd0HdyRCgiEREpACjOQRocMOO8xWrlxpJ5xwgrmXY4p069u3r+3atcueffZZO+uss1I/taJE6LLLLrNx48bZ4YcfnnpbfN3ROb/++us2b94827NnT+pliFBqOiLUEzoi1BMtf7N5RMg9u6FDh9rAgQP9PdGMj+x+Qb755pupH6UoETqwAS78Rbvt3bs3l6dEhLIzciYkGBIhASnASF4RCvBUoy5RtAhFxfC8OBHKDkyEBEMiJCAFGCFCGjIR0pzymCJC2RWJkGBIhASkACNESEMmQppTHlNEKLsiERIMiZCAFGCECGnIREhzymOKCGVXJEKCIRESkAKMECENmQhpTnlMEaHsikRIMCRCAlKAESKkIRMhzSmPKSKUXZEICYZESEAKMLJ9+3b7/Oc/b88991yA1cq7RL9+/exPf/qTTZw4MfVGPP7443bhhRfaxo0bUz9GLdzx05/+tC1dutQGDRpUC5vrZRuJkMBKhASkACO7d++2L37xi/b0008HWK28S/Tp08eWLFliY8eOTb0Ry5cvTz4wu2nTptSPUQt3dP8oevLJJ82Fn1s6ASIkuBEhASnAiPuA4dSpU5N/5XPrWsB9b9uqVats1KhRqZncVwe5l5qIUPeE06dPt4ULF6Z25o5mREg4CoiQgBRoZPbs2XbbbbcFWq2cy7hvhFi3bp316tUr0waccsop9swzz2R6jGq/8/e//327/fbbq30zvW4fERJ4iZCAFGjkvvvus6997WuBVivnMjNnzrSHH34485O/4YYb7Cc/+Ym5459b5wLXXnutXXPNNfBkECBCAh4REpACjbg/mLu/VfCLsXNw9514zsj9rSLrzb0k19jYmLy0x61zgeuuuy75ElRu6QWIkGBHhASkQCPuF+zZZ59teX0BZaCnHWyZvH8pum/0PuOMM/jbUBd7MG/vYAdKgRYiQsLOIEICUqARItQ5tPum6h/96Ec2d+7c3C8k594S796u7a4P5L7hm9uHAkQo+9FAhARDIiQgBRrJI0J1dXWBnq2/ZY444ghzb8V28Rk2bJhdddVVSSjc/83Hzb0098gjj9ijjz5qL774ornPbDnHMlu6n2t3YbssYSVC2Y82IiQYEiEBKdBI1gi5C8e51/Cr4XLM7mJxn/3sZ2306NGB9D9cZvPmzea+wSLLBeGCP+lDFnTP/+tf/7qtWLEi9VMhQqnpPrgjERIMiZCAFGgka4QGDBiQ/Et+xIgRgZ6xv2WKeLE4f1ub/yNv27bNJk+ebMuWLUv94EQoNR0R6gkdEeqJlt/ZPCL00ksvVUWE/EpX/6MToWLsY86EhP1AhASkQCNEKBB0DSxDhIqxk4mQsB+IkIAUaIQIBYKugWWIUDF2MhES9kMeEbr88svtjjvuKPW7iQQq7yPue+Pc54TSfljV/U2Il+O876ZSLJBHhH7xi1/YnDlzSrG9RX2S7ouJTzvtNHOfSUtzc+/QnD9/vjU1NaW5e+r71O1L+1soxZJ5ROjiiy+23/72t0Qohf/Bd3FvEZ42bVrqRyFCqemq7o55ROiuu+4y97PNLb2A+/3qvvE97bfjEyHR3iE/+OCDNnz4cEIkmh065v7F5L6r68Ybb0z5CJZ8kJMzodR8VXXHPCLk/kHk/nHpblu3bq0qH98b4+LhrsN04MPQb7/9dqoliZDI5j6f8uUvfzkp/kc/+tHkQ4bcNAH3L6X//ve/9vzzz1tzc7OtWbNGu2MnU0QoNV3V3TGPCDmU448/3txntrilE1i7dq1t2bIl3Z3Nkn/U83Jcaj7uGFqACIUWL+56eUWouFtYG8+MCNXGfq6arSRCVbMrM28IEcpMWIgHIEKF2A08CVWACKlS1T9HhKpjHxOh6tiPNbMVRKhmdnXFDSVCFYlKMUCESrGbeJIHBIgQx8IBASJUHccCEaqO/VgzW0GEamZXV9xQIlSRqBQDRKgUu4knefCZ0CuvvGJHHXUUKDUu4CI0adIkW758eY1LlHvzXYR++tOfJhd1DHkL+o0JbsPOOeec5DMq3Mot4D6j5a4Q+rGPfazcG8KzzyywY8cOmzhxIhHKLBn3AVyEbrnlFrvyyiuDPpHgEfrOd77zwSejg24pi+Uq4L6xwl1PaODAgbk+Lg9WToEvfelLtnjx4nI+eZ51IuAidM899yQXKAx5Cx6hX/3qV/bDH/7Qdu7cGXI7WStngSlTpiSXqOYbK3KGLenDXXHFFbZgwYKSPnuethNwP8svvPCCNTQ0BAUJHqH29nabMWOGvfXWW0E3lMXyE3AH68033xz8tD2/LeCR8hZ44IEH7IILLsj7YXm8gAIjR460V199NeCK+5cKHiG36Ny5c5Mvzwz4Bd7BYat5wfHjx9tjjz2WfIkpNwScgLuWjfsS0iVLlgBSQoHevXvb73//e7vwwguDP/soEfrnP/+ZvJvm5ZdfDr7BLJhNwL0h4f7770+uRcQNgYMF3Leqn3rqqXwLdskOC/e3IPfq1B/+8IcozzxKhNyWugN28uTJ9uabb0bZcBbtuUCfPn3s3nvvta985Ss9vzP3qAmBpUuXJsfH+vXra2J7y76RLkAXXXSR3XnnndavX78omxMtQm5r//rXvybXtXEH7vbt26MAsGhlAfc3oJNPPjn5G5A7YLkh0J3AypUrkwvUuX9gujcg9erVy959913QCiDg9kX//v2TZzJ48ODkDOimm24yd4mcWLeoEXIb7T5j4E4DW1pabNWqVfydKNaR0Mm67l9J7q3YY8aMsW9961s2dOjQAj07nkrRBdyHmd3fiN5//33bs2dP0Z9uzTw/97GKYcOGJX8SORCkmBsfPUIHb7wLkrvoGm9YiHlI7F/bBcidAbmD1P3v3BBIK7B3797k55pbXAH3c+z+x50NFelWqAgVCYbnggACCCDgX4AI+TdmBQQQQACBLgSIEIcGAggggEA0ASIUjZ6FEUAAAQSIEMcAAggggEA0ASIUjZ6FEUAAAQSIEMcAAggggEA0ASIUjZ6FEUAAAQSIEMcAAggggEA0ASIUjZ6FEUAAAQSIEMcAAggggEA0ASIUjZ6FEUAAAQSIEMcAAggggEA0ASIUjZ6FEUAAAQSIEMcAAggggEA0ASIUjZ6FEUAAAQSIEMcAAggggEA0ASIUjZ6FEUAAAQSIEMcAAggggEA0ASIUjZ6FEUAAAQSIEMcAAggggEA0ASIUjZ6FEUAAAQSIEMcAAggggEA0ASIUjZ6FEUAAAQSIEMcAAggggEA0ASIUjZ6FEUAAAQSIEMcAAggggEA0ASIUjZ6FEUAAAQSIEMcAAggggEA0ASIUjZ6FEUAAAQSIEMcAAggggEA0ASIUjZ6FEUAAAQSIEMcAAggggEA0ASIUjZ6FEUAAAQSIEMcAAggggEA0ASIUjZ6FEUAAAQSIEMcAAggggEA0ASIUjZ6FEUAAAQSIEMcAAggggEA0ASIUjZ6FEUAAAQSIEMcAAggggEA0ASIUjZ6FEUAAAQSIEMcAAggggEA0ASIUjZ6FEUAAAQSIEMcAAggggEA0ASIUjZ6FEUAAAQSIEMcAAggggEA0ASIUjZ6FEUAAAQSIEMcAAggggEA0ASIUjZ6FEUAAAQSIEMcAAggggEA0gf8Bu1lHk5UyVpEAAAAASUVORK5CYII=&quot;&gt;&lt;/div&gt;&lt;div id=&quot;SDCloudData&quot; style=&quot;display:none&quot;&gt;&lt;/div&gt;" style="text;whiteSpace=wrap;html=1;" parent="1" vertex="1">
          <mxGeometry x="1850" y="160" width="460" height="460" as="geometry" />
        </mxCell>
        <mxCell id="BVkSgA7eZD7vXLeDeiiQ-73" style="edgeStyle=orthogonalEdgeStyle;rounded=0;orthogonalLoop=1;jettySize=auto;html=1;exitX=1;exitY=0.5;exitDx=0;exitDy=0;" parent="1" source="BVkSgA7eZD7vXLeDeiiQ-62" target="BVkSgA7eZD7vXLeDeiiQ-32" edge="1">
          <mxGeometry relative="1" as="geometry" />
        </mxCell>
        <mxCell id="BVkSgA7eZD7vXLeDeiiQ-62" value="&lt;div&gt;&lt;img src=&quot;data:image/png;base64,iVBORw0KGgoAAAANSUhEUgAAAIsAAACLCAYAAABRGWr/AAAAAXNSR0IArs4c6QAAIABJREFUeF7tfQd4XNWZ9jtVo9GMerEld7k3ucpNtrEBE9wwkEYIhJosIUv+3SebZEuym2QTNiELpC/NJIQssAHHBGzcce+9N9mSZcuWbPVp0qj8z3duO/fMnSZrBgi6z8NjId2Ze+8573m/92vnmrq6urrQe/SOQAwjYOoFSwyj1HsKG4FesPQCIeYR6AVLzEPVe2IvWHoxEPMI9IIl5qHqPbEXLL0YiHkEesES81D1ntgLll4MxDwCvWCJeah6T+wFSy8GYh6BXrDEPFS9J8YNlnmfPaWNmtkk/6z8SzFhFhhmvzfDhE7616z9TvqAfL7yefZ37fcW5e/K1xpdh85Rvka9jvF9cCdq1zFJ9yfdKPc5dhv0//Lv1D9xz8o/j/oV4t/1zyR9p3J5E7RHDnMP6vXlsTRBGkv1e/j708ZCexZlDrRrSkMs/d5iBv7878JzR1kPPQsWYWDDTgYNBD/g8s8WbTR1oONGVphseQCNJp2fHOHv2qUjgUUGLwd+HljqQlAxYvRdeoBIuAwDaB1gNSCoY6h8jh9j/t6EhaV+TlmEAqhNFhP+/P0o6BD+3A2wnNRWnfJl4soXBjgiaPiVbcQw/OAIf2eI4sY+5DpGrMCuJwGBbput1ohgUyZOWIX8M8vY1618o8nnVjaBRrq2no1DWE59Ro1h9M+tjIHAhPL1VVALoLEQWBLPLAJYdCZGP7Dq3IajewFkFrMJHUSRHF1LPyrLwpjapevwqAkzwYp5NMsTFQJEHhA8EIUJ4QDOgBay2nnTJoBMZgiVYcIwl2gGwzJMGLNEpl+3EASzmhyw3HNCsPEGkxTG3idUw3D0rl0nDOXrwCesWJ7pdKuRX7kCqG5Gw8hgSbaGYWD5D205x2KQ4jdDOrBEoGaOXqMyzEetYURzFVXwhi6Q6BomCsNENEd6MS9hWDA7hgyjMZyoYSwWJAEsy4hZZBwaeikGFHyTGoa8I8k8CZQvahidqDXQIiLlc+ZR77CRCIlgkvjJMtJtin7nz0uYhhFAI2gc1TuVx0oBtS1pzBJO2BpROC/qVK5TNIgRnWv6I5kaRi97BG/NyKyG0RqahjEWnDptxXtHOqaIbtpvVsMkxQzNWXZcE6BqnESY9Ehg4gY5oRqm23EYQcOIJslw5fICWwCaui6UMeJph/tckuMwFpMJ7/xQC1YkRrMsOy5/L/fQcZkjbYB64zC8AFdAGkaU93AcRjJDCQbLnGXHVDdVulR3QaMNykcbhzFgRbMUg5EOI5PJCUwh0qqu0I95HIbM0Ds/tMZCKJp4iLe6n8CihuPF+IcRw3wC4zAKUnSAMUpZ8ICKqmFk4CmfCcfGSYrDkDeUeLAsPcp5CtKTq2QWr4YRVm9CNYwQh2E3zlO7mB4QYicR2Y8HipHH9TGMwzCw/MiWYGbhwKIxzM2Zo092HMYo3P7xj8MkDyyCtxOXWdKtaN697L6G6U4cRhekUhhGiNNIeoz3jsJpGCH+w4ULImkYSRKFCSOokkkTvt3LJRnHYSgs8c5/JoNZZOFHaW41WCaKXSNQiNQvpuE1KSX9JHoAYqIxibkkXutqop5zhzkcaYk+Y4ZRA2X8Z8JoGC2HZLywxJIETUYq5wtgUUoUSOAm3AwtPqIvLzAARbc1jDp48mpKWD1MlGy1jhmUla8udRkrYbykT0gchjHLj+2J1ixHwpYo9IyG0ZbbTcVhLIDVYobDbkKKwwSHzQyLVZrgri4TOjq70NHRhbYOINgGBIJd6CSaFOhf+l89MCKXFcSerZZKGuQLxmGO9AQcwYzxBV5CLom5zv+ZaLAsPszFVvgYRWhO6KOIw1CwyZlqRnaGFf362jBskB1DB6ageKAduVnSHbW2daG+sQN1jR243tCByitBnL7QhmvXO+Dzd8ET6EJnp7K5hGBquFoYIyCFgk0wB8oJH3EchgncH6ckmFkILGHKHA01DDNT8j0lMA5D13amWjCg0Ibpk5yYOy0NRQWxC7i2YBeqrrbjwIkADp5oxcUr7WjxderZRmQY3vU3jCfpTZdRzc1HVQ+TJLAc4sxQGLstFjWJqylcBtaw4k5vloxqelNSzCjsY8PMyWn4zFw3CvP1ICGOIJPT3k4mqAtmswlWC9UGm3SlscptNjR1YvsBPzbv9aOyOggfgUatcOI1jCYeP2lxGKvFhBU/SQazGFEpT2jypPeMhuGKm4WVzdgkzYIJo1Jx752ZGDfSod5FZyfgC3TC4+2E19eJ+qYONDR1oL2jCyl2MzLSLXCnmZFiM8GRYoIrzQynwywXl0tfU13bjg07fdiyz4+rNzo4lhE0jBBcNC5viOzNJLsehmmWhINl4aFQb0gsXhLAlIg4DInVPvk23FbmxpLbMpCVIekRYpAWbyeu1ARx8lwAB44HcKGyDY3NHVpMQwad1W5ChtuCgYU2TB7rwLgRDhTkSiCilUcHmacte/1YudGDyqvtaA9ypoWZ2E9mHMZqNmHF09riikW8xF0pN4eBJbKwVYRfouIw5PYVFdnxuYVZWDg/nV2ONjvzBzpRcbkN2/f58OFuD2obJPcm1preglwrZk1OxazJThT3tzGhLAEQ2HM0gJXrPThdEURbm178kjljR49qGOE7Y43DsPsIje+INb3kCLzzk4SD5WD4AmqD2lY2iD2lYeirLCYU5ttx78JMLLsjk309mZz6pnbsPezDe+ubcPZim2GriQacyBV3xQPsWDTPhdLxqcjOMMMqu9yHT7XirdUtOHa+zYBhOMaJ1JP0MYnDMM3ydGoshKKe0w1m4cESC8NoYOkJDZOXbcVdt2fhC0uz2CSS2amuaceaLc1Y9WEzWlqITW6+L8mRasKsiU4svdWF4gE22G3Ss+46FMAbq1twvjLIQKqjFMUkqSwjVtzJf+AZiP1sHOlNZByGBH4SwHLAwBsSHjiKhlEGJ944TKrTglumufHV+/OQmW5hQLl8NYiVa5vwweYmBNvFhWIMGpVhxCJnIZ1Aq2/K+FTce4cbI4fYkWI3MY9q7XYv3l7rwdXrdMFPZhwmicxivKLUqUpAHMZmMmHsaCe+9uU8jCh2MI1ytTaIt1c1YPWHzQiSjoimpVQvTSEEo4nmgC+DafIYB764OB1jhtoZm5GAfmedB6s3+9DsVeklNNLboxpGYKWbrIdJCljKFh7QukkNVxXPMj0XhyHP50t352LJ7ZJOaWruwPubGvGnFfXwt3bJ9xQhX2PQLhtZw2imgZJ5c6Y5cd/idAwqsjH9ePFyEH98twW7jwTkaK/k4ttTzEhJMTEWohMpRuMjIHdGuDfeFIlmSWRp9Ws4oOvaf4SIsfx9Yl8SA8tPnYnWLGSGDMwO/SraylZuLc44TGqKGbNK3Xjq0QK4XRbmzu4+6MHvXruOazfaQ8Er3kcPaZi7b3Pj7gVuZLqloV+73Yc3V7WgobkTudkW5GdZkJ9jZe53VrqZgaXiSjsuXA6i9kYHbjR3yjqH13ofTT1MUsBS9pn9WmxB08mC0ItPw0SLwwwsSsHXHizAjMkukNNaebkVr755A1v3emTccizAA9koUmzAMIautUFPEqUSvnxXOsompTJzREG+Feu9aPZ0omyyA6OH2pEmu9v8kq2t78D+463Yuj+A0xXtaGsVTWby62FYnOVnaYllFgKLGlfgVXzYSQrX92ti2z6E1MMwhpKfgQqnzSZMm+jCv36zEGlOCwKtnfhwZwt+tbyGmR/psnJgTARvlHoYhQljjcPQdeZPd+L+peno31dKKdxo6GCeUroreivoqQtB/PVDHw6caIXHz8+TQZwmgpd0U/Uw8ngxb+inCQfLPuOUvc40KYZVGRBjj0EdrghxmKwsKz63JAf3Lctlp1+60oZX/rcWW/e0hCY0eUEZbncE5T5j1TDCvZEX9uCyDCyYnaa608pzkCtNycfmlk4GZJsVyM60wO3U0gjXbnRgxQYvtuwLoMVjIMqTFIexE1h+5ko0s2hg0RgmcRpmyCAHvvVEIUYNS2U1KPuPePHMb66irrG9x8ES6/4wlNEmdiGxqxxkiqjU4fi5NpyrDLLSh7RUE8aPSMH44SkYwiLCEprpby+/3YI9R9vQ1k7saKRh5DFNUByGMUtywCIwBh+MCsswwoCEtFYYRHqtJkwam4Yffac/Kz9o8XTg/Q2NePH1Wm1FRGg10Sxad7yk8FHegmwrvnx3BuZNdzJ2obqY7fv9WLPVi8rqdrBSGI7ligfa8NkFFBF2MADRse9YK5b/pQWVVzuULZ30qzyk0Z0fP2GsurE/DAnclc8khVn0TJIoDZOaasH8ORmMWei4crUNr751HRu3N8cElqhdA2KsIo44zIyJqVh4iwsZLjNznzfu9OF6nVxqZ1AAPri/DQ8sdWPymBTmVpNH99s3mrF5f6ssePkx7Y6G4Zko+v4wdnKdEw6WBXuNs85sGYcRmmIzWkh8xnjVZGfZ8PklOfjSPXkMHGfK/Xj2has4eyEggyXCalPHnr+nbjIMP4/yM1pNJgzsZ2NeUVVNO6uwk5jM4BqyKZk1yYGvLEvHgEKpE3Db/gD+8K4Hl2vJ/U9uHIYxy8/dCdYsDCzCJMkP2tMapk+uHQ98Lg9L7shmD3XslA8/eu4yrtcrcf3YwBKVYXogDqNL7xgCxgSX04wn788AgYbM1/X6DjyzvInpHOmIlEvi2YZ7bnWBCrtZhdT06scqSWDZE77/16iw+SY0TN8+KXjs/gLcPleK2h4+7sX3f1bFtIu0jAUvS/c7jg503Yjc7yPFYWSE6WJAvLfVzb1hlt2Whs/e4VLrgX/2ShO2Hgigs0Oo+RXvTfD0Qkr8+LGIYX8YSqSvfFYq74j1iDvrXLYgHFikcLdU9mgwiTxoYoj0Us3KoAEO/N1DfTBtkkSXB4958W//dQl+v5yPiRMskRlGN8I6MMYTh5FMEQdIHsAmE6aOS8Ej96ZjcD/Jk3p/sw8bd/lRda1dTgsYMUx3NIzwGWGsksIsM27dDSrJU2lTgaXhKo1fw1AFXEa6FYMHOjBxnAsLbslEn3ypZYExy8+r0EJus0rZEcScCKYocRjK6eTn2FjVHXk4N+o70Cqs+O7s0cuzYL9CK/7hwSyMGSY9U31TJ06Vt+H0xSBLC1yq7kBDcwc648ol8eCMbX8Y0lyJZ5Zb9/ClZ4I5UJAjg8QIQBEYxum0YMQwJ6ZOcKN0khvDi/XFOUdOePGDn1ehoaFnwUIslpNtxZiRDkybmIYBfe24eLkNew77cPJ8KxoaO/S7aIqBM9EkqX+Xh4czzw6HCd9+LBvTSxy6el8689LVdhw62YYDJ1tx+kKQtaTIOyVzlqJn+pKSAhbGLFRqaDFp5YqRlDxHwyFmgPtcZoYVM0rTsWRBDsaO0oehqYenobEdH+5owsuv18DX2iVfW/Eg5LE0NEvCqmP/q4m9DJcFQwelYPqkNMya4kJfrn2E6nh37Pdi7xE/zle2ocUnF1bFsr9dBMAsnpeGOVNTWdKRkpLkSvOVkBcvt2P9Lj92HQ7ger2cfBRN903GYZgZejYjVrkiLfF492eRwGLi2IWbjDBMElHDmIHcbDvuuDUL9yzOQ16OZMupXsXn72CxFfrv1Dkfdu9vQcWV1h7ZHybVbkJhXzumjndi9jQ3hg1OgU0un+RHMNjehfMVVNfrxcGTflRVczW4UYqn9DkrDaCOVDOGDrQzF7qowIp+BVYMGWBDdoaF5cvo8Hi7sHm/H+t3+kHgaWcyTTD/vFmV3XP13jkviQ8QKj8nCSy7QtpXQzRMSHRWH0PgGcbltuKuO3Nx370FSHdLUpIm6PKVVuw91IJDxzw4Xx5Abb1aVq/zgnQh+kjNbDLDUW1Kfq4NJaNTMWuqGxPHOFkbiHJQy0hjUwfL6VAeSDm8/k4cPx3AjgM+HD3tZ6URwQ55B01+Ho3YLcreMH0LrCgd58CkMSmsIi89zawyDbHLmx94UV7VLrWiGIUteKCIoAlTD0NBuZXPSV5mrEc3mEUDi1oWqbkL0nVjjMPY7CbMnJaBpx7vj7xciVEoq3z8lBer19dj575m1vsj7vCoZYv52EH07crcbitGDXVgxhQ3ZkxKQ0Geltuh3qKLVa2s6Luqug1DBqRgSokTA4vsapU/3V9dQwcOHPdLeuZcAHWNnWB1E/wkxaFh1IkymZiHNHOiAzMnOTCgr1Vlug27/fjTe17U1BulBrpXD8OYJeFgmbfTuFpf9ZDCmSX972k8+/dz4DvfHIjxY6QcBQHl0FEP3lxRyxhFpNSQhJtRLISvFJBBm5piQf8iO6aUpGH2tHQMHZyi6wu6fLUNh477sGOfB6fLW9Ha2oVUpxmjh6Vi1pQ0TBiTisICm85MUe3vroM+7Dvqw9mKNvh8XQatINwzx7hHr9UGzChx4K75LgwfLBWKU2/2q39pAYHG55NH5SbjMHazCSufTzSzzNul1pvoAla6jQ+NQtcaC5CGcdjNuG1+Dr791ADJ9AS7cPKMF6+8fpW5yLrDMG6jMUm44imzlUyOHRPHpmF2qRvjRzuR5pTQRKKZIsHHTvmxY78Hh0745c4APaizMi2YOCYVMya5WMdjbpZVNRF0z2cvtmLnQR/2Hwug6loQ7UEuixgmcBcpDqM89/QJDjx8D9XNWBmRVlS345nljbh4RWEX3vbFH4dJHrMoTxQm+BZLHIZiJ//2T0MwYZyLidma2ja89Fo11n9YL/QlGZma8GF+BbNmuwlDB6XizvmZmD7ZjT6cyWn2dOD0+QD2HPJg70EvLtfIeogTjOqEyvqLip3IY5pa4sTwIQ7WtagcHl8n9h31Y8WaJpyraJO0hfJd4YCuOnIGC4vWgcWEB5e6seiWNPVaL7/TjDVb/cylji+XJADLDBYre+/5rFjlCjsvfs1CZigMWGLVMMQsJWPdePbHw2GzmZj52bazEc/85hICPk6jxBDpZbeiZos1EOXk2HDPohxWOEXXUI7aG0Fs29PCMtfnK1oRZEE3g5VpkBSkvujiwSmYP9ONsqlpoB4m5aAs8p9XN+Hddc1obO7sEQ1T1NeKf3o4E8MH2VlM5mxlEE+/2Iia69SKq2dA3azzXloYLylJYNkRVnDy/UCR4jAupwV3Lc7HE4/0Y89Ye6MN/7P8CjZs5lhFwrI0BjGBRh+uLx7swCNfyMfs6fr8B4nX9VubsGNfCxOyOrCooOFMJncPBLp+hXbMnpqGW2e50a+PfreGrXu9eO0vjSygF/U9AxHiMPyj/90XM3H7LCerg6G+qO/9sh5HKfEYpsFNBU2UOAwDyy+lBG2sRzeYRQSLXjuoNbURNAyVHnzziQG4dY50sxWX/PjOv5fjao2SfVVuv3tgoYkqHuLAw18sYF0B4tHQJGkVMkNHT/pQXRuUCpYEsCiGhiK8ffrYMX5UKkonODF+ZKrOrVa+f8d+H15b0YCLVfJzdDMOoy4Okwml41Lw5P2ZrGOAjuUrWrB6iw8ef5d+Y2ejcEWEOEySwLI9NDikjJaBfdYH8KS771OQgu9/dwjGj3EzoXnspBd//+0z2pu9+KWlYxhuQpXfh6m4GzY4FY/cl49ZpRKzUH0s7c2i6Sngel2QlWnuPezFidN+XGc5J/ka8kDnZdswbkQqpk5Iw+RxTuTlaKaH3G3aFMeRIsGKwPKHFfUoZ2CRviCmXFKEOExGhhn/9Y+5auJx424/Xn67mbWf8OYzPg1jkjRL4pkldrCE0zCFfVLwkx8Mw9DBTrQFO7FrbxP+9UflXLbaABT0q5jMkXTeMDJD9xGzSGC5eKkVFZdaMXyoA33zbeq1pBbYNgaY/Ye9OFMeQJO3k23FMbLYwdzt0glpKOpjZ8CggzTWxUttLM4yeriDxW4ksHjxhxUNKlhirenVdreUvp+feHrkZ76Th1FD7ezxj5xuxX+/2oRaqspTorQ8gxiNk4GGSQ5Y5mwPTSTylT98NhhK/kifHigqdOC5/xoJAk0g0InN2+vxnz+vUPiJDUJoHokDUAygoSTkwxxYNm5rwhsrb2D4EIklxo1yIjdb0xytbZ24cKkV+w55UV0TRD9KBUxIw+D+KbBTd6Hsbl+5FsSBYz7sPiiZrwfvzWZ7xKhgeacB5ZeUXRw4ZtFpFINyiAhxmO89mc0ivKSZKq4E8YPfNOBqrb6mRxuSMGELAVCU3X/vlznamMfwU/yaJSJYVH9QT8FCLonA8sufjUJBvp2BZdPWevzkWQ0sPVEPM6yYzJDGLOu3NOIXL1+Fv7UT/fukYOpEF6ZOcGHE0FTGIspBpsXn72TxGGV/FvrbDYrJnPaxCC+Bpa6+A263Bd94KM8YLNwKv9l6mO8+kY2ZE1IZaGnfu+//qk4GizTe3dkfJklg2SaPK88WCmzDxz+UySAb3qcwBT/94QgUD05lwbjd+xvxzz84z2FbWx2RGcbAXMkaJhxYvGxLDoD2oRs8yIEpE1woneBiZsvh4MO/0u0QcCgmQ+2y+454ceVqEMFOyVQYg6Ue5RXELPqFE5eG4ViIrvPDf8hleSMKpFHty9MvNbB2WOkwuE4M+8MwM/QrqRcr1qMbzGIEFuWmRbDof6+ssNx8O777j0MwfWomC8idPO3BU985AzIF/ADoXx4ufDczd+GvN6yYNEsfVbNIzFINbwu364HZhNQ0SZtMm+hG6UQXBvajmIa0T25lVRsDye6DXpyvCMAv7PhEjPSNh/IFZiGwtMr3JjItNx78rUdIPhKAf/qtPJZgJEu192gAv3i9EXX1/O4N8veqmWZxFyphnGidW8zJAMvWUG9ITCRG0DD0WFlZNjz85SJ8blkfho2qywH8x9PlOFOuJD70jNEdsyQxSyhYmls6DEscMjKs+NziHCy7M5uZII+3A39Z04B3VjegSdkgSL0tafAlsJAZkkQ0E7jvyGARs71c6F8V/ryOCJN8LO5vx788kcPC/nS8v9mLP77bjCYGeh4EPDCjvy+JgeXXCWaW0jlb9YVHChVGBIy+9JFczXlzsvH97w5ln25qbsfbK6/h1dere6zNZFixE4/cL4DlxSvcfiqKayuTmdmERbdnMXc7O9OKuoZ21qO0akOjdIJBiabGLBJYtu/34rW361BeyceLBMEpgCKaa73kVjfrfqRaFzqe/30DNu31S71GyqGL0upBo0yP6FonBSwz5mwxiLPINxgjYMheDhnkxLNPj0Rujp3t4HT8pAc/fuYCqq8pFK6NhbKC4mk1Yczypb6YNU2ayPWbG/CLl6pBzBKuxGHhHVl4lAfLm9examMUsHwlH7fNlsGyz4PXiFliBIvKMDxjcWCiupZ/fDQHU8ZJrSO0Teu/PHeDZbnRxbFKFLBIONeDlt6R+N5vpX6sWI+4NUtp2RZ19eseVrmZGAGTk2XH4w/3x12L8lV2eefdGvzxrWrjXZyEhw1foikNzLAhqRKzTJNKBxlYXqhGs1fvcvIZ60ULsvDIlzhm4cGijCjHMCqzyGChEoc/vM1rllDAi8I3XKsJ6bU75rrxwLIMtW1k1yE/fv16I8uWhwThdIAJBQfdNv8GeZPFjFXJAItU+mdgL6MCRqNIm82MySXp+N53h4LC/xRhrboSwPLXLmPjFsoRGbxCRh77WDTM8GFOPHZ/H0yfIq36jVsbGbM0NnFRWqEeZtGC7LjAkpNuxdcfzsP8WdI1SAj/4c91OHshDDvy4yb/HBq4k8Z2wugUPPTZLAwfbGdeEGW2yQTtPuJHOxPagnmLABb9dEkxHpPJhFW/lRZqrEc3mGWz/N1ay4GeYeQ/h7SLhLrVJHQf+GIRPn93HxZ+Jjf69FkPfv+nauzZ3yQDJgwweeXPzpQ1iNWMgf0duP2WLNw6N0ttI6m4FMCqdfXYvrcZV65xmoJjiiW3Z+PR+zVmWf5GLVZvks0Qdw36sbDAzvJOC+dnYlB/qa3jWm0Qm3a2YP32FlwlF5t2SIhSYqpFHxUNZcK4UQ58fmEGSkY52O7fdKzd5sXyFY1ooL19o77Cjx8zY9eaNEuSwCI/mJGCV2EaPQ5D7ELa5YnHB2DaVKlqq62tE6fPerF63Q3s3NOI+oZgzGWamVk25irPmp6J0cPTkJ2l5XFYsdONICus2rW/GYdPelGvtMHKgJHAUqAKXCOwpLnMKBnpRFmpGxPHpbE+I8nFl476xnacOBvAzgNe7DvsZT1Axl5L6CTSPi7TSpxYMMeFMcM0oJw414qX/68RZy60se3k+fRApN5q6Y70DKRg12QhZimIlVSkb4q3ur+07MNQgWtEqcqNRtEwVOk+YXwGHrq/H0rGSWFzErxUDEXssmtfI46fpK24xH1LtUGgkoexo1wom56BKRPT0a8w/AsMiL0uX23FgcMe7NjXjFNnfSzwRlrCECwbGtg9EbCLBzows9SNaZOkeAy9A8DoIJN6+ZpSqunFyfMB+KkHSHdo95+TacWIISmYMMbBug0K863qRs0XLrXhjyubsO94gC0kXYU/R9bGGiYcw0iJxFW/SyJY1HcTdlvDSA9DgJk6OQNfuLcQkydo9SetlLCr9KP8oo8Vca/ZUIeg1BPBPketG4MGpmLurCyUTk5H8aBUFpmlg5iESh6OnPCwl1RNGu9CrtxmQn+nsP6FSj/2HmzBTmoxqWzFZ27N0pilPojlb1zH6o0NyM+zsaDdzKlujBquTw9QGuDQcS8LLo4f5WTnKpaNEo7kGVGSkmIwVLfLTJOykMwAbYt+311ZmDHJiQGFdtXs0ClHTwfw3iYP9hz2IyAELPXsEsogoa87kZBFeo9GMDlgmbFJQjdjDAXaet++OxrGkWrB2NFuLLwjD3PLstnmPcpBA7x9VwP+/ekL6OzsZJ5Adp4dZaWZzOSMGp4GalJTDqpXOXC4GTv2NOH0WT8TiCXjXMwzKhmbpvtuOvfEaR92H2hhLSKLF2RLZqg+iDffrcOlK62YMz2d1fEW5NtAtS0K2GhXBwLa0ZN+kHWg3akmbXkjAAAUfUlEQVRmTnGx9hJ664h2Px04dV4yTQQc6hBQDsrR/L9H8jF/Zppa6kBilmI2m3YSK8n7tyhDHUOrib7fXOg8ULQdaZYXEs0sM8gMKW9P0INFaZAKAVFUL0n6SluKGUV9HZg9KxuzZ2Zh9AgXWwEtnnasWnMdv36xCi6XFZMmpGP2jEyMH+tmmWtF75E5OXXGi227GnH4aAsqr7SiQ96Gy+E0Y1D/VEyd5Gbmilxr5c0fZPauXQ8iGOxE33w7Yyf6rouXAuz6g/qnqBPZzprOAti+twUHjnhRebmNJSeJToglBhSlYOJYalxzsVpdpdaFTBNls4+e8jEgHD8TYOxGY/WZW9x44J5s5iKfOBfA9v0+7Dsi9Sapr+JTvJ0QnUhfwW1KYFRdKL6zWmGWF6QIeqxH/JpFYRYVMPEwTHTRSyvXmWbFyJFprDhq8EAno05iFjIbt8/LwdRJGRg0IFWtrSXmqbwUwNadDdh3sBnlFQEEAkKiTR5EV4YVo4c5mUs9Y2o6ivoa6xvlrXd8+ok6I4lJ9h3y4PQF2kBQFK+Su0/pguIBDlbiUFbqYuUOCjCprYPeXLL/iA8f7mphpomKyW+Z4WLvaTxzvhXnLrbBL5vbnt7yQ2U00iwv9I0VJ5LhjFvgRgDLzWsYzZzRinY5rcjLlVZ6RqYNdy/OZyLY7ZJMDumE6zfaGJPs2N2Is+U+FkeJFoch6qc22TGjJdM0pcSlM2PiCDKzdsSLnftacPyMj9tMiF8o8qc4M8GEa7GDmaYZk9OYeVMOyjcdPO5nEV/aVp4CfMQ0be1AB/cC53BxGNHlDtcqy5do8s/FNEviwbIxtGA7RMPIg6jzkoQ4SwxxGOnh6AWZFtw2Lwff+uZgXaNXc0s7q4V5a0UNC+gp57N/w8Rh+JS+zWrGiOFOfGFZHmaWZoTtdd65txn/99c6nLsQQFARmmoJglFwkn9plRmD+tnxhbuyWeO90rdEt0jNbD97oYaJX/LSjO7fKA4jD4t0ejc1DLnOH7wg7dUX69ENZuHBwg2UgeANr2FkMMWYGshw27BkYT6e/KrUkKYcVDhFntKOPY2slaTykl8ueteUv3a2flJtdjOGDyVPivqK0tG/KEVXn6t8jvRM1ZVWVqqwZSeZOL8+HaErk+B9Wenn4kEOzJ7qZswysJ+0+SB/PPdyLTbu8LAXa0UDiz5bbRBsU1DE714ZRsMkiVk2xJ9IvIk4DK2cDLcVSxcV4OuP68FCY0PCsbEpiJOnvSyIt10J5IXLJZlN6F/oQNmMDEyfkoGhg1PZ+wCiHaRPzl+kIqgW7NzTgsu1bQCFfhTBKaxwcqGpi3H6ZBdGytV4QuUku+Tzr9Riw7YWbbdw9UaEcL5RtlrFnUGZZpRWE8YsLyaFWZQnElxngSluXsNIDES1JksW5ePJxweyC1P8wufrYDkl5SAvpeZ6G44ca2FC9+BRDzuHDkXDUIR35pQMBpQRw9JYDa4ygVR4Ra+zI++Fal3JLNB1qJRRCb6R6CWX+vQ5P3bsbcHeQx6QnpEuIo0FbRk/aRz1VLsxbqQTuTlWVdzS3+ldjakOaU8WBpaXa7FhexiwcPErEv5Sm41CQEZhC2m8JIKR2VVhG+VzSkMeaZaEg6WUmMXYddZWZ8/GYYhZliwuwJNflcBC+mTthhtMlM6elYWCPM2joQmmYqoDR1qwZVs9TpzxsXJJar6fNzsbJWNcrAeId5srq1qxdVcji43cOicL6W4rq7HZtK2RFT7NnZGBgf1TVNARMEmUHj3pxaYdTSxOQ9tvUCM9nTtxnJN5QHyEl9xmamxr7wDmzXCzl4EqYFm3vRmt8tao3ckl6fAQo4YhM/TBy0XalMXwU/yaRQWLkbDrroaRPxdGw4hgOXvei9+8eAlVVQGUjHezIB5FgGlV00FeElW6lV/wsWZ7WmQUGaZdG2hVKwf1DVHgbudueq+iH2XTMvDIl/vKuaEglv9vDXbsacaI4lTMLE1n/ymbDdF3kM6goN2hY162nkcNd2LIwBSkpWkOL93HnoNeFpc5cd6PUUNT8fDnc1nsRmOWZvgjgSWmbHV8GoaZocSDZb1GdTpRy1FgtCBcWC/JOA5jBJZf/K4SBw83M7PRr9CBiSXpmDc3m0WBlR2cKORPwTX6l9hCObzeDhw61oJNWxtYGoFA09EOLLkzF4890BdZrFIuiOV/uob31tSDXG3ajWHcaCfml2ViwlgXnPJuDPSdpGcIkOS1KUlF6n0+ftqHzbuacfSEj2WkW4NdLAH56H15HFhqsI7MkLwDZ8RmMbqYUAiumvo4W00o65xksAjusBj+7yENQ97Q0sUF+Lpshs6d9+L531XiyGF5W3aLCU6HBYMHpzKGuXVuDssZiXdHOuRcuQ8btzawdEBVdavk2ciHBhabDiyKaSBzVtSX9nlxY36ZJI75pnuF1Sjyu3lnM+t2rLjSpm3FCkQEi8R5grBVficK3JvUMElhlsml67TaEX46jHJF6jSIGkYelBjjMIxZFhXgya8NYt9IZugXv6tgzMKn/8kOp2daMWqYiyUXyTzRNql0XKtpZTGZ7bubUFEVAG27wRYqd4+LPyMxCwlnYhbaK+b9tXIhFtdyQSw1eIADs6dnYO7MDHUHKQoIbtvdjG17mtmW8U2e0Ar8sqluPPoljVmee6kG67c1SykDDizqG+S7UQ/DYy5cHEbSLNLGBLEecWsWAkvI5jl0NaOdn6KAKdY4DIuzLOqDJ78mCVwGlt9W4OAR5YUP0mpU4hDmFBMmjE3HIw8UYYJc9kAR3l+/XIUr1a3qK3bFml4dWOqDeOVP1/D+2jptEvkKfbMJ9Ia1rz7UBzOnSplyyj6/9n+1rNlefY2vEIcpm+rCo1/K18zQSzVYFwYsEpoN2LsHNEzSwKIgMQQ0YYNskQWsQvO60LayPCzUckFg0ZiFmSECy6GmsFuWDS1Ow2MPFqFshrRhzbpNdXj+t5e4uhg93dP4E1gef7AQWZk25iK/8vo1vL/uRmjxkjxZmRkW/P2jhawqj47te5rx6pu1OHcxoHVACHEYiVk0sDz30jWs30rMoryVjb5JA0i8GkbXzBYhDsPA8kr/WElFmo14c0MSs+gfSH04Hbvw5xiDJdY4DJmSJUuIWSQzpAOL2p+jXY++d+hwJx57sF90sHBxmMWfycPjD5LAlcCy/PVreK8bYLlwkUs9RAHL8y9dwzodWPj4CDeGUfq7443DJAcsk9dqtCxTgbFZMgCLiuP44jDudBvuCgsW+UuF+MKI4cQsGljWbqwDeVBSxZ2B2282YSlplgcLka0yy1W8v0Y2QwYlpJlZ1jDMQi9A5E2jZk7KpqXrmeXFa1i/rYmL4CpBNWWwFPDIb/3oIQ1DrSAfvBoaEY9ENfEzCwOLNNmEFcMXYjIB0XNxmIx0WwRm4R6PA0woWG7gud9dgqeZf12efkKWLsyLAhb9M2VmkRkqEsxQDTNDNEa6JIJ8b2Wl6awoXImzPBcRLAa7SfSQhkkSWNboc0PciBhrmAigCadxBC/J7bJh6ZICfOOJwWx2z1/w4jf/U4Hd+6jyXhCA8mCOGJqGR7/SnxVR0bF24w0895tKeEJeP6MBZumdMljIG2KapVpjFs4bUq6ZnmHFU48XYYGsWbbtbsLyt2pRXu43aGST7nPmNDce/3JBKFjCvemEfaz7GiZcHIaZocQzCwcWmT0SrWEILKRZ/l4Gi9/fgQOHm/DGn6slkWtQ3klgeewr/VHGg+VXlfD4ODMkeCp3L8rDY18pYu42ucGv/LEa764mgctrB+1n2hH8qa/2w4J5EiAJLL9/qwbnygPGYDGDudqP3JfHKuroePbFa9hAZkguGtd40ijHE07DhCYSo2mYJIHlA4Oss7HZ0Zgm3lySPCgywzhsZswuy8H3/nmEui0G232pwocPt9Rh9bpa1NVx27UDLFH46EMDNGbZcAPP/boCHjm5yK/W7Cw75pRlgQTuULnckvI/VI6wZmMdtuxoxI0byvdrYXWKtzz11SIsmCftjceY5Y0alKsCV9MqdO6MyW7WT00hf6Ww/L//5ypooyEpzsKxpGGORwPLzcZhKCr9watSKCLWoxuahZhFo2511SVYw+Tlp+CeuwqZ0CVvhQ7aFqOpsR2HjzVh5V9rsO+g3JgWCSzU6yybvxSHheWM7rwtF2NGuZCdbdNliKmWhd5Gcua8Fxu2NGDPgWZ4lC07zGApBJFZRLBQ1HfqRDd7bxLlmHKybGrUlzLd//Hzy9h72KO9X0gZWoNGfJ7hIrrUMcRhJGZJOFiIWTg61P2s3w6sJ+Mw9HBZbjvGl6Qz0JRO0bYSp5YR2vFSYZnr19swojgNjz5CmkVa9ZSlZszS0g4z7Wc7JI0xybTJGWrpJp1HjEIgpKy0slkh7XtXRzs/nfRg7aZ6HDvhQSDQBaZZRGb53xrGSMQSY0c6ceet2ayjoE+eXd1ujK5TUdWKVRsa2DarTVTmYMQkdKIhaLqvYRT2ohc9fPB7KRQR69ENZuHNkMAwSdAw1Ow1cIATt9ySi7sW92G7MNBByULSGUePNeOvq2pYicHDD/RDmQAWV5oFt83PxZxZWRjQPxX0/8rBSh821uHUOS/GjHDh9nnZ6FfkUI0DVeZRzcyBwy1Ys6ketAHzk48U4XZes7xRw+6FAnVTJrhZwxtlupW6GWKqDVubsHV3M3uxhNcvvryBN0X8ooxHw4SCTNQwjFkSD5bVxjW4RmyTqDiMRaqeGz8mg5ml6dOyVBYglqFJr7rsR0F+CkaPlF4iQVV0u/c2YtaMLAwfSn09VrU+hVpkqWCKGvLLK3zweDrhopdWDXbi9luyMXtGFjLlYmsqf/D6OnD1WhuOnvCwN68pL9M6cZoayVpZx8DAfg5WMqFkoQloO/c3Y92HjTh9wc8246E2FRWqMdb0asVN+oUar4ahxru1yQVLhKxzgjUMDZXNZkFRkQNzynKwbGlf0NtaFZahqjc6lH3iqK6E2kMoZqNkiskDofzS6nXXceyUhzFTJ2tml57LRiWdWTaMG+3CwgW5LM+k1MNQ1ZzP2wGrzaT2BhEgOru6WNGTYsLIpB076cPqDfU4dsqL2rp21pWoE/98FDpOc8QnQtlNxxiHSY4ZKlkFqG/8MoqhCNSZ6DiMxQR3qhWjRrtZspEa1ML1ICtrkYTr2XNevLfmOvYfaGL1LHxbrDjo9H1k7qhFdvEdksfEb74czuZXVgUYSPYcbMG1mqD87iT5bKW80bCrM96XhMavYQjka38vxa1iPeLXLCWrAbWOSLnJMAyTBA0jPaiJNa7n56dg1sxs3LusL9Mj4kFcU13dijXrr2Pbjnq2yxSxg9aOy1G7EFanDDXVzPTtm4JbyrKYu6wwmXgdqsvduKUBm7Y3MiFLcaEO5W2q8v1Sxj0k+s332RsxjFEnga7Wlluo4rlCuoJ2kvog8WBZpY2NIcMIzKKeHVoF11NxGC0oaILTRW9wTcOiOwswb26u2tdMHsfWHfVYvb4WFy/64GmR3qgqRoCjvf6GQEMttLQt652357JSTKUKj8zQ7v3NWL2hDqfLfWhpIpBwAGRmQrimAIpuaxj1a2PLJTFmeW1IrKQijVTcWWcyQ8oRApaPVsMoE08sk51jx5RJmZg3N4fVypJbfeR4C5qbqadZLgcwnCiDQi2DFU0NatR1UDLWhbllWWzPty07mnDkuIcVTtEbPHRHFC3SMxpGA2K0OAyFBpIAlvdDvaEe1TBGzNSdehgTHE4L3OlW5sp6PR2stSNcLkmXJY7jFX6kZ9wZVkYYkogWOwtF9hJe0q0gKhxww/QlqUDsZhyGeUOvJ5xZeLDIk/gx1DCKlmH/Rux8NMirqO244TSA/ve62lne7DKzY5zoFMskDDWMarbCCF6dSYsvDpMksLxnnBuiB+umhkl0PYwEGFGMxzKJ0qY3OuBFqScJcWV12WoD1oxW1CQyj5HI1YEytnoYZoZeL060ZgkHFlPsXlKS62G0Sj5lbMJ4cUamIEawxLNHL7uLpGiY8PUwyQHLmPeig6JHNczN18Noyyf6/jDiJDILFoeGiWX3hpBKvRC2Mnrvo5btjgVs+khvaByGeUOvSzucx3rE7w2pYIkwiZ9YDcNPCFfpFhUs3M5L4RjDsB8oHMOYkOg4TFLAUjLmr3JMLgaz000No6tQV2CfwL4knSYRNYJQiRctDiM2icWvYXhdY5AQ7K6GUb9WWhB2qwlr/zQsVlJh53WDWf6qCb5oDPIxjcOo4IjkJammQWNQvUlSWMg4tvTx1DAaEJMClpIx78Iq5jPiBo2wevjvi5pLMvAo4uqtFj4f0a02XtmRXkOs00eckI3MMIJJj6Bh9F0DnNsfZwKSKuU2JJ5Z3g11nRlY/hY1TBgzEIOGUa1FIjUMA6N8JcNcksHCknNJSWKWlSowiGEoqi0RS+I0TOLjMPF7SaqUitG1js1LMpjcBMVhSHtteGN4YjVLyZiVzAxJIBHiFRHNUQxgEsxRsvqSjOMwkYN2avJSNGNG9ST8Sy+VhaVOUxjtk+A4TNLAInoP8YEmXKQ3jBmLqmF6Kg4TJf8Uxkv6pMZhJLCMSDyzKCtR2x7HiGH+VjSMkfgU3tesaz00YoqPXxyGNvNJvBka8RcuB6QAUxqgZGmY3jgMB+Bu1sMwsLyVaGYxAEuohumu4DWOWSS7t5ohP87E4ydNwyQJLCs0N1kNuuld549Ww9xsHEYwqX+jcRimWd4amVjNMnkMuc5CXCVMWF9tytaBymgy5a8MWc3669ADanvBGmiimPaH0cCg2zwoTlCoo6zWGRuZhjDPalSHItTIquECXZpD/j6joJ26I7OxF6dWzqmxmSSAJS4o9p78NzUCceeG/qaevvdh4hqBXrDENVyf7pN7wfLpnv+4nr4XLHEN16f75F6wfLrnP66n7wVLXMP16T65Fyyf7vmP6+l7wRLXcH26T+4Fy6d7/uN6+l6wxDVcn+6Te8Hy6Z7/uJ7+/wP3xJxuY0XiaAAAAABJRU5ErkJggg==&quot;&gt;&lt;/div&gt;&lt;div id=&quot;SDCloudData&quot; style=&quot;display:none&quot;&gt;&lt;/div&gt;" style="text;whiteSpace=wrap;html=1;" parent="1" vertex="1">
          <mxGeometry x="1460" y="340" width="150" height="150" as="geometry" />
        </mxCell>
        <mxCell id="QUZMhjQtI1Pf0ZXP93t3-1" value="Text" style="text;html=1;strokeColor=none;fillColor=none;align=center;verticalAlign=middle;whiteSpace=wrap;rounded=0;" vertex="1" parent="1">
          <mxGeometry x="410" y="300" width="60" height="30" as="geometry" />
        </mxCell>
        <mxCell id="QUZMhjQtI1Pf0ZXP93t3-2" value="Text" style="text;html=1;strokeColor=none;fillColor=none;align=center;verticalAlign=middle;whiteSpace=wrap;rounded=0;" vertex="1" parent="1">
          <mxGeometry x="410" y="300" width="60" height="30" as="geometry" />
        </mxCell>
        <mxCell id="QUZMhjQtI1Pf0ZXP93t3-3" value="Owner" style="text;html=1;strokeColor=none;fillColor=none;align=center;verticalAlign=middle;whiteSpace=wrap;rounded=0;" vertex="1" parent="1">
          <mxGeometry x="45" y="130" width="60" height="30" as="geometry" />
        </mxCell>
        <mxCell id="QUZMhjQtI1Pf0ZXP93t3-4" value="User client" style="text;html=1;strokeColor=none;fillColor=none;align=center;verticalAlign=middle;whiteSpace=wrap;rounded=0;" vertex="1" parent="1">
          <mxGeometry x="5" y="375" width="60" height="30" as="geometry" />
        </mxCell>
        <mxCell id="QUZMhjQtI1Pf0ZXP93t3-7" value="Desktop Client" style="text;html=1;strokeColor=none;fillColor=none;align=center;verticalAlign=middle;whiteSpace=wrap;rounded=0;" vertex="1" parent="1">
          <mxGeometry x="130" y="400" width="60" height="30" as="geometry" />
        </mxCell>
        <mxCell id="QUZMhjQtI1Pf0ZXP93t3-8" value="Vpn Gateway" style="text;html=1;strokeColor=none;fillColor=none;align=center;verticalAlign=middle;whiteSpace=wrap;rounded=0;" vertex="1" parent="1">
          <mxGeometry x="240" y="240" width="60" height="30" as="geometry" />
        </mxCell>
        <mxCell id="QUZMhjQtI1Pf0ZXP93t3-9" value="Vpn Gateway" style="text;html=1;strokeColor=none;fillColor=none;align=center;verticalAlign=middle;whiteSpace=wrap;rounded=0;" vertex="1" parent="1">
          <mxGeometry x="250" y="550" width="60" height="30" as="geometry" />
        </mxCell>
        <mxCell id="QUZMhjQtI1Pf0ZXP93t3-10" value="Vpn Gateway" style="text;html=1;strokeColor=none;fillColor=none;align=center;verticalAlign=middle;whiteSpace=wrap;rounded=0;" vertex="1" parent="1">
          <mxGeometry x="190" y="130" width="60" height="30" as="geometry" />
        </mxCell>
        <mxCell id="QUZMhjQtI1Pf0ZXP93t3-11" value="Switch" style="text;html=1;strokeColor=none;fillColor=none;align=center;verticalAlign=middle;whiteSpace=wrap;rounded=0;" vertex="1" parent="1">
          <mxGeometry x="460" y="340" width="60" height="30" as="geometry" />
        </mxCell>
        <mxCell id="QUZMhjQtI1Pf0ZXP93t3-12" value="Internet&amp;nbsp;&lt;br&gt;Explorer" style="text;html=1;strokeColor=none;fillColor=none;align=center;verticalAlign=middle;whiteSpace=wrap;rounded=0;" vertex="1" parent="1">
          <mxGeometry x="650" y="411" width="60" height="30" as="geometry" />
        </mxCell>
        <mxCell id="QUZMhjQtI1Pf0ZXP93t3-13" value="Vechile&lt;br&gt;Information&lt;br&gt;Server" style="text;html=1;strokeColor=none;fillColor=none;align=center;verticalAlign=middle;whiteSpace=wrap;rounded=0;" vertex="1" parent="1">
          <mxGeometry x="590" y="1" width="60" height="30" as="geometry" />
        </mxCell>
        <mxCell id="QUZMhjQtI1Pf0ZXP93t3-14" value="Client Information&lt;br&gt;Server" style="text;html=1;strokeColor=none;fillColor=none;align=center;verticalAlign=middle;whiteSpace=wrap;rounded=0;" vertex="1" parent="1">
          <mxGeometry x="540" y="681" width="60" height="30" as="geometry" />
        </mxCell>
        <mxCell id="QUZMhjQtI1Pf0ZXP93t3-15" value="Hub" style="text;html=1;strokeColor=none;fillColor=none;align=center;verticalAlign=middle;whiteSpace=wrap;rounded=0;" vertex="1" parent="1">
          <mxGeometry x="870" y="320" width="60" height="30" as="geometry" />
        </mxCell>
        <mxCell id="QUZMhjQtI1Pf0ZXP93t3-16" value="Server" style="text;html=1;strokeColor=none;fillColor=none;align=center;verticalAlign=middle;whiteSpace=wrap;rounded=0;" vertex="1" parent="1">
          <mxGeometry x="790" y="-9" width="60" height="30" as="geometry" />
        </mxCell>
        <mxCell id="QUZMhjQtI1Pf0ZXP93t3-17" value="Mail Server" style="text;html=1;strokeColor=none;fillColor=none;align=center;verticalAlign=middle;whiteSpace=wrap;rounded=0;" vertex="1" parent="1">
          <mxGeometry x="1190" y="171" width="60" height="30" as="geometry" />
        </mxCell>
        <mxCell id="QUZMhjQtI1Pf0ZXP93t3-18" value="Switch" style="text;html=1;strokeColor=none;fillColor=none;align=center;verticalAlign=middle;whiteSpace=wrap;rounded=0;" vertex="1" parent="1">
          <mxGeometry x="770" y="570" width="60" height="30" as="geometry" />
        </mxCell>
        <mxCell id="QUZMhjQtI1Pf0ZXP93t3-19" value="Firewall" style="text;html=1;strokeColor=none;fillColor=none;align=center;verticalAlign=middle;whiteSpace=wrap;rounded=0;" vertex="1" parent="1">
          <mxGeometry x="843" y="731" width="60" height="30" as="geometry" />
        </mxCell>
        <mxCell id="QUZMhjQtI1Pf0ZXP93t3-20" value="Mail Server" style="text;html=1;strokeColor=none;fillColor=none;align=center;verticalAlign=middle;whiteSpace=wrap;rounded=0;" vertex="1" parent="1">
          <mxGeometry x="630" y="890" width="60" height="30" as="geometry" />
        </mxCell>
        <mxCell id="QUZMhjQtI1Pf0ZXP93t3-21" value="Application&lt;br&gt;Server" style="text;html=1;strokeColor=none;fillColor=none;align=center;verticalAlign=middle;whiteSpace=wrap;rounded=0;" vertex="1" parent="1">
          <mxGeometry x="870" y="871" width="60" height="30" as="geometry" />
        </mxCell>
        <mxCell id="QUZMhjQtI1Pf0ZXP93t3-22" value="Payment Server" style="text;html=1;strokeColor=none;fillColor=none;align=center;verticalAlign=middle;whiteSpace=wrap;rounded=0;" vertex="1" parent="1">
          <mxGeometry x="1020" y="820" width="60" height="30" as="geometry" />
        </mxCell>
        <mxCell id="QUZMhjQtI1Pf0ZXP93t3-23" value="Database&lt;br&gt;Server" style="text;html=1;strokeColor=none;fillColor=none;align=center;verticalAlign=middle;whiteSpace=wrap;rounded=0;" vertex="1" parent="1">
          <mxGeometry x="1230" y="730" width="60" height="30" as="geometry" />
        </mxCell>
        <mxCell id="QUZMhjQtI1Pf0ZXP93t3-24" value="Cloud" style="text;html=1;strokeColor=none;fillColor=none;align=center;verticalAlign=middle;whiteSpace=wrap;rounded=0;" vertex="1" parent="1">
          <mxGeometry x="1630" y="461" width="60" height="30" as="geometry" />
        </mxCell>
        <mxCell id="QUZMhjQtI1Pf0ZXP93t3-25" value="Data Center" style="text;html=1;strokeColor=none;fillColor=none;align=center;verticalAlign=middle;whiteSpace=wrap;rounded=0;" vertex="1" parent="1">
          <mxGeometry x="2040" y="660" width="60" height="30" as="geometry" />
        </mxCell>
      </root>
    </mxGraphModel>
  </diagram>
</mxfile>
